<svg version="1.1" id="Layer_1" xmlns="http://www.w3.org/2000/svg" xmlns:xlink="http://www.w3.org/1999/xlink" x="0px" y="0px"
	 width="100%" viewBox="0 0 500 500" enable-background="new 0 0 500 500" xml:space="preserve">
<path fill="currentColor" opacity="1.000000" stroke="none" 
	d="
M1.000000,181.000000 
	C1.000000,120.681602 1.000000,60.863213 1.000000,1.022409 
	C167.610107,1.022409 334.220245,1.022409 500.915161,1.022409 
	C500.915161,167.568466 500.915161,334.136993 500.915161,500.852753 
	C334.333435,500.852753 167.666733,500.852753 1.000000,500.852753 
	C1.000000,394.446320 1.000000,287.973145 1.000000,181.000000 
M67.761803,127.755814 
	C67.761803,127.755814 67.833275,127.823189 67.960083,127.004044 
	C69.027603,119.831039 70.700012,112.982018 75.322861,107.003334 
	C77.701607,103.926910 79.583679,100.205528 80.709610,96.479294 
	C82.650139,90.057152 84.926285,84.342537 91.355179,80.885239 
	C93.766273,79.588600 95.198318,76.527962 97.188492,74.374870 
	C98.902542,72.520515 100.681541,70.702965 102.599815,69.066002 
	C105.553497,66.545464 109.557594,64.765121 111.515091,61.661125 
	C117.098564,52.807423 124.440956,46.303505 133.704681,41.662285 
	C137.501892,39.759842 139.442368,31.908400 137.488754,29.657284 
	C132.978577,32.259644 127.847824,34.053318 124.405121,37.522266 
	C120.681236,41.274529 116.494820,42.154675 111.898155,43.062424 
	C96.523018,46.098694 83.945374,52.658211 78.952881,69.001709 
	C78.033813,72.010414 76.248985,74.754135 74.868965,77.622673 
	C72.594833,82.349731 70.196014,87.022087 68.083588,91.820442 
	C64.946106,98.947166 62.648426,106.524162 58.834000,113.252258 
	C53.875454,121.998421 47.141560,129.755524 42.375633,138.587921 
	C38.528343,145.717850 36.464973,153.810379 33.436359,161.942703 
	C32.045025,162.018066 29.628044,162.148972 27.908218,162.242126 
	C26.868383,167.557541 25.863815,172.276749 25.046185,177.028152 
	C24.555338,179.880524 23.789581,182.861084 24.172474,185.642960 
	C24.629423,188.962875 26.182463,192.131912 26.855322,194.150330 
	C31.580393,197.342133 36.122234,199.818481 39.932434,203.135315 
	C44.582390,207.183136 48.617817,211.936905 54.516235,218.037262 
	C53.819202,221.199554 52.700817,226.684372 51.386055,232.121689 
	C50.092854,237.469818 47.582863,242.475357 48.924065,248.389374 
	C49.963715,252.973663 49.860577,257.817108 50.281097,262.728333 
	C49.043900,262.379822 48.253769,261.934418 47.495552,261.983398 
	C44.678741,262.165253 40.036869,261.643097 39.415146,262.959869 
	C37.723038,266.543640 42.099976,266.639374 44.191292,267.979584 
	C44.996052,268.495300 45.859230,268.966583 46.757717,269.281311 
	C51.055038,270.786652 52.620365,273.825317 53.202885,278.306519 
	C53.853317,283.310181 55.027695,288.466278 57.138309,293.015930 
	C62.346264,304.242279 68.220215,315.159637 74.308380,327.150391 
	C65.166862,326.218140 57.760056,325.462769 50.222183,324.694061 
	C50.222183,326.945007 50.222183,328.390991 50.222183,330.177643 
	C54.944191,331.779846 59.511013,334.043579 64.314819,334.797699 
	C72.196190,336.034882 78.884583,338.507751 81.924393,346.517914 
	C83.790421,351.434998 85.173149,356.535492 87.071709,362.490967 
	C83.570984,362.032227 81.642464,362.172668 80.053352,361.505127 
	C72.007362,358.125183 64.029495,354.579651 56.076267,350.984863 
	C54.288486,350.176819 51.793774,349.320374 51.165035,347.834381 
	C48.140301,340.685455 45.108158,333.457947 43.087669,325.985504 
	C40.248894,315.486694 38.302814,304.746643 35.970394,294.110779 
	C34.978317,289.586884 34.940914,284.503662 32.723198,280.690308 
	C30.154915,276.274078 25.664871,272.975525 21.031403,268.179810 
	C21.031403,271.209534 20.734089,272.717529 21.079580,274.060150 
	C23.346252,282.868805 25.791534,291.631348 28.099953,300.429535 
	C30.126204,308.152283 32.008789,315.912689 34.030502,323.636688 
	C36.002998,331.172607 34.976463,339.349030 39.792740,346.379822 
	C41.269569,348.535736 39.828640,352.539917 40.207603,355.638580 
	C40.626350,359.062531 40.518929,363.478455 42.570080,365.571625 
	C46.228241,369.304718 47.648228,373.722107 49.813892,378.099457 
	C53.908680,386.375885 58.925743,394.202881 63.725304,402.116119 
	C64.414726,403.252838 66.119858,403.726379 67.189972,404.690002 
	C68.948807,406.273804 70.500488,408.088684 72.268875,409.660583 
	C75.599129,412.620911 78.101128,416.104889 83.237877,417.333191 
	C88.419220,418.572113 92.960419,422.505524 97.768753,425.281525 
	C101.613449,427.501221 105.433441,429.763672 109.273895,431.990723 
	C110.938950,432.956299 112.916481,433.581543 114.256950,434.874573 
	C120.676743,441.067505 126.737350,447.642181 133.295181,453.679718 
	C138.939316,458.876068 144.919479,463.748352 151.066650,468.341583 
	C154.586746,470.971863 158.504425,473.571259 162.651306,474.757111 
	C171.248489,477.215668 180.162140,478.455017 187.722931,483.890808 
	C190.514984,485.898132 193.782303,487.813660 197.084610,488.436707 
	C207.560776,490.413208 217.416931,493.754028 226.710114,499.012421 
	C228.285919,499.904053 230.799484,499.138397 232.879807,499.138397 
	C233.079346,498.587280 233.278900,498.036194 233.478439,497.485077 
	C225.968781,491.918396 217.154251,487.425659 215.861572,476.657196 
	C215.749817,476.778992 215.930603,476.397003 216.205566,476.308868 
	C229.027832,472.198547 242.346695,472.617188 255.557434,471.956024 
	C266.890778,471.388794 278.220612,470.701599 289.531586,469.808960 
	C290.750519,469.712799 291.833496,467.894592 292.979553,466.875183 
	C291.735840,465.949829 290.527405,464.276550 289.242889,464.215973 
	C277.663300,463.669647 266.056610,463.640564 254.487000,462.962372 
	C248.549057,462.614288 242.597565,461.583160 236.778717,460.290985 
	C220.053604,456.576813 203.508392,452.469757 186.176865,451.623627 
	C178.592499,451.253387 169.444138,454.174622 163.090759,446.620972 
	C162.813751,446.291656 162.239563,446.196167 161.789368,446.031097 
	C156.294495,444.016144 150.794312,442.015533 145.303741,439.988953 
	C144.716202,439.772095 144.117569,439.494781 143.630310,439.110718 
	C138.895523,435.379089 134.117767,431.697754 129.481873,427.846069 
	C123.954063,423.253357 116.350700,421.236267 112.740685,414.259033 
	C109.739929,408.459351 105.211624,403.810425 99.004089,402.208252 
	C91.943214,400.385803 88.224144,395.486481 84.164703,390.141083 
	C84.887138,390.047699 85.239769,389.906067 85.542694,389.976898 
	C94.090782,391.976685 102.637428,393.983185 111.169792,396.048523 
	C111.744507,396.187592 112.383224,396.690552 112.692619,397.204559 
	C118.734268,407.242432 129.178757,409.728333 139.835938,413.336884 
	C139.429047,408.970184 139.303345,405.128876 138.659103,401.376617 
	C137.951233,397.253815 139.732056,395.334595 144.036102,396.006104 
	C146.610336,396.407715 149.212585,396.840912 151.806442,396.868683 
	C162.637558,396.984741 173.492859,396.563934 184.289795,397.191467 
	C187.930573,397.403076 192.387741,399.272583 194.761551,401.918640 
	C198.373367,405.944824 200.495041,411.307861 203.215271,416.043396 
	C192.131836,415.044769 180.770950,414.021149 168.886597,412.950348 
	C169.434479,416.222748 169.125839,419.535400 170.524643,421.787567 
	C175.103455,429.159912 182.079742,433.320709 190.346954,436.164337 
	C205.322235,441.315308 219.888031,447.845306 235.951523,448.922424 
	C248.924011,449.792297 261.918427,450.493927 274.913452,450.753235 
	C278.029022,450.815399 279.795807,451.083160 280.690460,454.189087 
	C281.454102,456.840149 282.532227,459.400604 283.471252,462.001129 
	C283.843506,461.975433 284.215759,461.949707 284.588013,461.923981 
	C285.526367,457.994202 286.464691,454.064423 287.482391,449.802307 
	C297.706879,448.849854 307.940643,448.010468 318.138153,446.851898 
	C320.218628,446.615509 322.218628,445.286377 324.157837,444.273560 
	C327.858582,442.340759 331.488861,440.272949 336.238983,437.661591 
	C335.828552,446.928223 332.805511,453.364716 327.690125,458.714569 
	C323.140442,463.472809 322.403290,469.528564 321.227325,475.429596 
	C320.989868,476.621216 322.213745,478.768219 323.350861,479.375305 
	C324.403473,479.937195 326.367218,479.304474 327.707031,478.702362 
	C330.000671,477.671539 332.123474,476.259155 334.312866,474.998047 
	C340.093842,471.668182 346.150970,468.831970 349.071442,462.033569 
	C351.820709,455.633667 355.196503,449.502533 358.312408,443.261017 
	C358.741455,442.401550 359.378479,441.632263 359.718018,440.744293 
	C360.844177,437.798767 362.267029,434.892731 362.854889,431.833008 
	C363.693573,427.467926 364.072540,423.104584 368.154236,422.653442 
	C370.727692,424.475128 372.355743,426.066833 374.307007,426.810577 
	C375.190765,427.147491 377.755768,425.859802 377.792786,425.208740 
	C378.249969,417.168945 385.282776,413.467743 389.962219,409.397461 
	C397.790863,402.587952 407.733582,398.231598 416.673981,392.662109 
	C418.984497,391.222748 421.071777,389.289429 422.914581,387.266815 
	C425.664886,384.248260 428.135895,380.971741 430.669922,377.760986 
	C432.165527,375.865967 433.535767,373.872589 434.994568,371.947815 
	C436.734985,369.651459 438.509827,367.381195 440.620850,364.644501 
	C442.347382,375.305725 439.689209,383.219421 431.978363,389.681946 
	C425.272675,395.302032 419.095734,401.572968 412.883911,407.755981 
	C408.092865,412.524902 403.588257,417.583405 399.011932,422.564331 
	C398.270294,423.371552 397.387665,424.408691 397.302765,425.402161 
	C396.706207,432.381104 393.282471,437.473541 387.430847,441.127167 
	C386.799011,441.521698 386.447815,442.365662 384.791138,444.552856 
	C387.898895,444.746063 390.138977,445.586334 391.415741,444.820557 
	C394.177002,443.164490 396.440765,440.680908 398.914703,438.543518 
	C406.337067,432.131012 413.830505,425.798492 421.157410,419.278839 
	C424.657867,416.164001 428.246094,413.007874 431.097046,409.329834 
	C439.005798,399.126587 446.657196,388.717651 454.187927,378.230286 
	C457.719482,373.312195 462.083527,368.426666 463.747437,362.835175 
	C469.484955,343.554474 469.777130,323.515930 469.852142,303.562805 
	C469.883179,295.308014 468.957184,287.047668 469.044434,278.795990 
	C469.082275,275.218018 470.376709,271.591034 471.480530,268.106750 
	C472.334412,265.411316 473.794678,262.909882 474.959808,260.310760 
	C478.796204,251.752930 480.455963,242.860291 480.102295,233.417252 
	C479.929047,228.790787 481.401733,224.123260 481.784729,219.446091 
	C481.959808,217.307648 481.301636,215.100967 481.021393,212.925232 
	C480.523499,212.876816 480.025574,212.828415 479.527679,212.779999 
	C478.350220,214.294617 477.062531,215.737183 476.016846,217.337891 
	C473.296112,221.502853 470.925262,225.919739 467.951996,229.889450 
	C465.299744,233.430618 461.548615,236.190918 459.126678,239.854019 
	C453.484100,248.388184 448.136383,257.138245 443.115753,266.052368 
	C441.139832,269.560577 440.128448,273.679230 439.078613,277.626526 
	C437.387177,283.985992 434.805420,289.687256 429.203766,293.955414 
	C428.707489,293.052612 428.021698,292.383667 428.017517,291.710449 
	C427.957336,282.045197 428.035461,272.379150 427.983276,262.713806 
	C427.944122,255.460464 431.717651,250.232956 437.243774,246.373764 
	C444.774506,241.114670 450.561981,234.893539 452.216431,225.497864 
	C452.434143,224.261520 453.258057,222.452576 454.213196,222.130402 
	C463.860413,218.876541 463.261719,210.363388 463.741974,202.912277 
	C464.184601,196.044601 463.137695,189.090958 462.954346,182.169693 
	C462.806915,176.603851 462.126801,171.333130 458.396515,166.803940 
	C457.230530,165.388199 456.602264,163.459503 455.985535,161.676453 
	C454.801971,158.254562 453.739532,154.786896 452.748688,151.303558 
	C452.060577,148.884476 450.442383,145.950943 451.211334,144.041061 
	C453.613190,138.075638 456.236542,132.045380 461.598602,127.833000 
	C462.656647,127.001823 463.987335,125.251579 463.758789,124.253372 
	C462.225372,117.555763 462.522461,109.735878 454.699463,106.313461 
	C453.010559,105.574585 450.857941,105.895630 448.918915,105.728462 
	C449.158356,107.273689 449.397797,108.818916 449.732269,110.977547 
	C446.739594,113.173309 443.279602,115.711945 440.749115,117.568581 
	C435.808594,107.068756 431.323853,96.618881 426.027405,86.598038 
	C422.377563,79.692520 416.969727,73.696190 413.502136,66.719658 
	C409.682190,59.034157 404.422516,54.717705 395.814484,53.931271 
	C391.926849,53.576088 387.426453,52.890125 384.494049,50.658882 
	C379.235199,46.657436 373.523193,48.866692 368.020569,47.547016 
	C375.003082,55.759617 382.197144,63.440048 389.570801,70.944008 
	C392.477203,73.901749 394.146576,77.121155 393.026367,81.212288 
	C391.807678,85.662933 390.555511,90.142120 388.808136,94.399620 
	C387.074738,98.623009 381.089600,99.285294 377.698517,96.302261 
	C372.081726,91.361298 366.045990,86.889175 360.522064,81.851822 
	C352.848694,74.854347 343.078766,69.729935 339.960632,58.540047 
	C338.952911,54.923710 336.770264,51.601074 334.885742,48.279892 
	C334.165222,47.010044 332.774963,46.120190 331.689941,45.057159 
	C330.823059,46.330460 329.529785,47.497643 329.180786,48.899845 
	C328.518341,51.561390 328.396667,54.357533 328.030823,57.252277 
	C318.549896,53.659935 310.051239,50.439774 301.552551,47.219608 
	C301.288879,47.664097 301.025177,48.108585 300.761505,48.553074 
	C307.988220,55.666168 315.451508,62.560966 322.320251,70.004395 
	C324.913300,72.814377 328.197632,77.310074 327.590881,80.315361 
	C325.738037,89.492477 323.250275,98.708809 313.244843,103.537437 
	C306.831512,106.632545 301.241821,111.413658 295.193756,115.300308 
	C293.610718,116.317627 291.382996,116.446327 289.987183,117.620255 
	C284.330200,122.377983 277.320557,121.962814 270.699677,122.893875 
	C269.566162,123.053261 268.048004,121.698601 266.965149,120.749466 
	C264.511597,118.598923 262.475586,115.883179 259.805725,114.087173 
	C254.609787,110.591919 251.108948,106.227791 249.805389,99.983894 
	C249.561432,98.815430 247.403214,97.112488 246.283630,97.223381 
	C241.546005,97.692619 236.867004,98.753548 231.689285,99.683952 
	C234.974136,107.492050 238.138107,115.012779 241.368149,122.690613 
	C234.744995,123.240448 228.931030,123.723099 221.552521,124.335648 
	C223.714569,125.864685 224.589081,126.660179 225.606659,127.170189 
	C228.889908,128.815781 232.093079,130.796173 235.569260,131.845184 
	C242.675476,133.989624 244.376083,138.717178 244.261353,145.610870 
	C244.156738,151.896011 245.202332,158.256897 246.289276,164.488785 
	C247.309036,170.335648 247.039825,171.265747 241.116043,170.955582 
	C234.084152,170.587387 227.020645,170.092636 220.073135,169.001404 
	C207.196365,166.978867 194.226471,165.151276 181.609558,161.988907 
	C169.927872,159.060944 158.626968,154.578125 147.252319,150.516907 
	C146.133469,150.117416 144.992081,147.863876 145.017502,146.492340 
	C145.166061,138.474762 145.659225,130.463562 146.071808,121.690392 
	C147.150742,122.695999 147.840088,123.129677 148.246216,123.749054 
	C152.658020,130.477722 159.560593,131.658813 166.748352,131.846542 
	C170.550644,131.945862 172.966522,128.870682 171.685959,125.462372 
	C169.085083,118.539970 165.896881,111.918205 159.055344,107.938126 
	C158.119736,107.393837 157.536194,106.095512 157.004578,105.038231 
	C156.052902,103.145493 155.264755,101.170532 154.407928,99.229187 
	C160.973755,97.008278 162.488907,90.890808 164.959000,85.594276 
	C166.754211,81.744919 168.091614,77.970970 172.372681,75.643417 
	C174.957047,74.238342 176.432739,70.794067 178.406586,68.266068 
	C178.023804,67.857231 177.641022,67.448387 177.258224,67.039551 
	C168.492554,71.045868 159.726898,75.052177 150.924759,79.075165 
	C151.274658,74.499825 151.384109,69.723953 152.129623,65.049522 
	C152.408188,63.302891 153.977386,61.612717 155.290817,60.207863 
	C159.641357,55.554497 164.143478,51.042850 168.587463,46.476837 
	C168.306549,45.741592 168.025635,45.006348 167.744736,44.271103 
	C163.280762,44.193462 158.808670,43.911461 154.354813,44.088486 
	C148.415024,44.324566 143.351639,46.211193 140.959000,52.409271 
	C139.755493,55.527004 138.155655,58.490246 136.911285,61.594009 
	C133.533447,70.019203 132.525665,78.665794 133.818787,87.739326 
	C134.596771,93.198280 134.564240,98.796814 131.629135,103.960945 
	C129.982376,106.858284 128.839462,110.040169 127.439804,113.080162 
	C124.978432,118.426208 121.539627,123.544388 120.261642,129.156815 
	C118.670174,136.146011 116.591232,143.109695 116.879585,150.596405 
	C117.222115,159.490051 116.294121,168.434250 115.841225,177.352692 
	C115.815819,177.852951 115.104614,178.318405 114.778328,178.719299 
	C105.696213,172.598022 101.880249,163.097900 97.986984,153.630508 
	C94.671021,145.566971 91.776695,137.268661 87.696762,129.606186 
	C85.614433,125.695396 84.704262,122.596275 85.643433,118.207260 
	C86.533585,114.047310 85.834831,109.547371 85.834831,105.196945 
	C81.972351,108.188652 79.828178,112.411858 76.390724,114.638451 
	C72.342201,117.260841 73.488945,122.276245 70.062065,124.798157 
	C69.091248,125.512604 68.474602,126.708321 67.761803,127.755814 
M207.893738,12.979366 
	C218.224564,13.625160 228.557877,14.234608 238.884552,14.941031 
	C241.637466,15.129352 244.362106,15.804228 247.113831,15.919830 
	C251.404419,16.100084 256.320740,17.308151 259.843781,15.663740 
	C263.923004,13.759714 267.677673,12.821136 271.973236,12.962375 
	C273.800171,13.022446 275.869446,13.418933 277.400970,12.722336 
	C279.145294,11.928946 281.488892,10.149616 281.575653,8.680891 
	C281.657959,7.287259 279.417572,5.190890 277.731354,4.401310 
	C275.617828,3.411633 273.037689,3.157477 270.642090,3.074863 
	C258.068207,2.641243 245.489700,2.327578 232.910797,2.069182 
	C231.162704,2.033273 229.398239,2.502391 227.650497,2.792856 
	C221.126587,3.877109 214.582809,4.864355 208.097198,6.144883 
	C205.672241,6.623669 201.667908,7.396866 201.347656,8.741661 
	C200.228867,13.439740 205.303253,10.942771 207.893738,12.979366 
z"/>
<path fill="currentColor" opacity="1.000000" stroke="none" 
	d="
M67.695526,127.683319 
	C68.474602,126.708321 69.091248,125.512604 70.062065,124.798157 
	C73.488945,122.276245 72.342201,117.260841 76.390724,114.638451 
	C79.828178,112.411858 81.972351,108.188652 85.834831,105.196945 
	C85.834831,109.547371 86.533585,114.047310 85.643433,118.207260 
	C84.704262,122.596275 85.614433,125.695396 87.696762,129.606186 
	C91.776695,137.268661 94.671021,145.566971 97.986984,153.630508 
	C101.880249,163.097900 105.696213,172.598022 114.778328,178.719299 
	C115.104614,178.318405 115.815819,177.852951 115.841225,177.352692 
	C116.294121,168.434250 117.222115,159.490051 116.879585,150.596405 
	C116.591232,143.109695 118.670174,136.146011 120.261642,129.156815 
	C121.539627,123.544388 124.978432,118.426208 127.439804,113.080162 
	C128.839462,110.040169 129.982376,106.858284 131.629135,103.960945 
	C134.564240,98.796814 134.596771,93.198280 133.818787,87.739326 
	C132.525665,78.665794 133.533447,70.019203 136.911285,61.594009 
	C138.155655,58.490246 139.755493,55.527004 140.959000,52.409271 
	C143.351639,46.211193 148.415024,44.324566 154.354813,44.088486 
	C158.808670,43.911461 163.280762,44.193462 167.744736,44.271103 
	C168.025635,45.006348 168.306549,45.741592 168.587463,46.476837 
	C164.143478,51.042850 159.641357,55.554497 155.290817,60.207863 
	C153.977386,61.612717 152.408188,63.302891 152.129623,65.049522 
	C151.384109,69.723953 151.274658,74.499825 150.924759,79.075165 
	C159.726898,75.052177 168.492554,71.045868 177.258224,67.039551 
	C177.641022,67.448387 178.023804,67.857231 178.406586,68.266068 
	C176.432739,70.794067 174.957047,74.238342 172.372681,75.643417 
	C168.091614,77.970970 166.754211,81.744919 164.959000,85.594276 
	C162.488907,90.890808 160.973755,97.008278 154.407928,99.229187 
	C155.264755,101.170532 156.052902,103.145493 157.004578,105.038231 
	C157.536194,106.095512 158.119736,107.393837 159.055344,107.938126 
	C165.896881,111.918205 169.085083,118.539970 171.685959,125.462372 
	C172.966522,128.870682 170.550644,131.945862 166.748352,131.846542 
	C159.560593,131.658813 152.658020,130.477722 148.246216,123.749054 
	C147.840088,123.129677 147.150742,122.695999 146.071808,121.690392 
	C145.659225,130.463562 145.166061,138.474762 145.017502,146.492340 
	C144.992081,147.863876 146.133469,150.117416 147.252319,150.516907 
	C158.626968,154.578125 169.927872,159.060944 181.609558,161.988907 
	C194.226471,165.151276 207.196365,166.978867 220.073135,169.001404 
	C227.020645,170.092636 234.084152,170.587387 241.116043,170.955582 
	C247.039825,171.265747 247.309036,170.335648 246.289276,164.488785 
	C245.202332,158.256897 244.156738,151.896011 244.261353,145.610870 
	C244.376083,138.717178 242.675476,133.989624 235.569260,131.845184 
	C232.093079,130.796173 228.889908,128.815781 225.606659,127.170189 
	C224.589081,126.660179 223.714569,125.864685 221.552521,124.335648 
	C228.931030,123.723099 234.744995,123.240448 241.368149,122.690613 
	C238.138107,115.012779 234.974136,107.492050 231.689285,99.683952 
	C236.867004,98.753548 241.546005,97.692619 246.283630,97.223381 
	C247.403214,97.112488 249.561432,98.815430 249.805389,99.983894 
	C251.108948,106.227791 254.609787,110.591919 259.805725,114.087173 
	C262.475586,115.883179 264.511597,118.598923 266.965149,120.749466 
	C268.048004,121.698601 269.566162,123.053261 270.699677,122.893875 
	C277.320557,121.962814 284.330200,122.377983 289.987183,117.620255 
	C291.382996,116.446327 293.610718,116.317627 295.193756,115.300308 
	C301.241821,111.413658 306.831512,106.632545 313.244843,103.537437 
	C323.250275,98.708809 325.738037,89.492477 327.590881,80.315361 
	C328.197632,77.310074 324.913300,72.814377 322.320251,70.004395 
	C315.451508,62.560966 307.988220,55.666168 300.761505,48.553074 
	C301.025177,48.108585 301.288879,47.664097 301.552551,47.219608 
	C310.051239,50.439774 318.549896,53.659935 328.030823,57.252277 
	C328.396667,54.357533 328.518341,51.561390 329.180786,48.899845 
	C329.529785,47.497643 330.823059,46.330460 331.689941,45.057159 
	C332.774963,46.120190 334.165222,47.010044 334.885742,48.279892 
	C336.770264,51.601074 338.952911,54.923710 339.960632,58.540047 
	C343.078766,69.729935 352.848694,74.854347 360.522064,81.851822 
	C366.045990,86.889175 372.081726,91.361298 377.698517,96.302261 
	C381.089600,99.285294 387.074738,98.623009 388.808136,94.399620 
	C390.555511,90.142120 391.807678,85.662933 393.026367,81.212288 
	C394.146576,77.121155 392.477203,73.901749 389.570801,70.944008 
	C382.197144,63.440048 375.003082,55.759617 368.020569,47.547016 
	C373.523193,48.866692 379.235199,46.657436 384.494049,50.658882 
	C387.426453,52.890125 391.926849,53.576088 395.814484,53.931271 
	C404.422516,54.717705 409.682190,59.034157 413.502136,66.719658 
	C416.969727,73.696190 422.377563,79.692520 426.027405,86.598038 
	C431.323853,96.618881 435.808594,107.068756 440.749115,117.568581 
	C443.279602,115.711945 446.739594,113.173309 449.732269,110.977547 
	C449.397797,108.818916 449.158356,107.273689 448.918915,105.728455 
	C450.857941,105.895630 453.010559,105.574585 454.699463,106.313461 
	C462.522461,109.735878 462.225372,117.555763 463.758789,124.253372 
	C463.987335,125.251579 462.656647,127.001823 461.598602,127.833000 
	C456.236542,132.045380 453.613190,138.075638 451.211334,144.041061 
	C450.442383,145.950943 452.060577,148.884476 452.748688,151.303558 
	C453.739532,154.786896 454.801971,158.254562 455.985535,161.676453 
	C456.602264,163.459503 457.230530,165.388199 458.396515,166.803940 
	C462.126801,171.333130 462.806915,176.603851 462.954346,182.169693 
	C463.137695,189.090958 464.184601,196.044601 463.741974,202.912277 
	C463.261719,210.363388 463.860413,218.876541 454.213196,222.130402 
	C453.258057,222.452576 452.434143,224.261520 452.216431,225.497864 
	C450.561981,234.893539 444.774506,241.114670 437.243774,246.373764 
	C431.717651,250.232956 427.944122,255.460464 427.983276,262.713806 
	C428.035461,272.379150 427.957336,282.045197 428.017517,291.710449 
	C428.021698,292.383667 428.707489,293.052612 429.203766,293.955414 
	C434.805420,289.687256 437.387177,283.985992 439.078613,277.626526 
	C440.128448,273.679230 441.139832,269.560577 443.115753,266.052368 
	C448.136383,257.138245 453.484100,248.388184 459.126678,239.854019 
	C461.548615,236.190918 465.299744,233.430618 467.951996,229.889450 
	C470.925262,225.919739 473.296112,221.502853 476.016846,217.337891 
	C477.062531,215.737183 478.350220,214.294617 479.527679,212.779999 
	C480.025574,212.828415 480.523499,212.876816 481.021393,212.925232 
	C481.301636,215.100967 481.959808,217.307648 481.784729,219.446091 
	C481.401733,224.123260 479.929047,228.790787 480.102295,233.417252 
	C480.455963,242.860291 478.796204,251.752930 474.959808,260.310760 
	C473.794678,262.909882 472.334412,265.411316 471.480530,268.106750 
	C470.376709,271.591034 469.082275,275.218018 469.044434,278.795990 
	C468.957184,287.047668 469.883179,295.308014 469.852142,303.562805 
	C469.777130,323.515930 469.484955,343.554474 463.747437,362.835175 
	C462.083527,368.426666 457.719482,373.312195 454.187927,378.230286 
	C446.657196,388.717651 439.005798,399.126587 431.097046,409.329834 
	C428.246094,413.007874 424.657867,416.164001 421.157410,419.278839 
	C413.830505,425.798492 406.337067,432.131012 398.914703,438.543518 
	C396.440765,440.680908 394.177002,443.164490 391.415741,444.820557 
	C390.138977,445.586334 387.898895,444.746063 384.791138,444.552856 
	C386.447815,442.365662 386.799011,441.521698 387.430847,441.127167 
	C393.282471,437.473541 396.706207,432.381104 397.302765,425.402161 
	C397.387665,424.408691 398.270294,423.371552 399.011932,422.564331 
	C403.588257,417.583405 408.092865,412.524902 412.883911,407.755981 
	C419.095734,401.572968 425.272675,395.302032 431.978363,389.681946 
	C439.689209,383.219421 442.347382,375.305725 440.620850,364.644501 
	C438.509827,367.381195 436.734985,369.651459 434.994568,371.947815 
	C433.535767,373.872589 432.165527,375.865967 430.669922,377.760986 
	C428.135895,380.971741 425.664886,384.248260 422.914581,387.266815 
	C421.071777,389.289429 418.984497,391.222748 416.673981,392.662109 
	C407.733582,398.231598 397.790863,402.587952 389.962219,409.397461 
	C385.282776,413.467743 378.249969,417.168945 377.792786,425.208740 
	C377.755768,425.859802 375.190765,427.147491 374.307007,426.810577 
	C372.355743,426.066833 370.727692,424.475128 368.154236,422.653442 
	C364.072540,423.104584 363.693573,427.467926 362.854889,431.833008 
	C362.267029,434.892731 360.844177,437.798767 359.718018,440.744293 
	C359.378479,441.632263 358.741455,442.401550 358.312408,443.261017 
	C355.196503,449.502533 351.820709,455.633667 349.071442,462.033569 
	C346.150970,468.831970 340.093842,471.668182 334.312866,474.998047 
	C332.123474,476.259155 330.000671,477.671539 327.707031,478.702362 
	C326.367218,479.304474 324.403473,479.937195 323.350861,479.375305 
	C322.213745,478.768219 320.989868,476.621216 321.227325,475.429596 
	C322.403290,469.528564 323.140442,463.472809 327.690125,458.714569 
	C332.805511,453.364716 335.828552,446.928223 336.238983,437.661591 
	C331.488861,440.272949 327.858582,442.340759 324.157837,444.273560 
	C322.218628,445.286377 320.218628,446.615509 318.138153,446.851898 
	C307.940643,448.010468 297.706879,448.849854 287.482391,449.802307 
	C286.464691,454.064423 285.526367,457.994202 284.588013,461.923981 
	C284.215759,461.949707 283.843506,461.975433 283.471252,462.001129 
	C282.532227,459.400604 281.454102,456.840149 280.690460,454.189087 
	C279.795807,451.083160 278.029022,450.815399 274.913452,450.753235 
	C261.918427,450.493927 248.924011,449.792297 235.951523,448.922424 
	C219.888031,447.845306 205.322235,441.315308 190.346954,436.164337 
	C182.079742,433.320709 175.103455,429.159912 170.524643,421.787567 
	C169.125839,419.535400 169.434479,416.222748 168.886597,412.950348 
	C180.770950,414.021149 192.131836,415.044769 203.215271,416.043396 
	C200.495041,411.307861 198.373367,405.944824 194.761551,401.918640 
	C192.387741,399.272583 187.930573,397.403076 184.289795,397.191467 
	C173.492859,396.563934 162.637558,396.984741 151.806442,396.868683 
	C149.212585,396.840912 146.610336,396.407715 144.036102,396.006104 
	C139.732056,395.334595 137.951233,397.253815 138.659103,401.376617 
	C139.303345,405.128876 139.429047,408.970184 139.835938,413.336884 
	C129.178757,409.728333 118.734268,407.242432 112.692619,397.204559 
	C112.383224,396.690552 111.744507,396.187592 111.169792,396.048523 
	C102.637428,393.983185 94.090782,391.976685 85.542694,389.976898 
	C85.239769,389.906067 84.887138,390.047699 84.164703,390.141083 
	C88.224144,395.486481 91.943214,400.385803 99.004089,402.208252 
	C105.211624,403.810425 109.739929,408.459351 112.740685,414.259033 
	C116.350700,421.236267 123.954063,423.253357 129.481873,427.846069 
	C134.117767,431.697754 138.895523,435.379089 143.630310,439.110718 
	C144.117569,439.494781 144.716202,439.772095 145.303741,439.988953 
	C150.794312,442.015533 156.294495,444.016144 161.789368,446.031097 
	C162.239563,446.196167 162.813751,446.291656 163.090759,446.620972 
	C169.444138,454.174622 178.592499,451.253387 186.176865,451.623627 
	C203.508392,452.469757 220.053604,456.576813 236.778717,460.290985 
	C242.597565,461.583160 248.549057,462.614288 254.487000,462.962372 
	C266.056610,463.640564 277.663300,463.669647 289.242889,464.215973 
	C290.527405,464.276550 291.735840,465.949829 292.979553,466.875183 
	C291.833496,467.894592 290.750519,469.712799 289.531586,469.808960 
	C278.220612,470.701599 266.890778,471.388794 255.557434,471.956024 
	C242.346695,472.617188 229.027832,472.198547 216.205566,476.308868 
	C215.930603,476.397003 215.749817,476.778992 215.861572,476.657196 
	C217.154251,487.425659 225.968781,491.918396 233.478439,497.485077 
	C233.278900,498.036194 233.079346,498.587280 232.879807,499.138397 
	C230.799484,499.138397 228.285919,499.904053 226.710114,499.012421 
	C217.416931,493.754028 207.560776,490.413208 197.084610,488.436707 
	C193.782303,487.813660 190.514984,485.898132 187.722931,483.890808 
	C180.162140,478.455017 171.248489,477.215668 162.651306,474.757111 
	C158.504425,473.571259 154.586746,470.971863 151.066650,468.341583 
	C144.919479,463.748352 138.939316,458.876068 133.295181,453.679718 
	C126.737350,447.642181 120.676743,441.067505 114.256950,434.874573 
	C112.916481,433.581543 110.938950,432.956299 109.273895,431.990723 
	C105.433441,429.763672 101.613449,427.501221 97.768753,425.281525 
	C92.960419,422.505524 88.419220,418.572113 83.237877,417.333191 
	C78.101128,416.104889 75.599129,412.620911 72.268875,409.660583 
	C70.500488,408.088684 68.948807,406.273804 67.189972,404.690002 
	C66.119858,403.726379 64.414726,403.252838 63.725304,402.116119 
	C58.925743,394.202881 53.908680,386.375885 49.813892,378.099457 
	C47.648228,373.722107 46.228241,369.304718 42.570080,365.571625 
	C40.518929,363.478455 40.626350,359.062531 40.207603,355.638580 
	C39.828640,352.539917 41.269569,348.535736 39.792740,346.379822 
	C34.976463,339.349030 36.002998,331.172607 34.030502,323.636688 
	C32.008789,315.912689 30.126204,308.152283 28.099953,300.429535 
	C25.791534,291.631348 23.346252,282.868805 21.079580,274.060150 
	C20.734089,272.717529 21.031403,271.209534 21.031403,268.179810 
	C25.664871,272.975525 30.154915,276.274078 32.723198,280.690308 
	C34.940914,284.503662 34.978317,289.586884 35.970394,294.110779 
	C38.302814,304.746643 40.248894,315.486694 43.087669,325.985504 
	C45.108158,333.457947 48.140301,340.685455 51.165035,347.834381 
	C51.793774,349.320374 54.288486,350.176819 56.076267,350.984863 
	C64.029495,354.579651 72.007362,358.125183 80.053352,361.505127 
	C81.642464,362.172668 83.570984,362.032227 87.071709,362.490967 
	C85.173149,356.535492 83.790421,351.434998 81.924393,346.517914 
	C78.884583,338.507751 72.196190,336.034882 64.314819,334.797699 
	C59.511013,334.043579 54.944191,331.779846 50.222183,330.177643 
	C50.222183,328.390991 50.222183,326.945007 50.222183,324.694061 
	C57.760056,325.462769 65.166862,326.218140 74.308380,327.150391 
	C68.220215,315.159637 62.346264,304.242279 57.138309,293.015930 
	C55.027695,288.466278 53.853317,283.310181 53.202885,278.306519 
	C52.620365,273.825317 51.055038,270.786652 46.757717,269.281311 
	C45.859230,268.966583 44.996052,268.495300 44.191292,267.979584 
	C42.099976,266.639374 37.723038,266.543640 39.415146,262.959869 
	C40.036869,261.643097 44.678741,262.165253 47.495552,261.983398 
	C48.253769,261.934418 49.043900,262.379822 50.281097,262.728333 
	C49.860577,257.817108 49.963715,252.973663 48.924065,248.389374 
	C47.582863,242.475357 50.092854,237.469818 51.386055,232.121689 
	C52.700817,226.684372 53.819202,221.199554 54.516235,218.037262 
	C48.617817,211.936905 44.582390,207.183136 39.932434,203.135315 
	C36.122234,199.818481 31.580393,197.342133 26.855322,194.150330 
	C26.182463,192.131912 24.629423,188.962875 24.172474,185.642960 
	C23.789581,182.861084 24.555338,179.880524 25.046185,177.028152 
	C25.863815,172.276749 26.868383,167.557541 27.908218,162.242126 
	C29.628044,162.148972 32.045025,162.018066 33.436359,161.942703 
	C36.464973,153.810379 38.528343,145.717850 42.375633,138.587921 
	C47.141560,129.755524 53.875454,121.998421 58.834000,113.252258 
	C62.648426,106.524162 64.946106,98.947166 68.083588,91.820442 
	C70.196014,87.022087 72.594833,82.349731 74.868965,77.622673 
	C76.248985,74.754135 78.033813,72.010414 78.952881,69.001709 
	C83.945374,52.658211 96.523018,46.098694 111.898155,43.062424 
	C116.494820,42.154675 120.681236,41.274529 124.405121,37.522266 
	C127.847824,34.053318 132.978577,32.259644 137.488754,29.657284 
	C139.442368,31.908400 137.501892,39.759842 133.704681,41.662285 
	C124.440956,46.303505 117.098564,52.807423 111.515091,61.661125 
	C109.557594,64.765121 105.553497,66.545464 102.599815,69.066002 
	C100.681541,70.702965 98.902542,72.520515 97.188492,74.374870 
	C95.198318,76.527962 93.766273,79.588600 91.355179,80.885239 
	C84.926285,84.342537 82.650139,90.057152 80.709610,96.479294 
	C79.583679,100.205528 77.701607,103.926910 75.322861,107.003334 
	C70.700012,112.982018 69.027603,119.831039 67.611137,127.592316 
	C59.584747,140.162659 51.907303,152.144745 44.514202,163.683044 
	C48.800423,168.536682 52.039734,172.204819 55.546341,176.175644 
	C56.169483,174.573944 56.759972,173.472717 57.029354,172.297852 
	C59.173477,162.946762 61.188087,153.565552 63.384426,144.226990 
	C64.688728,138.681213 66.249863,133.195847 67.695526,127.683319 
M393.086456,224.477386 
	C392.080017,216.977539 391.073608,209.477676 390.002106,201.492981 
	C370.691681,209.070038 351.313080,212.659256 330.028778,213.076202 
	C331.292664,210.827698 331.749878,208.661270 332.903839,208.185791 
	C339.328857,205.538376 345.988312,203.464798 352.442932,200.883255 
	C361.208618,197.377396 369.409760,193.386536 377.097931,187.238983 
	C384.374664,181.420456 388.637665,176.857330 386.245636,167.169159 
	C384.075867,158.381058 384.816742,148.813812 378.366821,141.231415 
	C363.368317,154.779556 346.940979,166.120834 325.860657,169.382751 
	C326.572052,167.323853 327.566650,165.267349 329.167664,164.532990 
	C334.182495,162.232758 337.583679,158.493210 340.560730,154.022247 
	C344.483490,148.131104 348.513062,142.286331 352.880219,136.722610 
	C357.570251,130.747559 362.704620,125.121284 367.165588,119.903664 
	C359.964691,111.081299 353.389435,103.025482 345.878632,93.823425 
	C345.434143,96.875587 345.102234,98.518951 344.970825,100.178192 
	C344.599182,104.871361 344.113556,109.574928 340.446411,113.014778 
	C337.111298,116.143181 333.775055,119.382759 329.983887,121.882645 
	C325.758575,124.668800 320.621490,126.140770 316.591248,129.139084 
	C309.523499,134.397232 301.656403,137.561325 293.357971,139.960358 
	C287.182922,141.745575 280.980927,143.437729 275.098846,145.085083 
	C286.139160,179.012466 282.672333,213.050812 282.004608,246.346283 
	C290.355164,245.448822 298.393494,244.584915 307.326385,243.624863 
	C308.066528,232.046188 308.824432,220.189209 309.672363,206.924210 
	C310.791077,208.913269 311.631287,209.842712 311.858826,210.903549 
	C313.305420,217.647720 314.564026,224.432037 315.988007,231.181305 
	C317.338928,237.584274 319.906586,239.087540 326.241394,237.328400 
	C331.299561,235.923782 336.267242,233.814407 341.416565,233.196320 
	C351.789185,231.951279 362.258179,231.508942 373.271179,230.692154 
	C372.600891,231.562912 372.304199,232.133804 371.845978,232.505508 
	C370.857971,233.306885 369.813202,234.046249 368.745758,234.740479 
	C360.065155,240.385925 352.244904,247.721054 340.670135,247.201584 
	C336.385529,247.009277 332.050720,248.560318 327.707550,248.853897 
	C324.176208,249.092621 323.636261,250.662964 324.233124,253.712997 
	C324.978516,257.521942 325.287323,261.414581 325.972900,265.237335 
	C326.846527,270.108734 327.908600,274.946320 328.859955,279.652802 
	C331.201477,278.954773 332.701111,278.303894 334.262299,278.077515 
	C341.054962,277.092773 346.902008,274.502686 352.597290,270.391388 
	C358.166870,266.370819 364.852295,263.746979 371.299438,261.129608 
	C379.056366,257.980469 387.078796,255.485428 395.047729,252.685623 
	C394.378876,243.381348 393.733154,234.399246 393.086456,224.477386 
M267.884003,248.650635 
	C269.481750,248.318192 271.079498,247.985748 271.773743,247.841309 
	C269.264465,242.747452 266.430847,237.808441 264.402405,232.558334 
	C263.269409,229.625900 263.488953,226.174820 263.070099,222.961212 
	C262.759186,220.576218 262.196381,219.410736 259.272400,220.858826 
	C255.449585,222.752075 251.317825,224.130295 247.192398,225.273117 
	C243.049026,226.420929 238.760147,227.611313 234.517014,227.680695 
	C229.703842,227.759399 224.875916,226.160568 220.044983,226.104645 
	C212.285797,226.014801 204.518723,226.827362 196.755264,226.822159 
	C189.324097,226.817184 181.891052,226.300385 174.463211,225.922531 
	C170.039627,225.697525 165.623230,225.323135 161.205917,224.985611 
	C157.035446,224.666931 155.605499,226.317123 156.639450,230.230072 
	C157.333908,232.858124 158.299393,235.480057 158.514893,238.155365 
	C158.944122,243.483902 161.999619,244.921234 166.793945,245.249374 
	C168.556213,245.369980 170.185638,247.431625 171.875656,248.607895 
	C170.303223,249.721802 168.852875,251.521606 167.136551,251.827118 
	C160.774200,252.959610 159.522781,254.600067 161.375107,260.886932 
	C163.080353,266.674622 165.061417,272.386536 166.591248,278.218323 
	C167.438263,281.447235 167.609116,284.853516 168.191772,288.928223 
	C186.888046,280.002289 205.664032,285.695770 225.128677,283.621552 
	C223.688919,277.292389 222.570251,271.322388 220.867203,265.524078 
	C220.350998,263.766602 218.311157,261.306183 216.810516,261.188324 
	C210.469772,260.690430 206.613541,256.461853 201.716354,252.787796 
	C202.643875,252.421371 203.036270,252.143890 203.441437,252.123825 
	C224.660477,251.073929 245.880600,250.045883 267.884003,248.650635 
M363.369202,298.962921 
	C353.582428,302.298157 343.880371,305.922394 333.967346,308.826721 
	C329.988892,309.992371 328.479706,311.709808 328.965363,315.650726 
	C330.251190,326.085052 328.792053,336.213715 326.097839,346.342804 
	C324.626129,351.875885 324.452972,357.754364 323.726471,363.233917 
	C333.755859,359.186340 343.399750,355.294342 353.418915,351.250854 
	C350.341614,341.877899 347.320465,332.675964 344.097076,322.857971 
	C347.673737,323.302155 350.769318,323.402344 353.721832,324.104431 
	C364.298279,326.619415 367.989746,326.912567 367.999023,340.621979 
	C367.999939,341.968994 368.766876,343.315491 369.178253,344.662231 
	C370.721100,344.024567 372.500244,343.687500 373.763580,342.694336 
	C377.985382,339.375244 382.231689,336.032745 386.039764,332.265656 
	C387.866150,330.458954 389.568817,327.779907 389.864685,325.319977 
	C390.611542,319.109985 390.188721,312.763245 390.864838,306.539795 
	C391.709198,298.767395 393.184601,291.063568 394.299194,283.898041 
	C384.611694,288.567596 374.304626,293.535767 363.369202,298.962921 
M241.531784,183.939499 
	C233.846405,187.154083 226.829559,192.222839 217.537292,190.066132 
	C207.986420,187.849442 198.027069,187.268829 188.596313,184.691940 
	C178.363937,181.896011 168.519455,177.665268 158.549377,173.943512 
	C157.264587,173.463913 155.522842,172.485016 155.219894,171.396042 
	C153.887222,166.605713 150.075729,166.099472 146.158478,165.111603 
	C144.953583,176.922302 148.535416,187.638702 151.054749,198.495483 
	C151.206039,199.147385 152.544662,199.740143 153.432404,199.972794 
	C170.488586,204.443054 187.929276,207.100143 205.464600,206.701477 
	C216.196976,206.457504 225.814697,210.229187 236.028076,211.464233 
	C244.601425,212.500946 253.262375,212.813110 262.223083,213.470901 
	C261.705078,209.859299 261.772186,207.137482 260.890594,204.768738 
	C258.060059,197.163239 254.878906,189.688248 251.537933,181.433868 
	C248.358749,182.083084 245.232574,182.721466 241.531784,183.939499 
M277.365051,363.991302 
	C275.082214,365.022125 270.863708,365.999268 270.833344,367.092590 
	C270.648468,373.754486 271.415802,380.442780 271.857666,387.006897 
	C285.770264,387.981445 295.773499,380.713013 306.276215,375.019562 
	C307.397369,374.411774 307.948669,371.955963 308.007629,370.329956 
	C308.212708,364.675995 308.083618,359.009888 308.083313,353.348419 
	C308.082672,341.633514 308.083130,329.918640 308.083130,318.032990 
	C295.410126,322.892059 281.851929,320.918701 268.318390,320.056641 
	C265.561340,319.880981 262.749451,320.565857 260.018799,320.848236 
	C262.575348,330.011871 264.730103,338.350647 267.329742,346.548309 
	C267.867004,348.242554 269.875702,350.335602 271.521454,350.663696 
	C278.814331,352.117676 286.238403,352.900055 293.576050,354.153412 
	C295.263306,354.441620 296.796539,355.631165 298.400665,356.405914 
	C298.178192,356.826447 297.955688,357.246948 297.733215,357.667480 
	C291.228760,359.767487 284.724304,361.867523 277.365051,363.991302 
M220.139984,413.698669 
	C221.697006,414.810059 223.243378,416.859131 224.812805,416.876953 
	C233.417450,416.974579 242.027740,416.574188 251.473602,416.322571 
	C238.644989,400.491150 232.396103,383.328308 232.115372,363.570007 
	C219.113846,363.570007 206.761459,363.570007 193.946991,363.570007 
	C194.363220,366.138794 194.381210,369.100128 195.360168,371.699554 
	C197.413391,377.151459 199.914963,382.439850 202.394928,387.719055 
	C202.707962,388.385406 203.955948,388.798462 204.842102,388.979187 
	C210.186768,390.069214 215.590210,390.900085 220.886566,392.179535 
	C222.389542,392.542572 223.600647,394.113861 224.945618,395.131042 
	C223.654999,396.055176 222.455887,397.556030 221.053925,397.778473 
	C218.461655,398.189819 215.750610,397.845184 213.088959,397.829376 
	C211.073608,397.817413 209.058136,397.827026 207.042709,397.827026 
	C206.749954,398.433441 206.457199,399.039886 206.164459,399.646301 
	C210.663757,404.134552 215.163055,408.622833 220.139984,413.698669 
M243.954605,272.523499 
	C244.917694,274.146027 245.712784,275.904633 246.887787,277.355560 
	C248.255341,279.044250 250.563217,280.199432 251.372040,282.060303 
	C252.656830,285.016235 254.677109,285.134979 257.267609,285.119568 
	C271.396759,285.035370 285.527069,285.105103 299.655518,284.968964 
	C302.463989,284.941925 305.266052,284.248535 307.121887,283.993073 
	C307.121887,274.141724 307.121887,265.075928 307.121887,256.505157 
	C284.522369,259.053314 262.830994,261.499084 240.930847,263.968414 
	C241.707016,266.464172 242.556992,269.197266 243.954605,272.523499 
M92.006653,259.226257 
	C92.651611,262.866272 93.715385,266.489380 93.863106,270.149475 
	C94.308800,281.192627 94.174774,281.179993 105.147606,284.052704 
	C106.526237,284.413635 107.819237,285.097198 109.158043,285.615448 
	C117.766930,288.947754 126.528488,291.194824 136.508896,289.631989 
	C134.634018,286.413452 132.989441,283.704926 131.462021,280.931854 
	C130.239853,278.712982 128.869934,276.513000 128.071747,274.134796 
	C125.700874,267.070679 123.764473,259.855682 121.223122,252.857697 
	C120.635590,251.239822 118.492798,249.524094 116.759293,249.097031 
	C108.187309,246.985153 99.512489,245.290710 90.656693,243.402756 
	C91.049690,247.898727 91.505341,253.111465 92.006653,259.226257 
M443.008118,166.393433 
	C442.571991,163.605484 442.135864,160.817551 441.714142,158.121658 
	C437.206421,160.531143 432.992523,162.701126 428.874420,165.039856 
	C427.776550,165.663345 426.860046,166.714432 426.056152,167.725021 
	C424.356812,169.861343 423.083740,172.431274 421.092926,174.218597 
	C418.226349,176.792099 417.287659,179.011215 419.704071,182.508926 
	C420.998260,184.382187 421.446686,186.939713 421.923798,189.260971 
	C424.614014,202.349091 427.197113,215.459229 429.825165,228.603943 
	C431.403229,226.408676 433.131409,224.140686 434.714478,221.775604 
	C438.602661,215.966690 445.377869,212.095520 446.332306,204.292572 
	C446.539368,202.599655 447.847778,200.944458 447.746521,199.328476 
	C447.402496,193.840378 446.823975,188.352295 446.011902,182.912445 
	C445.228851,177.667160 444.045288,172.481659 443.008118,166.393433 
M345.049225,370.399109 
	C336.515778,378.000854 327.947510,385.552246 316.880493,389.702148 
	C316.482941,396.734009 316.087769,403.724182 315.595184,412.436829 
	C324.500946,410.669098 332.339630,409.606659 339.854462,407.427429 
	C344.036285,406.214691 349.389313,404.090515 351.251984,400.733398 
	C357.526245,389.425232 361.311371,377.227051 356.203339,363.479919 
	C352.626129,365.697021 349.152008,367.850220 345.049225,370.399109 
M396.450958,116.034531 
	C396.789642,117.679832 396.897583,119.416664 397.507660,120.954292 
	C399.912201,127.015083 402.508057,132.999649 404.965973,139.039719 
	C406.482239,142.765808 407.877472,146.541122 409.730225,151.338165 
	C416.541962,143.247925 422.574280,136.206238 428.379211,128.981873 
	C428.907654,128.324280 428.294037,126.308006 427.668396,125.240547 
	C424.994080,120.677650 422.060944,116.267418 419.326599,111.738472 
	C415.947296,106.141304 412.752777,100.431221 409.306244,94.876724 
	C408.124023,92.971451 406.423401,91.387863 405.364502,90.135956 
	C402.475891,98.827782 399.717346,107.128181 396.450958,116.034531 
M124.045647,358.557434 
	C118.921753,356.523163 113.797867,354.488922 108.673981,352.454651 
	C109.779472,355.893738 111.371132,358.453613 113.283226,360.746216 
	C119.116081,367.739777 125.747910,373.888397 134.902054,375.947144 
	C145.401398,378.308380 156.038193,380.063629 166.625931,382.024536 
	C171.227142,382.876740 175.854935,383.585297 180.470657,384.359100 
	C180.709717,383.862793 180.948761,383.366486 181.187820,382.870178 
	C180.141647,382.097107 179.026291,381.401337 178.061005,380.537842 
	C173.408508,376.375885 169.177216,371.920502 168.114044,365.392487 
	C167.487137,361.543213 164.272141,362.132019 161.810654,362.044983 
	C155.491867,361.821503 149.131119,362.309021 142.843887,361.804810 
	C136.776688,361.318298 130.780457,359.947144 124.045647,358.557434 
M113.515800,309.997314 
	C108.362335,308.569244 103.208870,307.141174 97.530701,305.567719 
	C98.699951,313.771057 99.854622,321.872070 101.042259,330.204346 
	C118.656250,330.204346 135.620346,330.204346 152.989990,330.204346 
	C150.412399,326.199982 148.414551,322.909607 146.229828,319.748413 
	C143.366135,315.604858 138.874481,319.229279 135.443756,317.646423 
	C135.293777,317.577209 135.155502,317.478851 135.001266,317.423126 
	C128.122803,314.936768 121.243118,312.453735 113.515800,309.997314 
M425.016418,333.558655 
	C422.139923,342.122894 419.263458,350.687164 416.386963,359.251404 
	C416.826050,359.619354 417.265137,359.987335 417.704224,360.355286 
	C424.840881,355.691925 432.058563,351.145416 439.062500,346.290558 
	C441.038269,344.921051 443.276215,342.896545 443.875793,340.748718 
	C446.919189,329.846130 451.672333,319.441132 452.725342,307.923035 
	C453.203613,302.691742 455.532654,297.629608 457.022125,292.490753 
	C452.998688,297.878296 449.816650,303.737915 445.877594,309.034546 
	C442.252258,313.909393 437.775269,318.145752 433.744568,322.725983 
	C430.861328,326.002319 424.808472,326.760803 425.016418,333.558655 
M178.995789,321.647949 
	C179.747894,324.719879 180.500000,327.791809 181.308517,331.094147 
	C197.294952,330.775848 211.780838,335.691895 224.909973,343.558228 
	C224.909973,334.739349 224.909973,326.958740 224.909973,318.976959 
	C220.955460,318.976959 217.481903,318.982452 214.008377,318.975952 
	C203.199234,318.955750 192.389343,318.884186 181.583313,319.056366 
	C181.083191,319.064362 177.417725,316.815308 178.995789,321.647949 
M298.222809,391.905457 
	C290.162384,392.362122 282.101959,392.818787 274.041534,393.275482 
	C273.667450,393.892853 273.293396,394.510254 272.919342,395.127625 
	C275.657532,401.427521 278.395691,407.727386 281.216644,414.217712 
	C288.285767,413.805084 295.030090,413.607788 301.714691,412.869690 
	C303.204803,412.705170 305.479279,410.792328 305.690338,409.422241 
	C306.622192,403.372528 306.932129,397.227020 307.526794,390.436615 
	C303.939117,391.075653 301.553711,391.500549 298.222809,391.905457 
M385.520294,367.986053 
	C386.855377,361.518768 388.190460,355.051483 389.570129,348.368286 
	C383.016571,350.802979 377.308838,352.790161 371.735107,355.100647 
	C370.545532,355.593750 369.054474,357.248810 369.036652,358.389404 
	C368.842987,370.770813 368.915619,383.156403 368.915619,396.772156 
	C379.362488,389.389343 382.991516,379.507843 385.520294,367.986053 
M100.606110,207.036346 
	C96.565102,202.016479 92.524094,196.996613 88.850601,192.433289 
	C89.173920,196.303497 89.057861,201.297623 90.136200,206.018921 
	C91.204987,210.698456 91.575310,215.915146 97.529503,218.316727 
	C101.123482,219.766327 104.955948,222.540604 106.872581,225.787354 
	C109.804733,230.754364 114.366432,232.302597 119.233177,235.069962 
	C118.694954,229.294800 118.226089,224.263931 117.931702,221.105148 
	C111.597702,216.071854 106.298416,211.860794 100.606110,207.036346 
z"/>
<path fill="currentColor" opacity="1.000000" stroke="none" 
	d="
M207.489914,12.798183 
	C205.303253,10.942771 200.228867,13.439740 201.347656,8.741661 
	C201.667908,7.396866 205.672241,6.623669 208.097198,6.144883 
	C214.582809,4.864355 221.126587,3.877109 227.650497,2.792856 
	C229.398239,2.502391 231.162704,2.033273 232.910797,2.069182 
	C245.489700,2.327578 258.068207,2.641243 270.642090,3.074863 
	C273.037689,3.157477 275.617828,3.411633 277.731354,4.401310 
	C279.417572,5.190890 281.657959,7.287259 281.575653,8.680891 
	C281.488892,10.149616 279.145294,11.928946 277.400970,12.722336 
	C275.869446,13.418933 273.800171,13.022446 271.973236,12.962375 
	C267.677673,12.821136 263.923004,13.759714 259.843781,15.663740 
	C256.320740,17.308151 251.404419,16.100084 247.113831,15.919830 
	C244.362106,15.804228 241.637466,15.129352 238.884552,14.941031 
	C228.557877,14.234608 218.224564,13.625160 207.489914,12.798183 
z"/>
<path fill="currentColor" opacity="1.000000" stroke="none" 
	d="
M393.086975,224.947266 
	C393.733154,234.399246 394.378876,243.381348 395.047729,252.685623 
	C387.078796,255.485428 379.056366,257.980469 371.299438,261.129608 
	C364.852295,263.746979 358.166870,266.370819 352.597290,270.391388 
	C346.902008,274.502686 341.054962,277.092773 334.262299,278.077515 
	C332.701111,278.303894 331.201477,278.954773 328.859955,279.652802 
	C327.908600,274.946320 326.846527,270.108734 325.972900,265.237335 
	C325.287323,261.414581 324.978516,257.521942 324.233124,253.712997 
	C323.636261,250.662964 324.176208,249.092621 327.707550,248.853897 
	C332.050720,248.560318 336.385529,247.009277 340.670135,247.201584 
	C352.244904,247.721054 360.065155,240.385925 368.745758,234.740479 
	C369.813202,234.046249 370.857971,233.306885 371.845978,232.505508 
	C372.304199,232.133804 372.600891,231.562912 373.271179,230.692154 
	C362.258179,231.508942 351.789185,231.951279 341.416565,233.196320 
	C336.267242,233.814407 331.299561,235.923782 326.241394,237.328400 
	C319.906586,239.087540 317.338928,237.584274 315.988007,231.181305 
	C314.564026,224.432037 313.305420,217.647720 311.858826,210.903549 
	C311.631287,209.842712 310.791077,208.913269 309.672363,206.924210 
	C308.824432,220.189209 308.066528,232.046188 307.326385,243.624863 
	C298.393494,244.584915 290.355164,245.448822 282.004608,246.346283 
	C282.672333,213.050812 286.139160,179.012466 275.098846,145.085083 
	C280.980927,143.437729 287.182922,141.745575 293.357971,139.960358 
	C301.656403,137.561325 309.523499,134.397232 316.591248,129.139084 
	C320.621490,126.140770 325.758575,124.668800 329.983887,121.882645 
	C333.775055,119.382759 337.111298,116.143181 340.446411,113.014778 
	C344.113556,109.574928 344.599182,104.871361 344.970825,100.178192 
	C345.102234,98.518951 345.434143,96.875587 345.878632,93.823425 
	C353.389435,103.025482 359.964691,111.081299 367.165588,119.903664 
	C362.704620,125.121284 357.570251,130.747559 352.880219,136.722610 
	C348.513062,142.286331 344.483490,148.131104 340.560730,154.022247 
	C337.583679,158.493210 334.182495,162.232758 329.167664,164.532990 
	C327.566650,165.267349 326.572052,167.323853 325.860657,169.382751 
	C346.940979,166.120834 363.368317,154.779556 378.366821,141.231415 
	C384.816742,148.813812 384.075867,158.381058 386.245636,167.169159 
	C388.637665,176.857330 384.374664,181.420456 377.097931,187.238983 
	C369.409760,193.386536 361.208618,197.377396 352.442932,200.883255 
	C345.988312,203.464798 339.328857,205.538376 332.903839,208.185791 
	C331.749878,208.661270 331.292664,210.827698 330.028778,213.076202 
	C351.313080,212.659256 370.691681,209.070038 390.002106,201.492981 
	C391.073608,209.477676 392.080017,216.977539 393.086975,224.947266 
z"/>
<path fill="currentColor" opacity="1.000000" stroke="none" 
	d="
M267.492310,248.833069 
	C245.880600,250.045883 224.660477,251.073929 203.441437,252.123825 
	C203.036270,252.143890 202.643875,252.421371 201.716354,252.787796 
	C206.613541,256.461853 210.469772,260.690430 216.810516,261.188324 
	C218.311157,261.306183 220.350998,263.766602 220.867203,265.524078 
	C222.570251,271.322388 223.688919,277.292389 225.128677,283.621552 
	C205.664032,285.695770 186.888046,280.002289 168.191772,288.928223 
	C167.609116,284.853516 167.438263,281.447235 166.591248,278.218323 
	C165.061417,272.386536 163.080353,266.674622 161.375107,260.886932 
	C159.522781,254.600067 160.774200,252.959610 167.136551,251.827118 
	C168.852875,251.521606 170.303223,249.721802 171.875656,248.607895 
	C170.185638,247.431625 168.556213,245.369980 166.793945,245.249374 
	C161.999619,244.921234 158.944122,243.483902 158.514893,238.155365 
	C158.299393,235.480057 157.333908,232.858124 156.639450,230.230072 
	C155.605499,226.317123 157.035446,224.666931 161.205917,224.985611 
	C165.623230,225.323135 170.039627,225.697525 174.463211,225.922531 
	C181.891052,226.300385 189.324097,226.817184 196.755264,226.822159 
	C204.518723,226.827362 212.285797,226.014801 220.044983,226.104645 
	C224.875916,226.160568 229.703842,227.759399 234.517014,227.680695 
	C238.760147,227.611313 243.049026,226.420929 247.192398,225.273117 
	C251.317825,224.130295 255.449585,222.752075 259.272400,220.858826 
	C262.196381,219.410736 262.759186,220.576218 263.070099,222.961212 
	C263.488953,226.174820 263.269409,229.625900 264.402405,232.558334 
	C266.430847,237.808441 269.264465,242.747452 271.773743,247.841309 
	C271.079498,247.985748 269.481750,248.318192 267.492310,248.833069 
z"/>
<path fill="currentColor" opacity="1.000000" stroke="none" 
	d="
M363.683380,298.733459 
	C374.304626,293.535767 384.611694,288.567596 394.299194,283.898041 
	C393.184601,291.063568 391.709198,298.767395 390.864838,306.539795 
	C390.188721,312.763245 390.611542,319.109985 389.864685,325.319977 
	C389.568817,327.779907 387.866150,330.458954 386.039764,332.265656 
	C382.231689,336.032745 377.985382,339.375244 373.763580,342.694336 
	C372.500244,343.687500 370.721100,344.024567 369.178253,344.662231 
	C368.766876,343.315491 367.999939,341.968994 367.999023,340.621979 
	C367.989746,326.912567 364.298279,326.619415 353.721832,324.104431 
	C350.769318,323.402344 347.673737,323.302155 344.097076,322.857971 
	C347.320465,332.675964 350.341614,341.877899 353.418915,351.250854 
	C343.399750,355.294342 333.755859,359.186340 323.726471,363.233917 
	C324.452972,357.754364 324.626129,351.875885 326.097839,346.342804 
	C328.792053,336.213715 330.251190,326.085052 328.965363,315.650726 
	C328.479706,311.709808 329.988892,309.992371 333.967346,308.826721 
	C343.880371,305.922394 353.582428,302.298157 363.683380,298.733459 
z"/>
<path fill="currentColor" opacity="1.000000" stroke="none" 
	d="
M241.819092,183.649689 
	C245.232574,182.721466 248.358749,182.083084 251.537933,181.433868 
	C254.878906,189.688248 258.060059,197.163239 260.890594,204.768738 
	C261.772186,207.137482 261.705078,209.859299 262.223083,213.470901 
	C253.262375,212.813110 244.601425,212.500946 236.028076,211.464233 
	C225.814697,210.229187 216.196976,206.457504 205.464600,206.701477 
	C187.929276,207.100143 170.488586,204.443054 153.432404,199.972794 
	C152.544662,199.740143 151.206039,199.147385 151.054749,198.495483 
	C148.535416,187.638702 144.953583,176.922302 146.158478,165.111603 
	C150.075729,166.099472 153.887222,166.605713 155.219894,171.396042 
	C155.522842,172.485016 157.264587,173.463913 158.549377,173.943512 
	C168.519455,177.665268 178.363937,181.896011 188.596313,184.691940 
	C198.027069,187.268829 207.986420,187.849442 217.537292,190.066132 
	C226.829559,192.222839 233.846405,187.154083 241.819092,183.649689 
z"/>
<path fill="currentColor" opacity="1.000000" stroke="none" 
	d="
M277.792450,363.979431 
	C284.724304,361.867523 291.228760,359.767487 297.733215,357.667480 
	C297.955688,357.246948 298.178192,356.826447 298.400665,356.405914 
	C296.796539,355.631165 295.263306,354.441620 293.576050,354.153412 
	C286.238403,352.900055 278.814331,352.117676 271.521454,350.663696 
	C269.875702,350.335602 267.867004,348.242554 267.329742,346.548309 
	C264.730103,338.350647 262.575348,330.011871 260.018799,320.848236 
	C262.749451,320.565857 265.561340,319.880981 268.318390,320.056641 
	C281.851929,320.918701 295.410126,322.892059 308.083130,318.032990 
	C308.083130,329.918640 308.082672,341.633514 308.083313,353.348419 
	C308.083618,359.009888 308.212708,364.675995 308.007629,370.329956 
	C307.948669,371.955963 307.397369,374.411774 306.276215,375.019562 
	C295.773499,380.713013 285.770264,387.981445 271.857666,387.006897 
	C271.415802,380.442780 270.648468,373.754486 270.833344,367.092590 
	C270.863708,365.999268 275.082214,365.022125 277.792450,363.979431 
z"/>
<path fill="currentColor" opacity="1.000000" stroke="none" 
	d="
M219.901169,413.404877 
	C215.163055,408.622833 210.663757,404.134552 206.164459,399.646301 
	C206.457199,399.039886 206.749954,398.433441 207.042709,397.827026 
	C209.058136,397.827026 211.073608,397.817413 213.088959,397.829376 
	C215.750610,397.845184 218.461655,398.189819 221.053925,397.778473 
	C222.455887,397.556030 223.654999,396.055176 224.945618,395.131042 
	C223.600647,394.113861 222.389542,392.542572 220.886566,392.179535 
	C215.590210,390.900085 210.186768,390.069214 204.842102,388.979187 
	C203.955948,388.798462 202.707962,388.385406 202.394928,387.719055 
	C199.914963,382.439850 197.413391,377.151459 195.360168,371.699554 
	C194.381210,369.100128 194.363220,366.138794 193.946991,363.570007 
	C206.761459,363.570007 219.113846,363.570007 232.115372,363.570007 
	C232.396103,383.328308 238.644989,400.491150 251.473602,416.322571 
	C242.027740,416.574188 233.417450,416.974579 224.812805,416.876953 
	C223.243378,416.859131 221.697006,414.810059 219.901169,413.404877 
z"/>
<path fill="currentColor" opacity="1.000000" stroke="none" 
	d="
M243.680786,272.226929 
	C242.556992,269.197266 241.707016,266.464172 240.930847,263.968414 
	C262.830994,261.499084 284.522369,259.053314 307.121887,256.505157 
	C307.121887,265.075928 307.121887,274.141724 307.121887,283.993073 
	C305.266052,284.248535 302.463989,284.941925 299.655518,284.968964 
	C285.527069,285.105103 271.396759,285.035370 257.267609,285.119568 
	C254.677109,285.134979 252.656830,285.016235 251.372040,282.060303 
	C250.563217,280.199432 248.255341,279.044250 246.887787,277.355560 
	C245.712784,275.904633 244.917694,274.146027 243.680786,272.226929 
z"/>
<path fill="currentColor" opacity="1.000000" stroke="none" 
	d="
M91.983826,258.775238 
	C91.505341,253.111465 91.049690,247.898727 90.656693,243.402756 
	C99.512489,245.290710 108.187309,246.985153 116.759293,249.097031 
	C118.492798,249.524094 120.635590,251.239822 121.223122,252.857697 
	C123.764473,259.855682 125.700874,267.070679 128.071747,274.134796 
	C128.869934,276.513000 130.239853,278.712982 131.462021,280.931854 
	C132.989441,283.704926 134.634018,286.413452 136.508896,289.631989 
	C126.528488,291.194824 117.766930,288.947754 109.158043,285.615448 
	C107.819237,285.097198 106.526237,284.413635 105.147606,284.052704 
	C94.174774,281.179993 94.308800,281.192627 93.863106,270.149475 
	C93.715385,266.489380 92.651611,262.866272 91.983826,258.775238 
z"/>
<path fill="currentColor" opacity="1.000000" stroke="none" 
	d="
M443.022888,166.831665 
	C444.045288,172.481659 445.228851,177.667160 446.011902,182.912445 
	C446.823975,188.352295 447.402496,193.840378 447.746521,199.328476 
	C447.847778,200.944458 446.539368,202.599655 446.332306,204.292572 
	C445.377869,212.095520 438.602661,215.966690 434.714478,221.775604 
	C433.131409,224.140686 431.403229,226.408676 429.825165,228.603943 
	C427.197113,215.459229 424.614014,202.349091 421.923798,189.260971 
	C421.446686,186.939713 420.998260,184.382187 419.704071,182.508926 
	C417.287659,179.011215 418.226349,176.792099 421.092926,174.218597 
	C423.083740,172.431274 424.356812,169.861343 426.056152,167.725021 
	C426.860046,166.714432 427.776550,165.663345 428.874420,165.039856 
	C432.992523,162.701126 437.206421,160.531143 441.714142,158.121658 
	C442.135864,160.817551 442.571991,163.605484 443.022888,166.831665 
z"/>
<path fill="currentColor" opacity="1.000000" stroke="none" 
	d="
M345.363556,370.201263 
	C349.152008,367.850220 352.626129,365.697021 356.203339,363.479919 
	C361.311371,377.227051 357.526245,389.425232 351.251984,400.733398 
	C349.389313,404.090515 344.036285,406.214691 339.854462,407.427429 
	C332.339630,409.606659 324.500946,410.669098 315.595184,412.436829 
	C316.087769,403.724182 316.482941,396.734009 316.880493,389.702148 
	C327.947510,385.552246 336.515778,378.000854 345.363556,370.201263 
z"/>
<path fill="currentColor" opacity="1.000000" stroke="none" 
	d="
M396.704895,115.731560 
	C399.717346,107.128181 402.475891,98.827782 405.364502,90.135956 
	C406.423401,91.387863 408.124023,92.971451 409.306244,94.876724 
	C412.752777,100.431221 415.947296,106.141304 419.326599,111.738472 
	C422.060944,116.267418 424.994080,120.677650 427.668396,125.240547 
	C428.294037,126.308006 428.907654,128.324280 428.379211,128.981873 
	C422.574280,136.206238 416.541962,143.247925 409.730225,151.338165 
	C407.877472,146.541122 406.482239,142.765808 404.965973,139.039719 
	C402.508057,132.999649 399.912201,127.015083 397.507660,120.954292 
	C396.897583,119.416664 396.789642,117.679832 396.704895,115.731560 
z"/>
<path fill="currentColor" opacity="1.000000" stroke="none" 
	d="
M124.399338,358.761017 
	C130.780457,359.947144 136.776688,361.318298 142.843887,361.804810 
	C149.131119,362.309021 155.491867,361.821503 161.810654,362.044983 
	C164.272141,362.132019 167.487137,361.543213 168.114044,365.392487 
	C169.177216,371.920502 173.408508,376.375885 178.061005,380.537842 
	C179.026291,381.401337 180.141647,382.097107 181.187820,382.870178 
	C180.948761,383.366486 180.709717,383.862793 180.470657,384.359100 
	C175.854935,383.585297 171.227142,382.876740 166.625931,382.024536 
	C156.038193,380.063629 145.401398,378.308380 134.902054,375.947144 
	C125.747910,373.888397 119.116081,367.739777 113.283226,360.746216 
	C111.371132,358.453613 109.779472,355.893738 108.673981,352.454651 
	C113.797867,354.488922 118.921753,356.523163 124.399338,358.761017 
z"/>
<path fill="currentColor" opacity="1.000000" stroke="none" 
	d="
M113.939697,309.983795 
	C121.243118,312.453735 128.122803,314.936768 135.001266,317.423126 
	C135.155502,317.478851 135.293777,317.577209 135.443756,317.646423 
	C138.874481,319.229279 143.366135,315.604858 146.229828,319.748413 
	C148.414551,322.909607 150.412399,326.199982 152.989990,330.204346 
	C135.620346,330.204346 118.656250,330.204346 101.042259,330.204346 
	C99.854622,321.872070 98.699951,313.771057 97.530701,305.567719 
	C103.208870,307.141174 108.362335,308.569244 113.939697,309.983795 
z"/>
<path fill="currentColor" opacity="1.000000" stroke="none" 
	d="
M425.293457,333.254028 
	C424.808472,326.760803 430.861328,326.002319 433.744568,322.725983 
	C437.775269,318.145752 442.252258,313.909393 445.877594,309.034546 
	C449.816650,303.737915 452.998688,297.878296 457.022125,292.490753 
	C455.532654,297.629608 453.203613,302.691742 452.725342,307.923035 
	C451.672333,319.441132 446.919189,329.846130 443.875793,340.748718 
	C443.276215,342.896545 441.038269,344.921051 439.062500,346.290558 
	C432.058563,351.145416 424.840881,355.691925 417.704224,360.355286 
	C417.265137,359.987335 416.826050,359.619354 416.386963,359.251404 
	C419.263458,350.687164 422.139923,342.122894 425.293457,333.254028 
z"/>
<path fill="currentColor" opacity="1.000000" stroke="none" 
	d="
M178.983749,321.221588 
	C177.417725,316.815308 181.083191,319.064362 181.583313,319.056366 
	C192.389343,318.884186 203.199234,318.955750 214.008377,318.975952 
	C217.481903,318.982452 220.955460,318.976959 224.909973,318.976959 
	C224.909973,326.958740 224.909973,334.739349 224.909973,343.558228 
	C211.780838,335.691895 197.294952,330.775848 181.308517,331.094147 
	C180.500000,327.791809 179.747894,324.719879 178.983749,321.221588 
z"/>
<path fill="currentColor" opacity="1.000000" stroke="none" 
	d="
M298.695557,391.915466 
	C301.553711,391.500549 303.939117,391.075653 307.526794,390.436615 
	C306.932129,397.227020 306.622192,403.372528 305.690338,409.422241 
	C305.479279,410.792328 303.204803,412.705170 301.714691,412.869690 
	C295.030090,413.607788 288.285767,413.805084 281.216644,414.217712 
	C278.395691,407.727386 275.657532,401.427521 272.919342,395.127625 
	C273.293396,394.510254 273.667450,393.892853 274.041534,393.275482 
	C282.101959,392.818787 290.162384,392.362122 298.695557,391.915466 
z"/>
<path fill="currentColor" opacity="1.000000" stroke="none" 
	d="
M385.278656,368.343201 
	C382.991516,379.507843 379.362488,389.389343 368.915619,396.772156 
	C368.915619,383.156403 368.842987,370.770813 369.036652,358.389404 
	C369.054474,357.248810 370.545532,355.593750 371.735107,355.100647 
	C377.308838,352.790161 383.016571,350.802979 389.570129,348.368286 
	C388.190460,355.051483 386.855377,361.518768 385.278656,368.343201 
z"/>
<path fill="currentColor" opacity="1.000000" stroke="none" 
	d="
M100.802620,207.343033 
	C106.298416,211.860794 111.597702,216.071854 117.931702,221.105148 
	C118.226089,224.263931 118.694954,229.294800 119.233177,235.069962 
	C114.366432,232.302597 109.804733,230.754364 106.872581,225.787354 
	C104.955948,222.540604 101.123482,219.766327 97.529503,218.316727 
	C91.575310,215.915146 91.204987,210.698456 90.136200,206.018921 
	C89.057861,201.297623 89.173920,196.303497 88.850601,192.433289 
	C92.524094,196.996613 96.565102,202.016479 100.802620,207.343033 
z"/>
<path fill="currentColor" opacity="1.000000" stroke="none" 
	d="
M67.728668,127.719566 
	C66.249863,133.195847 64.688728,138.681213 63.384426,144.226990 
	C61.188087,153.565552 59.173477,162.946762 57.029354,172.297852 
	C56.759972,173.472717 56.169483,174.573944 55.546341,176.175644 
	C52.039734,172.204819 48.800423,168.536682 44.514202,163.683044 
	C51.907303,152.144745 59.584747,140.162659 67.547729,128.001892 
	C67.833275,127.823189 67.761803,127.755814 67.728668,127.719566 
z"/>
</svg>