<?xml version="1.0" standalone="no"?>
<!DOCTYPE svg PUBLIC "-//W3C//DTD SVG 20010904//EN"
 "http://www.w3.org/TR/2001/REC-SVG-20010904/DTD/svg10.dtd">
<svg version="1.0" xmlns="http://www.w3.org/2000/svg"
 width="327.000000pt" height="327.000000pt" viewBox="0 0 327.000000 327.000000"
 preserveAspectRatio="xMidYMid meet">
<metadata>
Created by potrace 1.14, written by Peter Selinger 2001-2017
</metadata>
<g transform="translate(0.000000,327.000000) scale(0.100000,-0.100000)"
fill="#000000" stroke="none">
<path d="M1289 3224 c-1 -5 -3 -37 -5 -72 -2 -34 -10 -75 -18 -90 -41 -74 -56
-110 -56 -139 0 -33 1 -33 48 -33 29 0 59 7 79 19 45 28 99 41 112 28 14 -14
51 19 51 46 0 11 -17 41 -37 66 -57 69 -173 186 -174 175z"/>
<path d="M456 2938 c5 -71 3 -93 -9 -111 -21 -33 -33 -96 -28 -148 2 -19 90
-2 124 24 53 40 91 56 109 46 18 -10 32 3 41 42 8 30 -22 62 -148 155 -44 32
-84 63 -88 69 -4 5 -5 -29 -1 -77z"/>
<path d="M2140 3003 c-4 -74 -24 -143 -51 -171 -28 -31 -72 -121 -66 -136 9
-22 81 -28 133 -10 68 23 94 26 109 14 10 -8 19 -8 34 -1 46 25 33 64 -58 186
-59 79 -101 128 -101 118z"/>
<path d="M1362 2713 c-31 -11 -53 -28 -77 -62 -41 -55 -88 -170 -92 -226 -5
-69 -15 -189 -17 -215 -2 -14 5 -41 14 -60 10 -19 21 -50 25 -68 4 -18 29 -60
56 -94 27 -34 49 -65 49 -70 0 -11 87 -51 157 -71 46 -14 53 -14 79 2 21 13
37 15 59 9 24 -6 41 -2 84 20 71 37 107 103 116 212 11 140 12 201 3 206 -4 3
-8 18 -8 34 0 16 -4 31 -9 34 -4 3 -11 19 -14 35 -8 38 -46 90 -135 186 -53
57 -86 82 -134 104 -84 38 -105 42 -156 24z"/>
<path d="M633 2544 c-61 -26 -148 -172 -164 -274 -4 -30 -15 -93 -23 -139 -12
-73 -12 -90 0 -124 8 -22 14 -48 14 -59 0 -24 36 -94 66 -131 13 -16 24 -34
24 -40 0 -17 57 -53 136 -87 63 -26 70 -27 96 -14 18 9 38 12 55 7 37 -9 60
-6 107 18 65 34 102 92 117 188 23 144 27 198 18 241 -6 25 -13 58 -16 75 -8
39 -55 116 -119 192 -29 34 -53 65 -55 70 -6 13 -80 61 -121 78 -45 18 -92 18
-135 -1z"/>
<path d="M2268 2543 c-52 -8 -208 -186 -208 -238 0 -11 -6 -29 -14 -40 -7 -11
-25 -54 -39 -96 -22 -65 -25 -88 -20 -155 3 -50 14 -100 29 -136 13 -32 24
-64 24 -72 0 -18 80 -89 137 -123 32 -18 51 -23 78 -19 22 4 44 1 58 -8 35
-21 109 -9 159 26 35 24 86 97 92 131 2 14 10 35 16 47 51 96 64 238 31 348
-11 35 -24 69 -29 75 -19 24 -62 108 -62 121 0 17 -97 109 -138 130 -30 15
-57 18 -114 9z"/>
<path d="M46 2051 c-13 -14 -16 -28 -11 -54 4 -20 0 -59 -8 -94 -19 -73 -13
-143 13 -143 19 0 66 33 93 67 18 22 21 24 95 43 l43 11 -75 77 c-41 42 -88
85 -104 94 -28 17 -30 17 -46 -1z"/>
<path d="M2937 2013 c-10 -80 -15 -92 -47 -133 -35 -44 -63 -107 -56 -125 9
-25 74 -27 142 -4 54 18 70 20 85 10 14 -8 25 -8 39 -1 28 15 32 42 13 81 -19
39 -154 219 -164 219 -3 0 -9 -21 -12 -47z"/>
<path d="M319 1686 c-3 -3 -26 -6 -53 -7 -41 -2 -51 -7 -73 -36 -14 -18 -31
-32 -37 -31 -27 5 -58 -17 -88 -60 -30 -43 -33 -54 -33 -122 0 -55 5 -81 18
-100 9 -13 17 -34 17 -45 0 -11 11 -43 24 -72 13 -28 22 -53 20 -55 -2 -3 7
-15 21 -28 14 -13 25 -29 25 -37 0 -7 4 -13 8 -13 5 0 29 -19 53 -42 49 -46
68 -57 198 -112 76 -32 91 -35 173 -33 l89 2 44 46 c39 42 44 52 50 113 9 83
1 187 -18 223 -8 16 -27 68 -43 117 -25 79 -35 96 -89 152 -72 75 -198 144
-262 144 -22 0 -42 -2 -44 -4z"/>
<path d="M3009 1569 c-11 -11 -31 -23 -45 -25 -55 -10 -134 -63 -134 -90 0 -6
-11 -28 -25 -49 -32 -47 -67 -187 -59 -235 8 -44 46 -120 70 -141 11 -9 39
-21 64 -27 48 -12 253 -10 283 3 22 9 59 80 81 154 31 106 16 201 -43 267 -20
22 -48 61 -63 87 -19 32 -39 51 -64 62 -45 19 -40 19 -65 -6z"/>
<path d="M1735 1445 c-11 -12 -29 -34 -41 -50 -18 -26 -26 -29 -85 -31 -35 -1
-90 2 -122 7 -53 9 -62 7 -98 -14 -22 -13 -52 -42 -67 -65 -57 -86 -148 -200
-172 -215 -63 -40 -217 -223 -288 -343 -40 -68 -41 -70 -47 -195 -8 -160 5
-235 53 -304 90 -128 339 -238 442 -195 32 13 76 78 127 187 34 73 37 85 40
192 l3 115 27 4 c48 6 145 68 220 140 l71 68 29 -15 c17 -9 47 -25 69 -36 21
-11 66 -40 99 -65 104 -80 155 -104 265 -126 53 -10 288 -6 311 6 10 6 19 19
19 28 0 10 5 23 11 29 14 14 24 138 15 187 -12 62 -143 214 -329 381 -37 33
-81 79 -98 102 -40 58 -220 191 -267 199 -21 3 -55 12 -77 20 -52 18 -85 15
-110 -11z"/>
</g>
</svg>
