<?xml version="1.0" encoding="utf-8"?>
<!-- Generator: Adobe Illustrator 15.0.2, SVG Export Plug-In . SVG Version: 6.00 Build 0)  -->
<!DOCTYPE svg PUBLIC "-//W3C//DTD SVG 1.1//EN" "http://www.w3.org/Graphics/SVG/1.1/DTD/svg11.dtd">
<svg version="1.1" xmlns="http://www.w3.org/2000/svg" xmlns:xlink="http://www.w3.org/1999/xlink" x="0px" y="0px"
	 width="332px" height="155px" viewBox="0 0 332 155" enable-background="new 0 0 332 155" xml:space="preserve">
<g id="white">
	<polygon fill="#fff" points="124.559,103.566 121.207,106.15 122.274,107.645 125.671,105.198 	"/>
	<polygon fill="#fff" points="132.039,112.019 127.675,115.149 129.028,116.791 133.832,113.302 	"/>
	<path fill-rule="evenodd" clip-rule="evenodd" fill="#fff" d="M204.067,12.164c-6.509,4.007-31.233,22.125-34.007,23.805
		c-2.564,1.553-8.791,5.921-8.31,18.517c-1.054-0.039-1.172-0.043-1.861-0.068c-0.513,0.375-1.502,1.064-2.167,1.57
		c-0.535,1.505-1.051,3.127-1.574,4.908c-6.125,4.332-10.081,7.255-10.081,7.255l27.538,20.311l33.64-0.659
		c0,0,30.744-20.958,33.58-23.802c4.729-4.682,4.543-15.718-1.382-27.146C231.669,21.859,215.15,7.017,204.067,12.164z"/>
	<polygon fill="#fff" points="243.08,46.195 245.888,44.619 248.268,49.595 244.152,51.958 	"/>
	<polygon fill="#fff" points="244.761,45.117 245.095,39.578 241.26,40.768 243.08,46.195 	"/>
	<polygon fill="#fff" points="238.964,35.738 241.946,23.216 245.095,39.578 241.26,40.768 	"/>
	<polygon fill="#fff" points="224.436,17.815 230.077,14.313 241.841,23.216 226.483,19.826 224.293,17.958 	"/>
	<polygon fill="#fff" points="220.092,14.977 228.106,15.387 224.264,17.815 220.02,14.889 	"/>
	<polygon fill="#fff" points="216.672,13.127 222.722,10.411 226.353,12.526 227.924,15.308 220.02,14.889 	"/>
</g>
<g id="lines">
	
		<polyline fill="#fff" stroke="#000" stroke-width="0.498" stroke-linecap="round" stroke-linejoin="round" stroke-miterlimit="10" points="
		226.202,19.607 241.946,23.216 239.04,35.969 	"/>
	
		<path fill="#fff" stroke="#000" stroke-width="0.498" stroke-linecap="round" stroke-linejoin="round" stroke-miterlimit="10" d="
		M236.523,19.148c2.88-2.115,3.104-2.27,3.104-2.27s0.25-2.114-2.129-3.234c-2.379-1.119-3.506-0.498-3.506-0.498l-1.002,3.351"/>
	
		<path fill="#fff" stroke="#000" stroke-width="0.498" stroke-linecap="round" stroke-linejoin="round" stroke-miterlimit="10" d="
		M244.26,35.29l2.31-1.54c0.541-0.362,1.642,0.177,2.372,1.252c0.456,0.672,0.644,1.443,0.621,1.972l-4.58,3.197"/>
	<polyline fill="#fff" stroke="#000" stroke-width="0.498" stroke-miterlimit="10" points="244.369,54.977 258.66,57.384 
		258.418,59.79 243.538,59.79 	"/>
	
		<path fill="none" stroke="#000" stroke-width="0.498" stroke-linecap="round" stroke-linejoin="round" stroke-miterlimit="10" d="
		M186.975,85.357l-41.878,29.57"/>
	
		<line fill="none" stroke="#000" stroke-width="0.25" stroke-linejoin="round" stroke-miterlimit="10" x1="121.291" y1="85.79" x2="161.038" y2="57.679"/>
	
		<path fill="none" stroke="#000" stroke-width="0.498" stroke-linecap="round" stroke-linejoin="round" stroke-miterlimit="10" d="
		M168.54,37.007l33.524-23.612l0.908-0.579c7.636-5.311,21.974,2.418,32.099,16.781c9.804,13.909,12.009,29.492,5.206,35.288
		l-35.24,24.705"/>
	
		<path fill="none" stroke="#000" stroke-width="0.498" stroke-linecap="round" stroke-linejoin="round" stroke-miterlimit="10" d="
		M189.953,21.846c0.134-0.106,0.272-0.207,0.413-0.305c7.636-5.311,22.253,2.139,32.377,16.501
		c10.124,14.362,12.173,30.552,4.54,35.865"/>
	
		<path fill="#fff" stroke="#000" stroke-width="0.498" stroke-linecap="round" stroke-linejoin="round" stroke-miterlimit="10" d="
		M265.008,65.678c-0.522,2.251-4.257,3.346-8.27,2.425c-4.015-0.92-6.887-3.53-6.363-5.78c0.523-2.251,4.256-3.346,8.27-2.425
		C262.658,60.818,265.531,63.428,265.008,65.678z"/>
	<path fill="#fff" stroke="#000" stroke-width="0.498" stroke-miterlimit="10" d="M256.238,61.474l-1.454,8.662l1.938,0.481
		l2.665-8.421c0,0,0.242-1.203-1.454-1.444C256.238,60.512,256.238,61.474,256.238,61.474z"/>
	<path fill-rule="evenodd" clip-rule="evenodd" d="M256.46,72.268c-0.177,0.907-0.806,1.56-1.393,1.447
		c-0.587-0.114-0.925-0.953-0.747-1.86c0.178-0.907,0.807-1.56,1.394-1.447C256.301,70.521,256.638,71.361,256.46,72.268"/>
	
		<path fill="none" stroke="#000" stroke-width="0.498" stroke-linecap="round" stroke-linejoin="round" stroke-miterlimit="10" d="
		M256.46,72.268c-0.177,0.907-0.806,1.56-1.393,1.447c-0.587-0.114-0.925-0.953-0.747-1.86c0.178-0.907,0.807-1.56,1.394-1.447
		C256.301,70.521,256.638,71.361,256.46,72.268z"/>
	
		<polyline fill="none" stroke="#000" stroke-width="0.498" stroke-linecap="round" stroke-linejoin="round" stroke-miterlimit="10" points="
		241.946,23.216 245.095,39.578 241.22,40.781 	"/>
	
		<polyline fill="none" stroke="#000" stroke-width="0.498" stroke-linecap="round" stroke-linejoin="round" stroke-miterlimit="10" points="
		241.946,23.216 230.077,14.313 224.264,17.922 	"/>
	
		<polyline fill="none" stroke="#000" stroke-width="0.498" stroke-linecap="round" stroke-linejoin="round" stroke-miterlimit="10" points="
		216.672,13.054 222.722,10.411 226.353,12.526 228.106,15.387 	"/>
	
		<line fill="#fff" stroke="#000" stroke-width="0.498" stroke-linecap="round" stroke-linejoin="round" stroke-miterlimit="10" x1="220.092" y1="14.889" x2="223.668" y2="10.962"/>
	
		<line fill="#fff" stroke="#000" stroke-width="0.498" stroke-linecap="round" stroke-linejoin="round" stroke-miterlimit="10" x1="220.092" y1="14.889" x2="228.106" y2="15.387"/>
	
		<polyline fill="#fff" stroke="#000" stroke-width="0.5" stroke-linecap="round" stroke-linejoin="round" stroke-miterlimit="10" points="
		244.386,55.068 247.767,53.327 248.268,49.719 244.386,51.958 	"/>
	<polyline fill="none" stroke="#000" stroke-width="0.498" stroke-miterlimit="10" points="248.268,49.595 245.888,44.619 
		243.008,46.236 	"/>
	
		<line fill="none" stroke="#000" stroke-width="0.498" stroke-linecap="round" stroke-linejoin="round" stroke-miterlimit="10" x1="244.761" y1="45.117" x2="245.012" y2="39.519"/>
	
		<path fill="none" stroke="#000" stroke-width="0.498" stroke-linecap="round" stroke-linejoin="round" stroke-miterlimit="10" d="
		M245.012,39.519"/>
	
		<path fill="none" stroke="#000" stroke-width="0.498" stroke-linecap="round" stroke-linejoin="round" stroke-miterlimit="10" d="
		M244.761,45.117"/>
	<path fill-rule="evenodd" clip-rule="evenodd" fill="#fff" d="M125.364,83.09c0.236-0.243,0.495-0.463,0.775-0.658
		c4.489-3.123,13.082,1.257,19.034,9.701c5.952,8.443,7.156,17.962,2.668,21.084"/>
	<path fill-rule="evenodd" clip-rule="evenodd" fill="#fff" d="M125.364,83.09c0.236-0.243,0.495-0.463,0.775-0.658
		c4.489-3.123,13.082,1.257,19.034,9.701c5.952,8.443,7.156,17.962,2.668,21.084"/>
	
		<path fill="none" stroke="#000" stroke-width="0.498" stroke-linecap="round" stroke-linejoin="round" stroke-miterlimit="10" d="
		M125.364,83.09c0.236-0.243,0.495-0.463,0.775-0.658c4.489-3.123,13.082,1.257,19.034,9.701c5.952,8.443,7.156,17.962,2.668,21.084
		"/>
	
		<path fill="none" stroke="#000" stroke-width="0.498" stroke-linecap="round" stroke-linejoin="round" stroke-miterlimit="10" d="
		M125.364,83.09c0.236-0.243,0.495-0.463,0.775-0.658c4.489-3.123,13.082,1.257,19.034,9.701c5.952,8.443,7.156,17.962,2.668,21.084
		"/>
	<path fill-rule="evenodd" clip-rule="evenodd" fill="#fff" d="M142.015,93.822c5.952,8.444,7.156,17.963,2.667,21.085
		c-4.489,3.122-13.082-1.257-19.034-9.701c-5.952-8.444-7.156-17.963-2.667-21.085C127.47,80.998,136.063,85.378,142.015,93.822"/>
	<path fill-rule="evenodd" clip-rule="evenodd" fill="#fff" d="M142.015,93.822c5.952,8.444,7.156,17.963,2.667,21.085
		c-4.489,3.122-13.082-1.257-19.034-9.701c-5.952-8.444-7.156-17.963-2.667-21.085C127.47,80.998,136.063,85.378,142.015,93.822z"/>
	
		<path fill="none" stroke="#000" stroke-width="0.498" stroke-linecap="round" stroke-linejoin="round" stroke-miterlimit="10" d="
		M142.015,93.822c5.952,8.444,7.156,17.963,2.667,21.085c-4.489,3.122-13.082-1.257-19.034-9.701
		c-5.952-8.444-7.156-17.963-2.667-21.085C127.47,80.998,136.063,85.378,142.015,93.822z"/>
	
		<path fill="none" stroke="#000" stroke-width="0.498" stroke-linecap="round" stroke-linejoin="round" stroke-miterlimit="10" d="
		M142.015,93.822c5.952,8.444,7.156,17.963,2.667,21.085c-4.489,3.122-13.082-1.257-19.034-9.701
		c-5.952-8.444-7.156-17.963-2.667-21.085C127.47,80.998,136.063,85.378,142.015,93.822z"/>
	
		<polygon fill="none" stroke="#000" stroke-width="0.498" stroke-linecap="round" stroke-linejoin="round" stroke-miterlimit="10" points="
		142.802,97.636 142.806,108.729 141.339,109.798 125.039,101.887 123.442,92.141 125.035,91.192 128.713,92.507 128.59,91.654 
		130.168,90.558 136.581,92.855 136.581,95.356 	"/>
	
		<polygon fill="none" stroke="#000" stroke-width="0.498" stroke-linecap="round" stroke-linejoin="round" stroke-miterlimit="10" points="
		142.802,97.636 142.806,108.729 141.339,109.798 125.039,101.887 123.442,92.141 125.035,91.192 128.713,92.507 128.59,91.654 
		130.168,90.558 136.581,92.855 136.581,95.356 	"/>
	<polyline fill-rule="evenodd" clip-rule="evenodd" fill="#fff" points="141.208,98.732 141.212,109.825 123.446,102.983 
		123.442,92.287 128.574,94.147 128.574,91.654 134.988,93.951 134.988,96.451 141.208,98.732 	"/>
	<polygon fill-rule="evenodd" clip-rule="evenodd" fill="#fff" points="141.208,98.732 141.212,109.825 123.446,102.983 
		123.442,92.287 128.574,94.147 128.574,91.654 134.988,93.951 134.988,96.451 	"/>
	
		<polygon fill="none" stroke="#000" stroke-width="0.498" stroke-linecap="round" stroke-linejoin="round" stroke-miterlimit="10" points="
		141.208,98.732 141.212,109.825 123.446,102.983 123.442,92.287 128.574,94.147 128.574,91.654 134.988,93.951 134.988,96.451 	"/>
	
		<polygon fill="none" stroke="#000" stroke-width="0.498" stroke-linecap="round" stroke-linejoin="round" stroke-miterlimit="10" points="
		141.208,98.732 141.212,109.825 123.446,102.983 123.442,92.287 128.574,94.147 128.574,91.654 134.988,93.951 134.988,96.451 	"/>
	
		<polygon fill="none" stroke="#000" stroke-width="0.498" stroke-linecap="round" stroke-linejoin="round" stroke-miterlimit="10" points="
		128.076,99.961 131.042,97.985 131.042,100.421 128.076,102.397 	"/>
	
		<polygon fill="none" stroke="#000" stroke-width="0.498" stroke-linecap="round" stroke-linejoin="round" stroke-miterlimit="10" points="
		128.076,99.961 131.042,97.985 131.042,100.421 128.076,102.397 	"/>
	<polyline fill-rule="evenodd" clip-rule="evenodd" fill="#fff" points="131.084,101.016 134.05,99.04 134.05,101.475 
		131.084,103.451 131.084,101.016 	"/>
	<polygon fill-rule="evenodd" clip-rule="evenodd" fill="#fff" points="131.084,101.016 134.05,99.04 134.05,101.475 
		131.084,103.451 	"/>
	
		<polygon fill="none" stroke="#000" stroke-width="0.498" stroke-linecap="round" stroke-linejoin="round" stroke-miterlimit="10" points="
		131.084,101.016 134.05,99.04 134.05,101.475 131.084,103.451 	"/>
	
		<polygon fill="none" stroke="#000" stroke-width="0.498" stroke-linecap="round" stroke-linejoin="round" stroke-miterlimit="10" points="
		131.084,101.016 134.05,99.04 134.05,101.475 131.084,103.451 	"/>
	
		<line fill="none" stroke="#000" stroke-width="0.498" stroke-linecap="round" stroke-linejoin="round" stroke-miterlimit="10" x1="209.938" y1="77.929" x2="243.884" y2="53.774"/>
	<polyline fill-rule="evenodd" clip-rule="evenodd" fill="#fff" points="79.588,130.325 90.858,146.994 130.931,119.379 
		119.41,103.705 79.588,130.325 	"/>
	<polygon fill-rule="evenodd" clip-rule="evenodd" fill="#fff" points="79.588,130.325 90.858,146.994 130.931,119.379 
		119.41,103.705 	"/>
	
		<polygon fill="none" stroke="#000" stroke-width="0.498" stroke-linecap="round" stroke-linejoin="round" stroke-miterlimit="10" points="
		79.588,130.325 90.858,146.994 130.931,119.379 119.41,103.705 	"/>
	
		<line fill="none" stroke="#000" stroke-width="0.498" stroke-linecap="round" stroke-linejoin="round" stroke-miterlimit="10" x1="121.207" y1="106.15" x2="124.559" y2="103.566"/>
	
		<line fill="#fff" stroke="#000" stroke-width="0.498" stroke-linecap="round" stroke-linejoin="round" stroke-miterlimit="10" x1="122.274" y1="107.645" x2="125.671" y2="105.198"/>
	
		<line fill="none" stroke="#000" stroke-width="0.498" stroke-miterlimit="10" x1="127.675" y1="115.149" x2="132.039" y2="112.019"/>
	
		<line fill="none" stroke="#000" stroke-width="0.498" stroke-linecap="round" stroke-linejoin="round" stroke-miterlimit="10" x1="129.028" y1="116.791" x2="133.832" y2="113.302"/>
	<polyline fill-rule="evenodd" clip-rule="evenodd" fill="#fff" points="160.301,103.207 152.286,119.627 176.079,102.959 
		184.344,86.788 160.301,103.207 	"/>
	<polygon fill-rule="evenodd" clip-rule="evenodd" fill="#fff" points="160.301,103.207 152.286,119.627 176.079,102.959 
		184.344,86.788 	"/>
	
		<polygon fill="none" stroke="#000" stroke-width="0.498" stroke-linecap="round" stroke-linejoin="round" stroke-miterlimit="10" points="
		160.301,103.207 152.286,119.627 176.079,102.959 184.344,86.788 	"/>
	
		<polygon fill="none" stroke="#000" stroke-width="0.498" stroke-linecap="round" stroke-linejoin="round" stroke-miterlimit="10" points="
		160.301,103.207 152.286,119.627 176.079,102.959 184.344,86.788 	"/>
	<polyline fill-rule="evenodd" clip-rule="evenodd" fill="#fff" points="112.898,135.799 104.884,152.219 140.197,127.589 
		148.462,111.417 112.898,135.799 	"/>
	<polygon fill-rule="evenodd" clip-rule="evenodd" fill="#fff" points="112.898,135.799 104.884,152.219 140.197,127.589 
		148.462,111.417 	"/>
	
		<polygon fill="none" stroke="#000" stroke-width="0.498" stroke-linecap="round" stroke-linejoin="round" stroke-miterlimit="10" points="
		112.898,135.799 104.884,152.219 140.197,127.589 148.462,111.417 	"/>
	
		<line fill="none" stroke="#000" stroke-width="0.498" stroke-linejoin="round" stroke-miterlimit="10" x1="144.466" y1="119.236" x2="157.076" y2="109.825"/>
	
		<line fill="none" stroke="#000" stroke-width="0.498" stroke-linejoin="round" stroke-miterlimit="10" x1="142.722" y1="122.648" x2="155.224" y2="113.656"/>
	<polyline fill-rule="evenodd" clip-rule="evenodd" fill="#fff" points="139.812,32.864 112.58,52.026 149.847,65.554 
		121.48,85.279 5.624,43.094 60.94,4.207 139.812,32.864 	"/>
	<polygon fill-rule="evenodd" clip-rule="evenodd" fill="#fff" points="139.812,32.864 112.58,52.026 149.847,65.554 
		121.48,85.279 5.624,43.094 60.94,4.207 	"/>
	
		<polygon fill="none" stroke="#000" stroke-width="0.498" stroke-linecap="round" stroke-linejoin="round" stroke-miterlimit="10" points="
		139.812,32.864 112.58,52.026 149.847,65.554 121.48,85.279 5.624,43.094 60.94,4.207 	"/>
	
		<line fill="none" stroke="#000" stroke-width="0.498" stroke-linecap="round" stroke-linejoin="round" stroke-miterlimit="10" x1="11.157" y1="39.205" x2="127.659" y2="81.458"/>
	
		<line fill="none" stroke="#000" stroke-width="0.498" stroke-linecap="round" stroke-linejoin="round" stroke-miterlimit="10" x1="16.406" y1="35.67" x2="133.154" y2="78.167"/>
	
		<line fill="none" stroke="#000" stroke-width="0.498" stroke-linecap="round" stroke-linejoin="round" stroke-miterlimit="10" x1="24.122" y1="30.296" x2="140.571" y2="72.684"/>
	
		<line fill="none" stroke="#000" stroke-width="0.498" stroke-linecap="round" stroke-linejoin="round" stroke-miterlimit="10" x1="112.58" y1="52.026" x2="33.85" y2="23.251"/>
	
		<line fill="none" stroke="#000" stroke-width="0.498" stroke-linecap="round" stroke-linejoin="round" stroke-miterlimit="10" x1="41.732" y1="17.71" x2="120.092" y2="46.093"/>
	
		<line fill="none" stroke="#000" stroke-width="0.498" stroke-miterlimit="10" x1="48.793" y1="12.746" x2="127.184" y2="41.02"/>
	
		<line fill="none" stroke="#000" stroke-width="0.498" stroke-miterlimit="10" x1="55.699" y1="8.052" x2="134.275" y2="36.512"/>
	
		<line fill="none" stroke="#000" stroke-width="0.498" stroke-linecap="round" stroke-linejoin="round" stroke-miterlimit="10" x1="18.106" y1="47.602" x2="73.422" y2="8.716"/>
	<line fill="none" stroke="#000" stroke-width="0.498" stroke-miterlimit="10" x1="32.197" y1="52.77" x2="87.427" y2="13.831"/>
	
		<line fill="none" stroke="#000" stroke-width="0.498" stroke-miterlimit="10" x1="44.858" y1="57.38" x2="100.148" y2="18.453"/>
	
		<line fill="none" stroke="#000" stroke-width="0.498" stroke-linecap="round" stroke-linejoin="round" stroke-miterlimit="10" x1="57.474" y1="61.973" x2="112.568" y2="23.087"/>
	
		<line fill="none" stroke="#000" stroke-width="0.498" stroke-miterlimit="10" x1="70.301" y1="66.482" x2="125.313" y2="27.596"/>
	
		<line fill="none" stroke="#000" stroke-width="0.498" stroke-linecap="round" stroke-linejoin="round" stroke-miterlimit="10" x1="98.007" y1="76.3" x2="125.619" y2="56.759"/>
	
		<line fill="none" stroke="#000" stroke-width="0.498" stroke-linecap="round" stroke-linejoin="round" stroke-miterlimit="10" x1="108.321" y1="80.245" x2="135.553" y2="61.084"/>
	
		<line fill="none" stroke="#000" stroke-width="0.498" stroke-linecap="round" stroke-linejoin="round" stroke-miterlimit="10" x1="108.321" y1="80.245" x2="136.212" y2="60.604"/>
	
		<line fill="none" stroke="#000" stroke-width="0.498" stroke-linecap="round" stroke-linejoin="round" stroke-miterlimit="10" x1="118.522" y1="84.202" x2="146.469" y2="64.327"/>
	<polyline fill-rule="evenodd" clip-rule="evenodd" fill="#fff" points="129.102,76.691 132.181,75.566 132.181,101.719 
		129.102,102.844 129.102,76.691 	"/>
	<polygon fill-rule="evenodd" clip-rule="evenodd" fill="#fff" points="129.102,76.691 132.181,75.566 132.181,101.719 
		129.102,102.844 	"/>
	
		<polygon fill="none" stroke="#000" stroke-width="0.498" stroke-linecap="round" stroke-linejoin="round" stroke-miterlimit="10" points="
		129.102,76.691 132.181,75.566 132.181,101.719 129.102,102.844 	"/>
	
		<polygon fill="none" stroke="#000" stroke-width="0.498" stroke-linecap="round" stroke-linejoin="round" stroke-miterlimit="10" points="
		129.102,76.691 132.181,75.566 132.181,101.719 129.102,102.844 	"/>
	
		<polyline fill="none" stroke="#000" stroke-width="0.249" stroke-linecap="round" stroke-linejoin="round" stroke-miterlimit="10" points="
		158.294,59.62 158.953,57.576 168.834,58.067 179.802,68.177 185.533,81.722 185.335,82.213 	"/>
	
		<polyline fill="none" stroke="#000" stroke-width="0.249" stroke-linecap="round" stroke-linejoin="round" stroke-miterlimit="10" points="
		156.49,60.895 158.064,55.987 169.229,56.398 180.987,67.097 187.805,82.899 	"/>
	
		<polyline fill="none" stroke="#000" stroke-width="0.249" stroke-linecap="round" stroke-linejoin="round" stroke-miterlimit="10" points="
		158.064,56 160.231,54.417 171.362,54.826 183.083,65.486 189.831,81.182 188.003,82.998 	"/>
	
		<line fill="none" stroke="#000" stroke-width="0.249" stroke-linecap="round" stroke-linejoin="round" stroke-miterlimit="10" x1="189.88" y1="81.427" x2="189.88" y2="83.39"/>
	
		<line fill="none" stroke="#000" stroke-width="0.249" stroke-linecap="round" stroke-linejoin="round" stroke-miterlimit="10" x1="189.88" y1="81.427" x2="189.88" y2="83.39"/>
	<path fill="none" stroke="#000" stroke-width="0.498" stroke-linejoin="round" stroke-miterlimit="10" d="M161.75,54.485
		c-0.247-7.222,2.543-14.562,6.511-17.32c7.635-5.311,22.252,2.139,32.377,16.502c10.124,14.363,12.172,30.555,4.537,35.866
		c-4.636,3.224-12.964,2.274-21.058-2.184"/>
	<polyline fill-rule="evenodd" clip-rule="evenodd" fill="#fff" points="150.296,96.069 177.529,76.908 219.512,92.124 
		247.879,72.399 326.456,100.86 271.14,139.746 150.296,96.069 	"/>
	<polygon fill-rule="evenodd" clip-rule="evenodd" fill="#fff" points="150.296,96.069 177.529,76.908 219.512,92.124 
		247.879,72.399 326.456,100.86 271.14,139.746 	"/>
	
		<polygon fill="none" stroke="#000" stroke-width="0.498" stroke-linecap="round" stroke-linejoin="round" stroke-miterlimit="10" points="
		150.296,96.069 177.529,76.908 219.512,92.124 247.879,72.399 326.456,100.86 271.14,139.746 	"/>
	
		<line fill="none" stroke="#000" stroke-width="0.498" stroke-linecap="round" stroke-linejoin="round" stroke-miterlimit="10" x1="156.253" y1="91.843" x2="276.813" y2="135.519"/>
	
		<line fill="none" stroke="#000" stroke-width="0.498" stroke-linecap="round" stroke-linejoin="round" stroke-miterlimit="10" x1="161.927" y1="88.461" x2="282.141" y2="132.012"/>
	
		<line fill="none" stroke="#000" stroke-width="0.498" stroke-linecap="round" stroke-linejoin="round" stroke-miterlimit="10" x1="169.586" y1="82.825" x2="289.771" y2="126.366"/>
	
		<line fill="none" stroke="#000" stroke-width="0.498" stroke-linecap="round" stroke-linejoin="round" stroke-miterlimit="10" x1="219.228" y1="92.124" x2="298.146" y2="120.761"/>
	
		<line fill="none" stroke="#000" stroke-width="0.498" stroke-linecap="round" stroke-linejoin="round" stroke-miterlimit="10" x1="228.306" y1="86.207" x2="306.882" y2="114.667"/>
	
		<line fill="none" stroke="#000" stroke-width="0.498" stroke-linecap="round" stroke-linejoin="round" stroke-miterlimit="10" x1="235.397" y1="81.135" x2="313.974" y2="109.595"/>
	
		<line fill="none" stroke="#000" stroke-width="0.498" stroke-linecap="round" stroke-linejoin="round" stroke-miterlimit="10" x1="242.489" y1="76.626" x2="320.656" y2="104.937"/>
	
		<line fill="none" stroke="#000" stroke-width="0.498" stroke-linecap="round" stroke-linejoin="round" stroke-miterlimit="10" x1="313.974" y1="96.351" x2="258.658" y2="135.237"/>
	
		<line fill="none" stroke="#000" stroke-width="0.498" stroke-linecap="round" stroke-linejoin="round" stroke-miterlimit="10" x1="299.846" y1="91.222" x2="244.605" y2="130.155"/>
	
		<line fill="none" stroke="#000" stroke-width="0.498" stroke-linecap="round" stroke-linejoin="round" stroke-miterlimit="10" x1="287.025" y1="86.77" x2="231.899" y2="125.563"/>
	
		<line fill="none" stroke="#000" stroke-width="0.498" stroke-linecap="round" stroke-linejoin="round" stroke-miterlimit="10" x1="274.435" y1="82.018" x2="219.512" y2="120.866"/>
	
		<line fill="none" stroke="#000" stroke-width="0.498" stroke-linecap="round" stroke-linejoin="round" stroke-miterlimit="10" x1="261.779" y1="77.471" x2="206.463" y2="116.358"/>
	
		<line fill="none" stroke="#000" stroke-width="0.498" stroke-linecap="round" stroke-linejoin="round" stroke-miterlimit="10" x1="219.796" y1="91.843" x2="192.312" y2="111.255"/>
	
		<line fill="none" stroke="#000" stroke-width="0.498" stroke-linecap="round" stroke-linejoin="round" stroke-miterlimit="10" x1="206.179" y1="87.334" x2="179.095" y2="106.478"/>
	
		<line fill="none" stroke="#000" stroke-width="0.498" stroke-linejoin="round" stroke-miterlimit="10" x1="195.639" y1="83.471" x2="168.633" y2="102.55"/>
	
		<line fill="none" stroke="#000" stroke-width="0.498" stroke-linecap="round" stroke-linejoin="round" stroke-miterlimit="10" x1="185.369" y1="79.726" x2="158.137" y2="98.887"/>
	<path fill-rule="evenodd" clip-rule="evenodd" fill="#fff" d="M178.477,89.774c0.857,1.295,0.324,3.545-0.816,4.613
		c-1.176,1.102-2.999,1.02-4.608,2.13c-1.902,1.311-2.687,3.191-4.051,4.038c-0.861,0.534-3.366,1.966-4.283,2.516
		c-2.275,1.362-3.137,1.887-6.006,1.368c-2.843-0.513-4.998-1.506-5.556-4.716"/>
	
		<path fill="none" stroke="#000" stroke-width="0.498" stroke-linecap="round" stroke-linejoin="round" stroke-miterlimit="10" d="
		M178.477,89.774c0.857,1.295,0.324,3.545-0.816,4.613c-1.176,1.102-2.999,1.02-4.608,2.13c-1.902,1.311-2.687,3.191-4.051,4.038
		c-0.861,0.534-3.326,2.039-4.283,2.516c-2.275,1.134-2.156,1.395-5.071,1.474c-4.424,0.119-6.253-2.595-6.519-5.031"/>
	<path fill-rule="evenodd" clip-rule="evenodd" fill="#fff" d="M110.817,66.152c0.857,1.295,0.324,3.545-0.816,4.613
		c-1.176,1.102-2.999,1.02-4.608,2.13c-1.902,1.311-2.687,3.191-4.05,4.038c-0.862,0.534-3.367,1.966-4.284,2.516
		c-2.275,1.362-3.137,1.643-6.006,1.124c-2.843-0.513-4.911-2.054-5.468-4.198"/>
	<path fill-rule="evenodd" clip-rule="evenodd" fill="#fff" d="M110.817,66.152c0.857,1.295,0.324,3.545-0.816,4.613
		c-1.176,1.102-2.999,1.02-4.608,2.13c-1.902,1.311-2.687,3.191-4.05,4.038c-0.862,0.534-3.367,1.966-4.284,2.516
		c-2.275,1.362-3.137,1.643-6.006,1.124c-2.843-0.513-4.911-2.054-5.468-4.198"/>
	
		<path fill="none" stroke="#000" stroke-width="0.498" stroke-linecap="round" stroke-linejoin="round" stroke-miterlimit="10" d="
		M110.817,66.152c0.857,1.295,0.324,3.545-0.816,4.613c-1.176,1.102-2.999,1.02-4.608,2.13c-1.902,1.311-2.687,3.191-4.05,4.038
		c-0.862,0.534-3.367,1.966-4.284,2.516c-2.275,1.362-3.137,1.643-6.006,1.124c-2.843-0.513-5.08-2.586-5.637-4.73"/>
	<path fill-rule="evenodd" clip-rule="evenodd" fill="#fff" d="M117.566,82.175c21.515,7.874,41.397,20.95,41.397,20.95
		l20.949-14.764l-0.065-2.812c-6.794-1.125-22.647-7.03-38.784-12.936c-21.515-7.873-58.035,1.125-58.318,0.844v2.531
		C82.745,75.988,96.051,74.301,117.566,82.175"/>
	<path fill-rule="evenodd" clip-rule="evenodd" fill="#fff" d="M117.566,82.175c21.515,7.874,41.397,20.95,41.397,20.95
		l20.949-14.764l-0.065-2.812c-6.794-1.125-22.647-7.03-38.784-12.936c-21.515-7.873-58.035,1.125-58.318,0.844v2.531
		C82.745,75.988,96.051,74.301,117.566,82.175z"/>
	
		<path fill="none" stroke="#000" stroke-width="0.498" stroke-linecap="round" stroke-linejoin="round" stroke-miterlimit="10" d="
		M117.566,82.175c21.515,7.874,41.397,20.95,41.397,20.95l20.949-14.764v-2.53c-6.794-1.125-22.712-7.312-38.849-13.218
		c-21.515-7.873-58.035,1.125-58.318,0.844v2.531C82.745,75.988,96.051,74.301,117.566,82.175z"/>
	<path fill-rule="evenodd" clip-rule="evenodd" fill="#fff" d="M117.566,79.644c21.515,7.874,41.397,20.95,41.397,20.95
		l20.949-14.763c0,0-19.882-12.936-41.397-20.81c-21.515-7.874-34.538-6.187-34.821-6.468L82.745,73.457
		C82.745,73.457,96.051,71.77,117.566,79.644"/>
	
		<path fill="none" stroke="#000" stroke-width="0.498" stroke-linecap="round" stroke-linejoin="round" stroke-miterlimit="10" d="
		M117.566,79.644c21.515,7.874,41.397,20.95,41.397,20.95l20.949-14.763c0,0-19.882-12.936-41.397-20.81
		c-21.515-7.874-34.945-6.249-35.228-6.53L82.745,73.457C82.745,73.457,96.051,71.77,117.566,79.644z"/>
	
		<polygon fill="none" stroke="#000" stroke-width="0.498" stroke-linecap="round" stroke-linejoin="round" stroke-miterlimit="10" points="
		132.853,85.549 132.287,81.331 139.647,76.269 141.912,78.238 	"/>
	
		<polygon fill="#fff" stroke="#000" stroke-width="0.498" stroke-linecap="round" stroke-linejoin="round" stroke-miterlimit="10" points="
		132.853,85.549 132.287,81.612 139.647,76.269 141.912,78.238 	"/>
	
		<polygon fill="none" stroke="#000" stroke-width="0.498" stroke-linecap="round" stroke-linejoin="round" stroke-miterlimit="10" points="
		122.379,81.05 124.643,77.956 132.004,72.895 131.438,73.738 	"/>
	
		<polygon fill="#fff" stroke="#000" stroke-width="0.498" stroke-linecap="round" stroke-linejoin="round" stroke-miterlimit="10" points="
		122.379,81.05 124.643,77.956 132.004,72.895 131.438,73.738 	"/>
	
		<polygon fill="none" stroke="#000" stroke-width="0.498" stroke-linecap="round" stroke-linejoin="round" stroke-miterlimit="10" points="
		124.077,77.956 124.077,68.958 123.228,65.864 130.588,60.802 131.721,64.177 131.721,72.332 124.077,78.519 	"/>
	
		<polygon fill="#fff" stroke="#000" stroke-width="0.498" stroke-linecap="round" stroke-linejoin="round" stroke-miterlimit="10" points="
		124.077,77.956 124.077,68.958 123.228,65.864 130.588,60.802 131.721,64.177 131.721,72.332 124.077,78.519 	"/>
	<path fill-rule="evenodd" clip-rule="evenodd" fill="#fff" d="M137.1,77.113c0,1.397-2.347,2.531-5.238,2.531
		c-2.891,0-5.237-1.134-5.237-2.531s2.346-2.531,5.237-2.531C134.753,74.582,137.1,75.716,137.1,77.113"/>
	<path fill-rule="evenodd" clip-rule="evenodd" fill="#fff" d="M137.1,77.113L137.1,77.113c0,1.397-2.347,2.531-5.238,2.531
		c-2.891,0-5.237-1.134-5.237-2.531s2.346-2.531,5.237-2.531C134.753,74.582,137.1,75.716,137.1,77.113z"/>
	
		<path fill="none" stroke="#000" stroke-width="0.498" stroke-linecap="round" stroke-linejoin="round" stroke-miterlimit="10" d="
		M137.1,77.113L137.1,77.113c0,1.397-2.347,2.531-5.238,2.531c-2.891,0-5.237-1.134-5.237-2.531s2.346-2.531,5.237-2.531
		C134.753,74.582,137.1,75.716,137.1,77.113z"/>
	
		<path fill="none" stroke="#000" stroke-width="0.498" stroke-linecap="round" stroke-linejoin="round" stroke-miterlimit="10" d="
		M137.1,77.113L137.1,77.113c0,1.397-2.347,2.531-5.238,2.531c-2.891,0-5.237-1.134-5.237-2.531s2.346-2.531,5.237-2.531
		C134.753,74.582,137.1,75.716,137.1,77.113z"/>
	<polyline fill-rule="evenodd" clip-rule="evenodd" fill="#fff" points="126.625,77.394 126.625,66.145 137.18,66.145 
		137.18,77.394 137.107,77.394 	"/>
	<polyline fill-rule="evenodd" clip-rule="evenodd" fill="#fff" points="126.625,77.394 126.625,66.145 137.18,66.145 
		137.18,77.394 137.107,77.394 	"/>
	
		<polyline fill="none" stroke="#000" stroke-width="0.498" stroke-linecap="round" stroke-linejoin="round" stroke-miterlimit="10" points="
		126.625,77.394 126.625,66.145 137.18,66.145 137.18,77.394 137.107,77.394 	"/>
	
		<polyline fill="none" stroke="#000" stroke-width="0.498" stroke-linecap="round" stroke-linejoin="round" stroke-miterlimit="10" points="
		126.625,77.394 126.625,66.145 137.18,66.145 137.18,77.394 137.107,77.394 	"/>
	<path fill-rule="evenodd" clip-rule="evenodd" fill="#fff" d="M137.1,65.583c0,1.397-2.347,2.531-5.238,2.531
		c-2.891,0-5.237-1.134-5.237-2.531s2.346-2.531,5.237-2.531C134.753,63.052,137.1,64.186,137.1,65.583"/>
	<path fill-rule="evenodd" clip-rule="evenodd" fill="#fff" d="M137.1,65.583L137.1,65.583c0,1.397-2.347,2.531-5.238,2.531
		c-2.891,0-5.237-1.134-5.237-2.531s2.346-2.531,5.237-2.531C134.753,63.052,137.1,64.186,137.1,65.583z"/>
	
		<path fill="none" stroke="#000" stroke-width="0.498" stroke-linecap="round" stroke-linejoin="round" stroke-miterlimit="10" d="
		M137.1,65.583L137.1,65.583c0,1.397-2.347,2.531-5.238,2.531c-2.891,0-5.237-1.134-5.237-2.531s2.346-2.531,5.237-2.531
		C134.753,63.052,137.1,64.186,137.1,65.583z"/>
	
		<path fill="none" stroke="#000" stroke-width="0.498" stroke-linecap="round" stroke-linejoin="round" stroke-miterlimit="10" d="
		M137.1,65.583L137.1,65.583c0,1.397-2.347,2.531-5.238,2.531c-2.891,0-5.237-1.134-5.237-2.531s2.346-2.531,5.237-2.531
		C134.753,63.052,137.1,64.186,137.1,65.583z"/>
	
		<polygon fill="#fff" stroke="#000" stroke-width="0.498" stroke-linecap="round" stroke-linejoin="round" stroke-miterlimit="10" points="
		132.287,81.05 132.287,72.051 133.419,68.958 140.78,63.896 139.081,68.676 139.081,76.658 132.287,81.612 	"/>
	<polyline fill-rule="evenodd" clip-rule="evenodd" fill="#fff" points="167.586,58.844 168.54,58.077 157.884,23.676 
		156.93,24.444 167.586,58.844 	"/>
	<polygon fill-rule="evenodd" clip-rule="evenodd" fill="#fff" points="167.586,58.844 168.54,58.077 157.884,23.676 
		156.93,24.444 	"/>
	
		<polygon fill="none" stroke="#000" stroke-width="0.498" stroke-linecap="round" stroke-linejoin="round" stroke-miterlimit="10" points="
		167.586,58.844 168.54,58.077 157.884,23.676 156.93,24.444 	"/>
	<path fill-rule="evenodd" clip-rule="evenodd" fill="#fff" d="M168.386,59.682c-0.114,0.532-0.647,0.877-1.182,0.764
		c-0.535-0.113-0.881-0.644-0.767-1.176c0.114-0.532,0.647-0.876,1.182-0.763C168.153,58.62,168.499,59.15,168.386,59.682"/>
	<path fill-rule="evenodd" clip-rule="evenodd" fill="#fff" d="M168.386,59.682c-0.114,0.532-0.647,0.877-1.182,0.764
		c-0.535-0.113-0.881-0.644-0.767-1.176c0.114-0.532,0.647-0.876,1.182-0.763C168.153,58.62,168.499,59.15,168.386,59.682z"/>
	
		<path fill="none" stroke="#000" stroke-width="0.498" stroke-linecap="round" stroke-linejoin="round" stroke-miterlimit="10" d="
		M168.386,59.682c-0.114,0.532-0.647,0.877-1.182,0.764c-0.535-0.113-0.881-0.644-0.767-1.176c0.114-0.532,0.647-0.876,1.182-0.763
		C168.153,58.62,168.499,59.15,168.386,59.682z"/>
	<path fill-rule="evenodd" clip-rule="evenodd" fill="#fff" d="M170.38,60.432c-0.113,0.532-0.647,0.877-1.181,0.764
		c-0.535-0.113-0.881-0.644-0.768-1.175c0.114-0.532,0.648-0.877,1.182-0.764C170.148,59.37,170.494,59.901,170.38,60.432"/>
	<path fill-rule="evenodd" clip-rule="evenodd" fill="#fff" d="M170.38,60.432c-0.113,0.532-0.647,0.877-1.181,0.764
		c-0.535-0.113-0.881-0.644-0.768-1.175c0.114-0.532,0.648-0.877,1.182-0.764C170.148,59.37,170.494,59.901,170.38,60.432z"/>
	
		<path fill="none" stroke="#000" stroke-width="0.498" stroke-linecap="round" stroke-linejoin="round" stroke-miterlimit="10" d="
		M170.38,60.432c-0.113,0.532-0.647,0.877-1.181,0.764c-0.535-0.113-0.881-0.644-0.768-1.175c0.114-0.532,0.648-0.877,1.182-0.764
		C170.148,59.37,170.494,59.901,170.38,60.432z"/>
	<path fill-rule="evenodd" clip-rule="evenodd" fill="#fff" d="M152.573,25.981c-0.633-1.315,0.824-3.374,3.227-4.561
		c2.403-1.188,4.901-1.082,5.534,0.232c0.633,1.315-0.825,3.375-3.227,4.562C155.703,27.401,153.205,27.296,152.573,25.981"/>
	<path fill-rule="evenodd" clip-rule="evenodd" fill="#fff" d="M152.573,25.981c-0.633-1.315,0.824-3.374,3.227-4.561
		c2.403-1.188,4.901-1.082,5.534,0.232c0.633,1.315-0.825,3.375-3.227,4.562C155.703,27.401,153.205,27.296,152.573,25.981z"/>
	
		<path fill="none" stroke="#000" stroke-width="0.498" stroke-linecap="round" stroke-linejoin="round" stroke-miterlimit="10" d="
		M152.573,25.981c-0.633-1.315,0.824-3.374,3.227-4.561c2.403-1.188,4.901-1.082,5.534,0.232c0.633,1.315-0.825,3.375-3.227,4.562
		C155.703,27.401,153.205,27.296,152.573,25.981z"/>
	<path fill-rule="evenodd" clip-rule="evenodd" fill="#fff" d="M158.699,24.46l-2.719-4.832l-1.175,0.555l2.008,5.209
		c0,0,0.357,0.687,1.313,0.113C159.082,24.931,158.699,24.46,158.699,24.46"/>
	<path fill-rule="evenodd" clip-rule="evenodd" fill="#fff" d="M158.699,24.46l-2.719-4.832l-1.175,0.555l2.008,5.209
		c0,0,0.357,0.687,1.313,0.113C159.082,24.931,158.699,24.46,158.699,24.46z"/>
	
		<path fill="none" stroke="#000" stroke-width="0.498" stroke-linecap="round" stroke-linejoin="round" stroke-miterlimit="10" d="
		M158.699,24.46l-2.719-4.832l-1.175,0.555l2.008,5.209c0,0,0.357,0.687,1.313,0.113C159.082,24.931,158.699,24.46,158.699,24.46z"
		/>
	<path fill-rule="evenodd" clip-rule="evenodd" fill="#fff" d="M154.28,19.268c-0.272-0.516-0.214-1.092,0.129-1.276
		c0.343-0.184,0.849,0.089,1.121,0.605c0.272,0.517,0.213,1.093-0.13,1.277C155.057,20.058,154.551,19.785,154.28,19.268"/>
	<path fill-rule="evenodd" clip-rule="evenodd" fill="#fff" d="M154.28,19.268c-0.272-0.516-0.214-1.092,0.129-1.276
		c0.343-0.184,0.849,0.089,1.121,0.605c0.272,0.517,0.213,1.093-0.13,1.277C155.057,20.058,154.551,19.785,154.28,19.268z"/>
	
		<path fill="none" stroke="#000" stroke-width="0.498" stroke-linecap="round" stroke-linejoin="round" stroke-miterlimit="10" d="
		M154.28,19.268c-0.272-0.516-0.214-1.092,0.129-1.276c0.343-0.184,0.849,0.089,1.121,0.605c0.272,0.517,0.213,1.093-0.13,1.277
		C155.057,20.058,154.551,19.785,154.28,19.268z"/>
	
		<line fill="none" stroke="#000" stroke-width="0.498" stroke-linecap="round" stroke-linejoin="round" stroke-miterlimit="10" x1="112.58" y1="52.026" x2="103.694" y2="58.553"/>
</g>
</svg>
