<?xml version="1.0" encoding="UTF-8"?>
<svg id="Layer_1" data-name="Layer 1" xmlns="http://www.w3.org/2000/svg" viewBox="0 0 615.1 710.43">
  <defs>
    <style>
      .cls-1 {
        fill: none;
        stroke: #000;
        stroke-miterlimit: 10;
        stroke-width: 8px;
      }
    </style>
  </defs>
  <path class="cls-1" d="M3.84,1.14c17.7,59.74,39.05,106.47,56,139,37.08,71.17,61.11,89.79,80,100,25.69,13.89,49.68,16.44,61,17,12.21.61,64.52,1.61,104-37,4.7-4.59,56.6-56.54,35-93-14.85-25.06-58.87-33.44-85-16-19.24,12.84-23.65,36.24-25,44-11.61,66.8,58.34,100.74,45,144-10.91,35.39-60.59,21.98-104,74-4.54,5.45-54.56,67.07-29,119,12.56,25.51,41.81,45.52,74,45,35.57-.57,75.44-26.22,77-60,1.65-35.57-40.05-61.31-70-68-51.93-11.6-109.04,25.02-130,70-32.83,70.44,21.1,165.38,91,205,83.98,47.59,183.04,10.81,238-34,75.93-61.91,114.31-177.18,78-221-26.42-31.88-76.23-6.44-101-40-27.71-37.54-9.86-129.6,57-161,51.65-24.26,118.76-5.84,156,47"/>
</svg>