<svg version="1.1" id="Layer_1" xmlns="http://www.w3.org/2000/svg" xmlns:xlink="http://www.w3.org/1999/xlink" x="0px" y="0px"
	 width="100%" viewBox="0 0 496 496" enable-background="new 0 0 496 496" xml:space="preserve">
<path fill="#000000" opacity="1.000000" stroke="none" 
	d="
M497.000000,175.531342 
	C482.837585,194.928757 466.247559,212.413208 461.682251,236.953018 
	C459.742035,247.382126 457.515350,257.739655 453.552307,267.696899 
	C449.356323,278.239349 442.762848,286.223175 432.331177,290.995911 
	C427.959930,292.995911 423.919067,295.724670 419.530518,297.678467 
	C415.508301,299.469116 413.845490,302.519409 413.424286,306.561249 
	C412.377289,316.608948 411.346039,326.658508 410.360565,336.712402 
	C409.575531,344.721466 407.083832,352.268585 404.216064,359.709595 
	C402.805725,363.369019 400.165802,365.733673 396.263336,366.594482 
	C393.673920,367.165649 391.120972,367.961517 388.506012,368.345306 
	C382.499084,369.226959 378.245117,371.586273 377.774506,378.490448 
	C377.426697,383.592834 373.035217,385.790619 369.423615,388.370300 
	C367.806396,389.525452 366.091400,390.678284 364.246216,391.358459 
	C348.979828,396.985962 343.361877,410.581116 337.766937,423.909210 
	C334.893921,430.753326 330.952393,436.219055 325.080170,440.704773 
	C321.143951,443.711548 317.756317,447.487091 314.365021,451.142944 
	C310.684113,455.110962 306.284149,458.026672 301.704315,460.763000 
	C298.630127,462.599762 295.411255,463.523773 291.749969,463.409302 
	C279.125580,463.014740 266.677948,464.911835 254.156464,466.180481 
	C244.623795,467.146301 234.915329,468.455017 225.307343,467.266083 
	C211.142990,465.513367 207.994019,462.558777 211.670868,446.794342 
	C215.673325,429.633759 226.702393,415.809448 236.894806,401.817535 
	C239.216644,398.630157 241.119003,395.047760 244.436142,392.612671 
	C249.618286,388.808472 255.350113,386.871216 261.753693,387.688354 
	C266.737091,388.324341 270.019867,386.410767 272.288147,382.076294 
	C273.594574,379.579865 275.157532,377.206573 276.736389,374.866516 
	C278.919250,371.631165 280.694031,368.891785 285.881439,368.817505 
	C291.093506,368.742889 294.810669,363.480316 299.107361,360.410492 
	C303.143616,357.526825 306.859283,354.184021 310.629822,350.942993 
	C312.653473,349.203522 314.976624,347.302734 315.301392,344.617462 
	C316.331970,336.095947 322.392517,331.432404 328.404144,326.705322 
	C335.055237,321.475403 341.667816,316.173431 348.590454,311.321320 
	C352.236725,308.765686 354.272217,305.349701 356.053192,301.572876 
	C358.038422,297.362976 360.086823,293.176544 361.889709,288.888245 
	C365.730927,279.751770 372.047546,274.304047 382.410309,274.636902 
	C384.486725,274.703583 385.905945,273.803497 386.794220,271.964996 
	C390.685974,263.910004 395.499359,256.309998 397.067871,247.190216 
	C397.689362,243.576630 396.952606,240.699203 395.710205,237.607300 
	C393.745941,232.718964 394.637299,230.605927 399.584229,228.792130 
	C401.914093,227.937881 404.346252,227.342148 406.759766,226.740402 
	C413.819244,224.980301 414.272919,224.452408 414.639862,217.114929 
	C414.780731,214.298111 414.837341,211.472763 415.101166,208.667175 
	C416.149323,197.520767 421.785583,189.386810 431.599548,184.167404 
	C441.811340,178.736420 448.893158,169.810516 456.833618,161.840439 
	C459.026733,159.639114 459.476898,156.534576 460.661926,153.816971 
	C462.861145,148.773651 465.103760,143.723419 468.947327,139.694473 
	C476.674713,131.594391 485.895508,131.556229 493.799469,139.408798 
	C494.622284,140.226273 495.523468,140.964874 496.694153,141.870041 
	C497.000000,153.020889 497.000000,164.041794 497.000000,175.531342 
z"/>
<path fill="#000000" opacity="1.000000" stroke="none" 
	d="
M166.516388,152.144836 
	C164.980362,135.887939 170.178085,121.989449 178.384384,108.793785 
	C179.953949,106.269943 181.932541,105.319817 184.283691,104.934097 
	C192.192474,103.636604 198.720566,100.112274 204.926453,94.950386 
	C215.493256,86.161232 227.646957,79.849182 240.900299,76.024338 
	C250.165619,73.350403 257.576874,67.964905 264.276306,61.375492 
	C270.692078,55.065136 276.999847,48.644367 283.312439,42.230145 
	C285.317841,40.192448 287.663696,38.705894 290.679779,36.852104 
	C291.592560,41.544342 292.447235,45.899284 290.144623,49.672935 
	C285.504242,57.277908 286.543488,65.344193 287.612274,73.358894 
	C288.572113,80.556664 290.099976,87.692612 291.698608,94.783379 
	C292.225952,97.122520 291.821075,98.369720 289.954803,99.826813 
	C282.626282,105.548523 275.203796,111.190025 268.286163,117.386070 
	C261.943451,123.067169 256.790161,129.877106 253.451859,137.819183 
	C249.943909,146.164932 245.401413,153.647034 239.254959,160.486404 
	C230.686478,170.020859 224.612381,181.439453 217.975006,192.385910 
	C214.356461,198.353683 211.170761,204.485458 208.500946,210.983856 
	C202.883286,224.657333 192.035660,233.769455 179.753799,241.143265 
	C176.197540,243.278381 175.177185,245.111343 176.368042,248.983383 
	C178.069885,254.516953 179.154907,260.237762 180.746017,265.809296 
	C181.252625,267.583282 181.235489,268.804932 180.136688,270.383514 
	C174.168579,278.957550 166.186829,285.296051 158.128555,291.794922 
	C137.858139,308.142639 114.572830,319.208649 91.775459,331.199585 
	C83.838089,335.374481 76.416496,340.456207 68.608162,344.896027 
	C53.336521,353.579376 37.506176,356.772278 20.322248,352.365906 
	C15.040033,351.011383 9.686039,349.936798 4.334778,348.727203 
	C3.517298,346.298584 5.418919,345.553589 6.802767,344.450439 
	C16.145615,337.002747 26.179379,330.390442 34.245445,321.401276 
	C37.257576,318.044434 40.722630,314.802216 42.315922,310.695892 
	C47.782726,296.606506 59.651005,288.666840 70.864899,280.156311 
	C75.978836,276.275208 81.231041,272.318024 87.706467,270.653900 
	C90.389099,269.964508 91.869415,267.824310 92.505829,265.330688 
	C94.479858,257.596039 99.660965,253.108185 106.695633,249.920151 
	C114.260712,246.491776 121.696022,242.787170 126.443451,235.295105 
	C129.711502,230.137650 130.371307,224.814178 129.058990,219.073196 
	C127.543907,212.445297 125.872162,205.852737 124.398796,199.215897 
	C121.780212,187.420456 127.012115,177.450424 138.074722,172.918060 
	C143.456085,170.713303 148.919083,168.680145 154.180435,166.217453 
	C160.118759,163.437943 164.633652,159.156021 166.516388,152.144836 
z"/>
<path fill="#000000" opacity="1.000000" stroke="none" 
	d="
M260.890320,215.965546 
	C262.419556,211.331604 266.114044,209.087372 269.426758,206.720337 
	C277.999603,200.594849 285.406189,193.209930 292.829376,185.829834 
	C296.901947,181.780899 297.926392,176.321838 299.624237,171.094772 
	C304.890442,154.882248 314.045166,141.163727 327.738708,130.912491 
	C340.451721,121.395309 355.020294,115.025627 369.053528,107.764717 
	C374.465027,104.964760 379.649048,101.725105 385.635986,98.283852 
	C387.922546,112.265099 393.199341,125.028191 392.220673,138.796982 
	C391.753296,145.372452 387.745514,150.877670 385.361267,156.871414 
	C379.082306,172.656250 375.512543,189.271362 370.355164,205.400558 
	C367.133148,215.477097 362.844849,224.220535 352.782379,229.463470 
	C345.924286,233.036804 342.989563,240.165833 341.020508,247.324341 
	C337.372589,260.586639 328.390411,268.836456 316.410400,274.440125 
	C313.683075,275.715820 310.904510,276.652588 307.775848,276.402466 
	C303.418243,276.054016 300.228577,277.434326 299.946106,282.482422 
	C299.909912,283.129456 299.563416,283.752899 299.435120,284.401947 
	C296.883392,297.312531 297.010620,297.648987 285.150818,302.060486 
	C264.966309,309.568481 249.824509,323.535126 236.219421,339.462738 
	C230.522476,346.132202 229.740311,355.016205 227.540237,363.117401 
	C225.142975,371.944611 219.814728,378.559906 213.082703,384.063324 
	C210.241028,386.386414 206.011597,386.566254 202.167740,386.405762 
	C193.523560,386.044922 184.983643,386.641754 176.540573,388.677368 
	C173.263199,389.467590 171.197632,390.714630 171.226440,394.602966 
	C171.259186,399.021057 168.271027,402.077423 165.608276,405.315857 
	C159.863068,412.303162 153.246628,418.337433 145.820099,423.379242 
	C138.881577,428.089752 133.181213,425.777679 131.976868,417.704742 
	C130.513489,407.895569 129.810928,397.974731 128.661896,388.115906 
	C128.257431,384.645660 130.327148,383.068573 132.846878,381.513763 
	C140.336227,376.892365 148.292297,373.047852 155.269135,367.556580 
	C158.106827,365.323059 160.515594,362.750214 161.934479,359.649536 
	C169.160706,343.857910 180.955688,332.884796 196.301056,325.106323 
	C202.629013,321.898712 208.391953,317.626526 213.265121,312.182861 
	C219.858658,304.817413 220.648880,295.768463 221.601486,286.695526 
	C222.193649,281.055725 223.836761,275.905457 228.363159,272.211395 
	C235.188919,266.640747 238.524597,258.697662 242.574997,251.321915 
	C248.902481,239.799637 254.700943,227.986832 260.890320,215.965546 
z"/>
</svg>