<svg version="1.1" id="Layer_1" xmlns="http://www.w3.org/2000/svg" xmlns:xlink="http://www.w3.org/1999/xlink" x="0px" y="0px"
	 width="100%" viewBox="0 0 496 496" enable-background="new 0 0 496 496" xml:space="preserve">
<path fill="#000000" opacity="1.000000" stroke="none" 
	d="
M455.996124,161.007355 
	C460.019684,157.186066 462.220795,152.505035 462.782684,146.986343 
	C462.935608,145.484039 463.550110,143.849503 464.918518,143.182770 
	C470.531006,140.448090 474.997284,136.210938 479.750092,132.334259 
	C480.160248,131.999710 480.938690,132.116730 482.489655,131.879898 
	C478.680969,145.067139 479.427887,158.585526 473.618958,170.841690 
	C468.961700,180.667953 468.294586,191.146606 469.421661,201.867798 
	C471.248138,219.242462 470.143951,236.054001 458.414825,250.338730 
	C454.956451,254.550705 453.540924,259.756348 451.666962,264.543915 
	C446.376282,278.060791 440.463959,291.101074 431.064148,302.310577 
	C429.522247,304.149323 428.593811,306.159424 428.158081,308.542480 
	C427.022369,314.754089 425.191406,320.770386 422.756683,326.612152 
	C422.063904,328.274384 421.580872,330.101776 421.413391,331.891937 
	C420.621490,340.356598 420.864624,340.548462 429.061127,342.652771 
	C435.121368,344.208649 441.017456,346.613892 447.515503,344.723694 
	C449.095642,344.264038 450.990692,344.306580 452.180145,343.204071 
	C459.319336,336.586823 468.904205,337.409119 477.345215,334.798706 
	C479.132050,334.246094 480.767914,334.768707 481.646332,337.060608 
	C482.644989,339.666199 481.435150,340.849426 479.473206,341.776886 
	C472.279907,345.177246 465.137482,348.786682 457.245270,350.277435 
	C455.097748,350.683075 453.406097,351.237366 452.410858,353.198547 
	C449.608795,358.720276 444.435181,359.784027 439.012451,360.311737 
	C437.361511,360.472382 435.681213,360.305847 434.015961,360.350037 
	C430.358093,360.447083 426.313599,359.648590 423.150787,360.960602 
	C419.854523,362.327911 420.944763,367.052643 419.618042,370.162811 
	C417.934296,374.109955 415.166870,376.819489 411.622070,378.668610 
	C406.767426,381.201050 401.969604,383.869537 396.779541,385.766418 
	C392.283783,387.409546 387.800598,389.087433 384.284973,392.752258 
	C382.759949,394.341980 380.338501,395.357941 378.139374,395.967163 
	C366.382538,399.224121 356.721100,406.176636 346.932129,413.014740 
	C343.839874,415.174835 339.226959,415.079681 338.148193,420.078461 
	C337.759064,421.881622 335.301758,421.485291 333.715363,421.063477 
	C331.983185,420.602905 331.542755,419.020355 331.720703,417.455292 
	C333.225128,404.223053 332.387329,390.349609 342.562164,379.530396 
	C344.827179,377.121918 345.872223,373.837036 347.145020,370.736237 
	C349.006866,366.200470 352.865356,363.594360 357.105804,362.373199 
	C347.107330,362.373199 336.885376,362.374207 326.663422,362.372955 
	C315.665405,362.371582 304.666046,362.462738 293.670135,362.308624 
	C290.308136,362.261475 289.226624,363.459778 287.883057,366.702728 
	C283.900055,376.316376 287.706970,384.728394 290.514893,393.431915 
	C290.982269,394.880646 292.290497,395.305145 293.298737,396.133423 
	C294.581970,397.187653 296.097504,398.189697 296.893250,399.571136 
	C304.818390,413.329926 317.068604,423.678741 325.984772,436.644165 
	C326.551025,437.467560 327.270477,438.207428 326.877289,439.437744 
	C325.190460,440.844116 323.851135,439.428558 322.495636,438.688446 
	C315.990265,435.136505 310.186676,430.932770 304.743073,425.622498 
	C297.690094,418.742188 290.380981,411.840515 281.895111,406.483398 
	C276.848755,403.297638 274.496429,397.586609 270.466614,393.459320 
	C262.858154,385.666748 260.208832,376.262024 260.694580,365.733978 
	C260.867004,361.997437 258.862640,361.685699 255.781174,361.262909 
	C238.901505,358.946869 221.565262,360.096283 205.052994,355.323486 
	C191.647217,351.448578 178.054794,350.545471 164.247482,350.263947 
	C150.999695,349.993866 137.783936,348.799103 124.611290,347.277863 
	C123.959610,347.202606 123.202660,347.138794 122.703194,346.779694 
	C114.319122,340.752197 103.819077,340.886993 94.729858,337.108002 
	C88.149117,334.371948 82.169479,330.190094 75.212875,326.251678 
	C78.243439,324.122986 80.532654,324.345367 82.450081,324.733734 
	C93.135284,326.897827 104.056984,324.468353 114.745415,326.572906 
	C116.853546,326.987946 118.873268,327.067535 120.846954,328.260529 
	C123.555077,329.897369 126.719498,330.727997 129.898499,330.608002 
	C139.596100,330.242004 149.017120,332.110168 158.528061,333.551605 
	C167.840607,334.962952 177.245193,335.964172 186.646500,336.552826 
	C208.339386,337.911255 230.016220,339.739594 251.779938,339.648499 
	C252.779755,339.644287 253.779877,339.656952 254.779297,339.635284 
	C256.105804,339.606567 257.595917,339.771637 258.274780,338.291656 
	C258.998596,336.713654 258.375732,334.819305 257.180695,334.254791 
	C251.781326,331.703979 250.357574,325.900818 246.650055,322.007751 
	C240.937225,316.008972 235.313583,309.924561 229.557877,303.967529 
	C225.826584,300.105682 222.392410,296.093628 220.541672,290.938477 
	C220.213577,290.024597 219.749268,288.922272 219.002960,288.432404 
	C211.000977,283.179901 207.723785,273.706390 200.463974,267.799591 
	C198.921982,266.544983 197.000854,265.228546 196.328949,263.518402 
	C192.105209,252.768372 183.009460,255.067627 174.917084,255.644287 
	C171.296783,255.902283 167.652206,256.482269 164.023041,256.303253 
	C154.506088,255.833801 145.665222,258.632019 136.891373,261.682495 
	C130.767975,263.811493 124.589172,265.627960 118.145737,266.367218 
	C115.092766,266.717468 112.379143,268.043457 109.734322,269.297791 
	C105.469696,271.320343 101.048401,271.887146 96.589081,271.233948 
	C83.782669,269.358124 71.130821,270.739655 58.430988,272.280609 
	C47.541153,273.601959 36.624931,273.955109 25.770094,271.653900 
	C23.553715,271.184021 21.614830,270.995972 21.643364,267.880524 
	C21.670885,264.875549 23.647923,264.133331 25.763741,263.835968 
	C34.122917,262.661133 42.531509,261.833527 50.884827,260.622314 
	C66.263062,258.392517 81.688553,256.888672 96.751556,252.294174 
	C111.608238,247.762604 127.092247,245.324173 142.207779,241.589951 
	C150.186951,239.618744 158.286972,237.922318 166.596008,234.678375 
	C163.266098,230.228958 160.053696,226.231552 155.465332,223.812103 
	C151.721115,221.837753 148.623077,219.065109 145.500916,216.403793 
	C142.468887,213.819321 141.014999,210.062408 139.895645,206.090988 
	C136.366241,193.568832 129.308197,183.328720 118.946861,175.376221 
	C116.493500,173.493256 114.546555,173.619186 112.493744,175.950119 
	C107.228386,181.928848 101.995728,187.967270 96.856453,194.020126 
	C91.267967,200.602036 83.959785,204.788300 77.539436,210.061646 
	C68.372131,217.591156 59.291756,225.230362 50.219055,232.878098 
	C47.596684,235.088593 44.238899,235.715439 41.093361,236.551651 
	C32.657932,238.794144 27.717300,245.157806 22.867140,251.580841 
	C20.173164,255.148483 18.061705,259.150604 15.504571,262.829651 
	C14.480961,264.302338 13.106778,265.628662 10.868579,264.772034 
	C8.348627,263.807526 8.344764,261.619110 8.782411,259.766571 
	C10.036753,254.456940 11.116740,248.906754 16.347374,245.743271 
	C19.926535,243.578583 20.000305,239.599609 20.235609,236.477142 
	C20.704609,230.253525 24.463194,225.634033 28.531971,222.856552 
	C38.588963,215.991211 46.151661,206.840881 54.452648,198.307297 
	C60.802025,191.779984 68.552597,187.254196 76.985130,183.956772 
	C79.096832,183.131012 81.080704,182.213791 82.113365,180.269302 
	C83.372879,177.897629 85.320450,176.311768 87.547241,175.310776 
	C92.564133,173.055573 95.299995,168.752991 98.513222,164.244278 
	C87.550545,153.758911 73.677589,147.367630 61.036198,137.099060 
	C67.682861,136.778946 72.301537,139.175720 77.084267,140.527527 
	C83.149803,142.241898 89.171036,143.957565 95.453743,144.779999 
	C99.673393,145.332397 103.035629,148.047882 106.547241,150.261887 
	C108.200310,151.304108 109.611427,152.801620 110.996803,152.980469 
	C125.828896,139.285019 127.829887,121.076164 130.835632,103.042358 
	C132.571106,92.629921 130.257080,82.514595 130.422180,72.258049 
	C130.445084,70.834755 129.311279,69.208496 131.028992,68.249100 
	C132.694656,67.318764 134.615814,67.327644 136.248535,68.443550 
	C138.332596,69.867928 139.762604,71.707016 140.696274,74.227959 
	C144.254242,83.834557 144.195816,94.084457 146.335495,103.930939 
	C146.757523,105.873047 147.011627,107.867523 147.612823,109.751816 
	C149.308090,115.065018 150.059418,119.910904 144.527771,123.821396 
	C141.841034,125.720726 142.161484,129.553162 140.979523,132.448257 
	C137.466568,141.052826 131.124710,147.828323 126.509415,155.706543 
	C124.935570,158.393051 124.755417,159.936935 127.077545,162.514984 
	C129.957962,165.712845 133.092560,168.110168 136.927307,169.888626 
	C143.954483,173.147644 149.819366,177.448456 155.270737,183.447815 
	C164.593491,193.707703 175.792068,202.282959 189.375565,206.829269 
	C194.860352,208.664993 198.479401,212.796799 202.021774,217.013138 
	C203.068222,218.258682 203.911285,219.675110 204.774368,220.908646 
	C211.742279,217.557083 218.691895,220.009109 225.471008,220.053833 
	C230.013123,220.083786 234.598206,221.356659 239.003281,222.961685 
	C244.345566,224.908188 247.746414,220.835358 251.328018,218.169388 
	C256.237366,214.515152 260.599152,210.127441 265.492401,206.448883 
	C270.628387,202.587875 277.247498,202.247879 283.119324,200.145767 
	C292.621185,196.744080 302.356873,194.314774 311.433868,189.464462 
	C321.007080,184.349014 332.097687,183.715500 342.659637,181.706360 
	C344.334747,181.387711 345.935486,181.070724 347.313812,180.111679 
	C354.296051,175.253510 362.323029,174.146210 370.497986,173.698868 
	C375.641327,173.417404 380.898346,173.302170 385.716156,171.625626 
	C394.223145,168.665314 403.155823,170.817215 411.713593,168.780182 
	C414.121521,168.207016 416.664276,167.992752 418.889099,166.907227 
	C430.189545,161.393448 442.725830,161.588043 454.662140,159.031296 
	C455.415131,158.870010 455.829041,159.476990 455.643127,160.713928 
	C437.251099,169.306213 420.100922,179.252823 401.244598,185.550171 
	C388.209167,189.903534 377.195618,198.852295 363.617828,202.320496 
	C350.840424,205.584244 339.024658,212.104919 325.474670,213.006027 
	C316.513794,213.601944 307.804138,215.684647 301.391418,222.993774 
	C300.471161,224.042679 298.890625,224.849915 297.497528,225.093597 
	C284.891449,227.298660 274.492004,235.214081 262.281708,238.515610 
	C254.644043,240.580734 248.064972,245.512619 240.208008,247.309586 
	C234.341187,248.651382 228.609756,250.585098 222.337280,252.393860 
	C224.586243,255.735687 227.330826,257.575470 229.675812,259.840149 
	C233.859711,263.880859 239.987335,265.241058 243.351074,270.447754 
	C248.219223,277.983154 253.879608,284.906860 260.432404,291.101654 
	C265.453949,295.848877 269.207764,301.555237 271.105408,308.230225 
	C272.149658,311.903198 274.130737,314.735535 276.620605,317.507751 
	C281.162506,322.564728 285.725311,327.682159 286.439789,334.960297 
	C286.690186,337.510742 288.278046,338.834320 290.881989,338.602875 
	C295.824005,338.163666 300.750153,337.379578 305.698578,337.217560 
	C313.177826,336.972687 320.145874,334.117401 327.578613,333.487671 
	C335.494232,332.816986 343.399994,331.990356 351.333221,331.464417 
	C364.474579,330.593170 377.651337,327.206299 390.690247,332.199890 
	C392.807648,333.010834 394.284943,332.390198 394.605438,329.927612 
	C395.288574,324.678619 395.889038,319.416992 396.683655,314.184875 
	C398.201538,304.190765 397.434357,293.984344 399.605530,284.045837 
	C400.272644,280.992065 401.282623,278.252716 404.078125,276.636597 
	C407.165161,274.851929 409.590454,272.342316 411.927521,269.761719 
	C418.284393,262.742554 425.065399,256.247559 432.814606,250.721786 
	C436.157196,248.338318 439.177185,245.069550 439.542419,240.709061 
	C440.001587,235.226517 442.301208,230.625732 444.620026,225.794189 
	C447.309845,220.189529 451.625336,214.994690 451.575867,208.429077 
	C451.455536,192.456451 451.238037,176.510986 455.996124,161.007355 
z"/>
<path fill="#000000" opacity="1.000000" stroke="none" 
	d="
M122.808968,398.206940 
	C115.020332,393.306000 108.083260,387.921967 102.045921,381.434235 
	C97.466324,376.512970 92.080872,372.794189 86.187836,369.526611 
	C80.271492,366.246094 77.248802,360.256592 73.348839,353.911652 
	C81.020554,353.638977 87.190575,355.768372 93.436836,356.937653 
	C106.859032,359.450317 119.576256,364.296326 131.977814,369.931122 
	C136.113495,371.810211 140.493118,372.924683 144.885345,373.255798 
	C151.159546,373.728760 152.691772,378.396515 154.162308,382.850006 
	C156.534180,390.033081 161.192505,394.265747 168.484436,395.682190 
	C174.993347,396.946503 181.548676,397.803650 188.214172,397.696259 
	C192.179916,397.632385 195.290314,398.853027 198.025024,402.339539 
	C201.155914,406.331116 204.148315,410.981781 210.528214,411.216736 
	C212.449905,411.287445 214.639694,413.984619 216.066437,415.944672 
	C223.922195,426.737000 235.209152,429.393219 247.655045,430.893555 
	C258.544800,432.206329 269.506683,433.346466 280.197998,436.768677 
	C287.625610,439.146179 295.597717,440.119232 303.096680,442.668915 
	C304.816223,443.253540 306.590790,443.678986 308.301300,444.286774 
	C309.976868,444.882202 310.360443,446.252380 310.274811,447.899963 
	C310.187256,449.584290 309.537109,450.796021 307.820007,451.197510 
	C306.049469,451.611481 304.269928,452.234680 302.480896,452.284607 
	C277.506592,452.981140 252.747803,451.476746 228.571075,444.558990 
	C223.104630,442.994873 218.294403,439.902954 213.389175,437.194336 
	C207.712601,434.059753 201.767181,432.928436 195.456635,432.201538 
	C189.222076,431.483429 183.033798,430.015320 178.119553,425.489746 
	C176.389893,423.896912 174.172806,423.057526 171.919327,422.409821 
	C170.487198,421.998169 168.902161,421.889679 167.625534,421.200775 
	C152.949371,413.281189 136.453949,408.915009 122.808968,398.206940 
z"/>
<path fill="#000000" opacity="1.000000" stroke="none" 
	d="
M183.651917,67.483269 
	C172.594162,63.924564 162.721558,58.710819 151.505539,53.553551 
	C158.124115,51.547089 163.336472,53.349720 168.397614,54.034672 
	C182.669296,55.966133 197.038559,56.924114 211.303452,58.751942 
	C231.480545,61.337334 252.014053,61.186558 271.877930,65.807365 
	C280.572662,67.829971 289.145142,68.413391 297.941650,68.854446 
	C305.402802,69.228546 312.852295,69.686958 320.324219,69.646019 
	C324.064209,69.625526 327.464478,68.927269 330.078918,65.717567 
	C332.523560,62.716286 336.409698,63.158581 339.766754,62.703571 
	C355.671448,60.547901 371.669708,61.961884 387.624542,61.792927 
	C392.197205,61.744507 397.013824,62.330662 401.318542,63.798836 
	C412.002380,67.442673 422.930328,70.099724 433.806763,72.997780 
	C434.915009,73.293076 436.530731,73.431412 436.794891,75.683044 
	C432.005859,76.550880 427.257446,77.709923 422.440094,78.228691 
	C407.618500,79.824776 392.793152,81.140572 377.848450,81.487045 
	C358.801422,81.928619 339.751251,83.031860 320.753296,84.505775 
	C308.573151,85.450737 296.715698,89.336899 284.260071,88.402931 
	C271.528076,87.448242 258.755859,87.038986 246.010544,86.242378 
	C244.079987,86.121719 242.080231,85.441841 240.321564,84.589317 
	C236.818893,82.891357 232.914261,81.427109 229.351196,81.685204 
	C221.052460,82.286346 214.300537,78.090042 206.963989,75.805931 
	C199.217300,73.394135 191.669418,70.343773 183.651917,67.483269 
z"/>
</svg>