<?xml version="1.0" encoding="UTF-8"?>
<svg id="Layer_1" data-name="Layer 1" xmlns="http://www.w3.org/2000/svg" viewBox="0 0 794.22 348.59">
  <defs>
    <style>
      .cls-1 {
        fill: #000;
        stroke-width: 0px;
      }
    </style>
  </defs>
  <path class="cls-1" d="M39.18 319.65c-1.19-2.67-1.78-5.5-1.78-8.46 0-2.38.74-3.94 2.23-4.67 1.48-.74 2.23-2.16 2.23-4.23s-.44-3.78-1.33-5.12c-.89-1.34-1.93-2.89-3.12-4.67h.45c.29 0 .45-.07.45-.22s.15-.22.44-.22h1.34c2.37 0 3.56.74 3.56 2.23s.74 2.23 2.23 2.23h1.34c-.3-4.15.07-7.86 1.11-11.13 1.04-3.26 2.23-6.45 3.56-9.57 1.34-3.12 2.59-6.3 3.78-9.57 1.18-3.26 1.78-6.97 1.78-11.13 1.18 0 1.93.44 2.23 1.34.29.89 1.18 1.33 2.67 1.33 4.15 0 8.46-.59 12.91-1.78 4.45-1.18 8.6-2.52 12.47-4.01l3.56 13.35c.59-.29 1.18-1.04 1.78-2.23.59-1.18 1.11-2.52 1.56-4.01.45-1.48.74-2.89.89-4.23.15-1.33.07-2.29-.22-2.89 2.96-2.37 5.63-4.38 8.01-6.01 2.37-1.63 5.19-2.45 8.46-2.45.29 0 .81.08 1.56.22.74.15 1.26.22 1.56.22l-4.01 4.01c.59 1.49 1.18 3.19 1.78 5.12.59 1.93 1.18 2.89 1.78 2.89 2.07 0 3.71-.81 4.9-2.45 1.18-1.63 2.23-3.49 3.12-5.57.89-2.07 1.78-4.23 2.67-6.45.89-2.23 1.93-3.93 3.12-5.12 1.18-1.18 2.52-2 4.01-2.45 1.48-.44 2.82-.89 4.01-1.33 1.18-.45 2.23-1.04 3.12-1.78.89-.74 1.34-2 1.34-3.78 0-2.37-1.11-4.38-3.34-6.01-2.23-1.63-4.53-2.45-6.9-2.45-1.49 0-2.45.38-2.89 1.11-.44.74-1.11 1.11-2 1.11h-.89c-.6-3.85-1.19-7.79-1.78-11.8-.6-4.01-1.34-7.79-2.23-11.35h-1.78c-.6 0-1.34.22-2.23.67-.89.44-1.49.82-1.78 1.11h-1.78c0-.89-.22-2.89-.67-6.01-.45-3.12-.97-4.97-1.56-5.56-1.49-3.56-3.78-4.9-6.9-4.01-3.12.89-6.01 1.34-8.68 1.34v3.12c-3.86 0-7.57-1.7-11.13-5.12-3.56-3.41-5.64-7.05-6.23-10.91-.3.3-.89.74-1.78 1.34-.89.6-1.63.89-2.23.89l-.89-.89c-.6-.59-.89-1.04-.89-1.34-1.49-2.37-2.3-4.45-2.45-6.23-.15-1.78.07-4.15.67-7.12-1.78 1.19-3.34 2.16-4.68 2.89-1.33.74-3.05 1.11-5.12 1.11-3.27 0-4.6-1.63-4.01-4.9.59-3.26.89-5.93.89-8.01-.89 0-2.53-.29-4.9-.89-2.38-.59-3.56.74-3.56 4.01 0 .6.67 1.56 2 2.89 1.33 1.34 2 2.3 2 2.89 0 .3-.52 1.19-1.56 2.67-1.04 1.49-1.86 2.53-2.45 3.12h-1.78c-.6-.59-1.04-1.63-1.34-3.12-.3-1.48-.6-2.37-.89-2.67-.3-.29-1.19-.59-2.67-.89-1.49-.29-2.53-.59-3.12-.89-3.86-2.37-6.68-5.34-8.46-8.9-1.78-3.56-2.89-7.12-3.34-10.69-.45-3.56-.6-6.6-.45-9.13.15-2.52.07-3.78-.22-3.78l-5.79.89-.89.45c-.3.3-.67.97-1.11 2-.45 1.04-.82 1.71-1.11 2 0 .3-.15.45-.44.45-.3.3-.6.44-.89.44 0-3.85-.6-6.75-1.78-8.68-1.19-1.93-2.67-3.71-4.45-5.34-1.78-1.63-3.56-3.26-5.34-4.9-1.78-1.63-3.27-4.08-4.45-7.35 0-.59-.08-2.37-.22-5.34-.15-2.96-.22-4.74-.22-5.34 0-8.6 1.48-15.73 4.45-21.37 2.96-5.63 6.16-10.83 9.57-15.58 3.41-4.74 6.6-9.27 9.57-13.58 2.96-4.3 4.45-9.42 4.45-15.36h14.25c0-.89-.15-1.93-.45-3.12-.3-1.18-.44-2.37-.44-3.56s.29-2.23.89-3.12c.59-.89 1.78-1.33 3.56-1.33s3.49 1.56 5.12 4.67c1.63 3.12 4.23 4.67 7.79 4.67v4.45c1.18 0 1.93.08 2.23.22.29.15.74-.51 1.34-2V9.79c0-.59.29-1.34.89-2.23.59-.89 1.04-1.48 1.34-1.78 2.67 0 4.67.74 6.01 2.23 1.34 1.49 2.37 3.19 3.12 5.12.74 1.93 1.34 4.01 1.78 6.23.45 2.23 1.26 4.23 2.45 6.01 1.78-.29 2.67-1.63 2.67-4.01v-4.01c0-5.04-1.11-8.08-3.34-9.13-2.23-1.04-5.86-3.19-10.91-6.46V0h15.58c1.18 0 2.15.6 2.89 1.78.74 1.19 1.26 2.53 1.56 4.01.29 1.49.51 2.97.67 4.45.15 1.49.22 2.67.22 3.56h6.23l4.01-9.79 11.58 5.79c1.18-2.96 3.12-4.45 5.79-4.45 2.37 0 3.56.89 3.56 2.67s.74 2.97 2.23 3.56c.29.6.89.45 1.78-.44.29-.29.59-.45.89-.45V3.12c.29.3.74.45 1.33.45.29 0 .59.08.89.22.29.15.59.22.89.22 1.48.6 2.23 1.78 2.23 3.56 0 1.49-.38 2.67-1.11 3.56-.74.89-1.11 2.08-1.11 3.56v.89l1.78 1.78h.89c2.37 0 3.63-1.48 3.78-4.45.15-2.96.22-4.9.22-5.79 2.07 0 4.38.97 6.9 2.89 2.52 1.93 4.38 3.78 5.56 5.57l2-2c1.04-1.04 2.15-2 3.34-2.89 1.18-.89 2.29-1.7 3.34-2.45 1.04-.74 1.7-1.11 2-1.11 2.37 0 4.15.97 5.34 2.89 1.18 1.93 2 4.16 2.45 6.68.45 2.53.67 4.97.67 7.35s.15 4.01.45 4.9c.29.6 1.26 1.56 2.89 2.89 1.63 1.34 2.59 2.3 2.89 2.89v.89c0 .3.15.6.45.89 0 .3-.08.67-.22 1.11-.15.45-.22.82-.22 1.11 0 .6-.22 1.93-.67 4.01-.45 2.08-.82 3.42-1.11 4.01h-.89c-1.49 0-2.45-.37-2.89-1.11-.45-.74-.89-1.56-1.34-2.45-.44-.89-1.27-1.7-2.45-2.45-1.19-.74-3.42-1.11-6.68-1.11-.3.6-.6 1.04-.89 1.34-.6.89-.74 1.49-.45 1.78.29.3 1.26.6 2.89.89 1.63.3 2.59.6 2.89.89 1.18.6 1.93 1.41 2.23 2.45.29 1.04.59 2.08.89 3.12.29 1.04.74 1.93 1.34 2.67.59.74 1.78 1.11 3.56 1.11 0 1.19-.6 2.23-1.78 3.12-1.19.89-2.6 1.78-4.23 2.67-1.63.89-3.05 1.86-4.23 2.89-1.19 1.04-1.78 2.45-1.78 4.23 0 2.38.74 4.01 2.23 4.9 1.48.89 2.23 2.52 2.23 4.9-.3.6-.45 1.04-.45 1.34v1.78c-.3-.89-1.11-1.85-2.45-2.89-1.34-1.04-2.83-2.15-4.45-3.34-1.63-1.18-3.27-2.15-4.9-2.89-1.63-.74-2.89-1.11-3.78-1.11-1.19 0-2 .38-2.45 1.11-.45.74-1.27 1.11-2.45 1.11h-.89c-.6-.29-1.41-.96-2.45-2-1.04-1.04-2.23-2.23-3.56-3.56-1.34-1.33-2.53-2.52-3.56-3.56-1.04-1.04-1.71-1.85-2-2.45-.89-.89-1.41-1.85-1.56-2.89-.15-1.04-.3-2.15-.45-3.34-.15-1.18-.44-2.07-.89-2.67-.45-.59-1.41-.89-2.89-.89s-4.16.22-8.01.67c-3.86.45-7.94.89-12.24 1.34-4.31.45-8.39.82-12.24 1.11-3.86.3-6.53.6-8.01.89-4.16.3-7.2.97-9.13 2-1.93 1.04-3.34 2.53-4.23 4.45-.89 1.93-1.71 4.16-2.45 6.68-.74 2.53-2 5.27-3.79 8.24-2.08-.59-2.75-1.18-2-1.78.74-.59 1.11-1.18 1.11-1.78-2.08 0-3.94-.15-5.56-.44-1.63-.29-2.97-.37-4.01-.22-1.04.15-1.78.89-2.23 2.23-.44 1.33-.67 3.64-.67 6.9s1.33 4.9 4.01 4.9c2.07 0 3.19-1.11 3.34-3.34.15-2.23 1.11-3.34 2.89-3.34 0 1.78.22 4.23.67 7.35.45 3.12 1.18 6.16 2.23 9.13 1.04 2.97 2.45 5.56 4.23 7.79 1.78 2.23 3.85 3.34 6.23 3.34h-.44c-.6.3-1.04.6-1.34.89s-.45.6-.45.89-.15.44-.44.44v1.78c0 1.78.96 2.97 2.89 3.56 1.93.6 3.85 1.27 5.79 2 1.93.74 3.56 1.86 4.9 3.34 1.34 1.49 1.4 3.71.22 6.68.59-1.18 1.93-1.78 4.01-1.78 2.37 0 3.93.82 4.68 2.45.74 1.63 1.34 3.34 1.78 5.12.45 1.78 1.11 3.49 2 5.12.89 1.63 2.52 2.45 4.9 2.45h1.78c-1.49-1.48-2.3-3.12-2.45-4.9-.15-1.78-.22-3.41-.22-4.9s-.44-2.89-1.34-4.23c-.89-1.34-2.67-2.45-5.34-3.34.59-.29 1.26-.44 2-.44h1.56c2.37 0 4.6.74 6.68 2.23 2.07 1.49 4.15 3.12 6.23 4.9 2.07 1.78 4.08 3.56 6.01 5.34 1.93 1.78 4.08 2.97 6.46 3.56 1.78.6 4.15 1.34 7.12 2.23 2.96.89 4.45 1.49 4.45 1.78l9.79 19.14c0-.59.22-1.56.67-2.89.44-1.33.81-2.29 1.11-2.89l.45-.44h.89l.44.44c2.67 4.16 4.74 8.76 6.23 13.8l3.56-2.23c-1.19 2.97-1.49 6.16-.89 9.57.59 3.42 1.7 6.61 3.34 9.57 1.63 2.97 3.78 5.56 6.46 7.79 2.67 2.23 5.49 3.64 8.46 4.23 2.07 2.67 4.01 5.56 5.79 8.68 1.78 3.12 2.67 6.31 2.67 9.57 0 1.78-1.41 4.23-4.23 7.35-2.83 3.12-5.42 4.23-7.79 3.34 2.37 3.27 3.56 7.12 3.56 11.57 0 1.78-.38 4.53-1.11 8.24-.74 3.71-2.6 5.57-5.56 5.57h-.89c-.3-.29-.89-.59-1.78-.89-.89-.29-1.63-.74-2.23-1.33v2.23c.29 1.19.74 2.97 1.34 5.34.59 2.38.89 3.86.89 4.45l1.78 1.78c-.6.6-1.34 1.56-2.23 2.89s-1.49 2.3-1.78 2.89c-1.49 2.97-2.67 4.75-3.56 5.34-.89.6-2.23 2.08-4.01 4.45.89 1.49 2.23 2.23 4.01 2.23v5.79c-2.24-.46-2.73-.5-2.75-.43-.16.64 50.11 14.56 50.36 13.71.21-.69-32.27-11.06-60.53-19.96l-.89.44-4.01 21.37c0 .59-.6 1.18-1.78 1.78h-.89c-1.19 0-2-.44-2.45-1.33-.45-.89-.74-1.78-.89-2.67-.15-.89-.38-1.78-.67-2.67-.3-.89-1.04-1.33-2.23-1.33-2.67 0-4.31 1.11-4.9 3.34-.6 2.23-1.04 4.52-1.34 6.9h-2.23c-2.38 0-4.31-1.27-5.79-3.78-1.49-2.53-2.67-4.53-3.56-6.01-1.49.3-2.23.89-2.23 1.78v3.12c0 1.48.37 2.45 1.11 2.89.74.44 1.11 1.4 1.11 2.89s-.15 3.04-.45 4.67c-.3 1.63-1.49 2.45-3.56 2.45-.3 0-.6-.08-.89-.22-.3-.15-.74-.22-1.33-.22.59-.6.59-1.86 0-3.78-.6-1.93-1.19-3.19-1.78-3.78h-2.23c-.3 0-.44-.15-.44-.44-1.49 0-3.05.07-4.68.22-1.63.15-2.45 1.11-2.45 2.89v.89c.29.29.96.67 2 1.11 1.04.44 1.7.81 2 1.11l.45.45c0 .29.15.44.45.44-2.97 0-4.75.29-5.34.89-.6.59-.74 1.34-.44 2.23.29.89.51 2 .67 3.34.15 1.34-.38 2.74-1.56 4.23-.3.29-1.49.59-3.56.89-2.08.29-3.42.59-4.01.89-.6 0-1.04.59-1.33 1.78-.3 1.18-.6 1.93-.89 2.23 0 .29-.15.45-.45.45h-1.34c-2.38 0-4.01-.82-4.9-2.45-.89-1.63-2.83-2.45-5.79-2.45-.6 0-1.49.07-2.67.22-1.19.15-1.93.22-2.23.22s-.89.67-1.78 2c-.89 1.33-1.63 2-2.23 2s-1.56-.67-2.89-2c-1.34-1.34-2.3-2-2.89-2-.6-.3-1.71-.67-3.34-1.11-2.61-.71-4.38-1.52-5.12-1.78-1.98-.7-4.89-1.68-8.9-2.89ZM14.25 64.11c-1.19 0-1.78.6-1.78 1.78s.59 1.78 1.78 1.78c.89 0 1.34-.59 1.34-1.78s-.44-1.78-1.34-1.78ZM23.15 97.05c0 1.49.67 2.45 2 2.89 1.34.44 2.74.67 4.23.67 2.37 0 4.08-.37 5.12-1.11 1.04-.74 1.56-2.3 1.56-4.67 0-.59-.08-1.63-.22-3.12-.15-1.48-.97-2.37-2.45-2.67.89 1.49.96 2.75.22 3.78-.74 1.04-1.78 1.86-3.12 2.45-1.34.6-2.67 1.04-4.01 1.33-1.34.3-2.45.45-3.34.45ZM27.6 108.63c.89 1.49 2.23 2.23 4.01 2.23v-2.23h-4.01ZM35.17 104.18c2.96 0 4.68 1.63 5.12 4.9.45 3.27.67 5.64.67 7.12 3.26-2.37 5.12-5.79 5.57-10.24.44-4.45.67-8.31.67-11.58v-1.56c0-.44-.74-.96-2.23-1.56.59 3.27-.15 5.94-2.23 8.01-2.08 2.08-4.61 3.27-7.57 3.56v1.33ZM40.96 139.35c-.89 0-1.34.67-1.34 2s.45 2 1.34 2c1.18 0 1.78-.67 1.78-2s-.6-2-1.78-2ZM40.96 133.56c-.6-.29-.89 0-.89.89s.29 1.34.89 1.34c.59-.29.89-.74.89-1.34s-.3-.89-.89-.89ZM44.97 313.86h2.23v-1.78h-2.23v1.78ZM50.75 34.72c-1.49 1.49-2.23 2.83-2.23 4.01h2.23v-4.01ZM52.98 298.28c.29-.59 0-.89-.89-.89s-1.34.3-1.34.89c.29.59.74.89 1.34.89s.89-.3.89-.89ZM52.98 141.57h1.78v-2.23l-1.78 2.23ZM60.55 308.08c-3.56 0-5.79.59-6.68 1.78-.89 1.18-.74 2.45.44 3.78 1.18 1.34 3.34 2.59 6.46 3.78 3.12 1.18 6.9 1.78 11.35 1.78.29 0 0-.6-.89-1.78-.89-1.19-2.08-2.45-3.56-3.78-1.49-1.34-2.97-2.6-4.45-3.78-1.49-1.19-2.38-1.78-2.67-1.78ZM54.31 61.88c0 2.97 1.48 4.45 4.45 4.45v-4.45h-4.45ZM56.54 317.87c-.89 0-1.34.67-1.34 2s.45 2 1.34 2c1.18 0 1.78-.67 1.78-2s-.6-2-1.78-2ZM58.77 56.09h3.56v-1.78h-3.56v1.78ZM60.55 40.51c-.89 0-1.33.67-1.33 2s.44 2 1.33 2 1.34-.67 1.34-2-.44-2-1.34-2ZM64.55 149.14c0 .6.22 1.56.67 2.89.44 1.33.81 2.3 1.11 2.89 1.48-.59 2.37-1.93 2.67-4.01.29-2.07.44-3.41.44-4.01-.89 0-1.93.15-3.12.44-1.19.3-1.78.89-1.78 1.78ZM64.55 302.29c0 2.07.59 3.41 1.78 4.01 0-.3.07-.67.22-1.11.15-.45.22-.82.22-1.11 0-1.78-.74-2.97-2.23-3.56v1.78ZM66.33 135.78c-.89 0-1.34.6-1.34 1.78s.45 1.78 1.34 1.78 1.34-.59 1.34-1.78-.45-1.78-1.34-1.78ZM77.91 263.56c-.6.6-2.38 1.93-5.34 4.01-2.97 2.08-4.45 3.56-4.45 4.45l13.8 4.01-4.01-12.47ZM72.12 36.95c-.6-.29-.89-.07-.89.67s.29 1.11.89 1.11c.59-.29.89-.67.89-1.11s-.3-.67-.89-.67ZM77.91 166.5h2.67c0-1.18-.89-2.37-2.67-3.56v3.56ZM93.49 154.93c-.6-.29-.89 0-.89.89s.29 1.33.89 1.33c1.48-1.48 1.48-2.23 0-2.23ZM102.4 15.14c-2.08 0-3.42.82-4.01 2.45-.6 1.63-.89 3.19-.89 4.68v3.12c1.18-.59 2.74-1.63 4.67-3.12 1.93-1.48 2.89-3.12 2.89-4.9 0-1.18-.6-1.78-1.78-1.78l-.89-.45ZM99.28 154.93h1.78v-1.78h-1.78v1.78ZM105.07 135.78c-.89 0-1.34.6-1.34 1.78s.45 1.78 1.34 1.78 1.34-.59 1.34-1.78-.45-1.78-1.34-1.78ZM104.18 172.29c0 1.49.96 2.53 2.89 3.12 1.93.6 3.19.89 3.78.89.59-.29 1.18-.89 1.78-1.78.59-.89.74-1.63.45-2.23h-8.9ZM105.07 288.93l1.78-2.23h-1.78v2.23ZM106.85 141.57h2.23l-2.23-2.23v2.23ZM109.07 164.72l1.78-1.78h-4.01l2.23 1.78ZM110.85 151.37c-.89 0-1.34.6-1.34 1.78s.45 1.78 1.34 1.78c1.18 0 1.78-.59 1.78-1.78s-.6-1.78-1.78-1.78ZM113.08 178.08c-1.78 1.49-2.67 2.83-2.67 4.01h2.67v-4.01ZM118.87 286.71c-2.08 0-3.42.74-4.01 2.23h5.79c0-1.48-.6-2.23-1.78-2.23ZM116.64 166.5h3.12c0-.89-.15-1.93-.45-3.12-.3-1.18-1.19-2.07-2.67-2.67v5.79ZM121.54 142.91c-.89 0-1.56.6-2 1.78-.45 1.19-.82 2.53-1.11 4.01-.3 1.49-.45 2.89-.45 4.23v2.45c1.78 0 3.41-.59 4.9-1.78 1.48-1.18 2.23-2.67 2.23-4.45 0-.89-.22-2.15-.67-3.78-.44-1.63-1.41-2.45-2.89-2.45ZM120.65 182.08h1.78l-1.78-5.79v5.79ZM122.43 13.8c-.89 0-1.33.6-1.33 1.78s.44 1.78 1.33 1.78c1.18 0 1.78-.59 1.78-1.78s-.6-1.78-1.78-1.78ZM130.44 147.36c-.6-.59-.89 0-.89 1.78s.29 2.53.89 2.23c1.18-2.07 1.18-3.41 0-4.01ZM130 197.67c0 2.38.51 4.9 1.56 7.57 1.04 2.67 3.19 4.01 6.45 4.01h1.78c.89-.29 2.59-.59 5.12-.89 2.52-.29 4.08-.59 4.67-.89.29-.29.44-.59.44-.89 0-1.18-.44-1.85-1.33-2-.89-.15-1.78-.29-2.67-.45-.89-.15-1.78-.51-2.67-1.11-.89-.59-1.33-1.78-1.33-3.56-2.08 1.49-3.49 2.16-4.23 2-.74-.15-2.3-.22-4.67-.22 0-2.37.37-4.15 1.11-5.34.74-1.18-.52-2.52-3.78-4.01 0 .6-.08 1.56-.22 2.89-.15 1.34-.22 2.3-.22 2.89ZM132.22 243.97c-.6-.29-.89 0-.89.89s.29 1.34.89 1.34c.59-.29.89-.74.89-1.34s-.3-.89-.89-.89ZM134 172.29c.29-.59.07-.89-.67-.89s-1.11.3-1.11.89c.29.6.67.89 1.11.89s.67-.29.67-.89ZM134 236.4c-.89 0-1.34.67-1.34 2s.45 2 1.34 2c1.18 0 1.78-.67 1.78-2s-.6-2-1.78-2ZM136.23 178.08c0 2.67 1.18 4.75 3.56 6.23v-10.24c-2.38 0-3.56 1.34-3.56 4.01ZM138.01 19.59c-.89 0-1.33.6-1.33 1.78s.44 1.78 1.33 1.78 1.34-.59 1.34-1.78-.44-1.78-1.34-1.78ZM138.01 166.5c.89 1.78 2.23 2.67 4.01 2.67v-2.67h-4.01ZM152.26 182.98c-3.27 0-6.23.67-8.9 2-2.67 1.34-4.01 3.78-4.01 7.35 2.37 0 5.12-.81 8.24-2.45 3.12-1.63 4.67-3.93 4.67-6.9ZM145.58 36.95h2.67c0-1.78-.89-3.12-2.67-4.01v4.01ZM147.8 178.08h1.78l-1.78-1.78v1.78ZM149.59 224.82h2.23v-4.01h-2.23v4.01ZM167.39 235.95c-1.49 0-2.89.45-4.23 1.34s-2.6 1.93-3.78 3.12h2.67c3.56 0 5.34-1.48 5.34-4.45ZM163.39 226.6c1.48-.89 2.23-2.07 2.23-3.56h-2.23v3.56ZM165.17 205.24c-.6-.29-.89 0-.89.89s.29 1.34.89 1.34c.59-.29.89-.74.89-1.34s-.3-.89-.89-.89ZM166.95 213.25c-.89 0-1.34.6-1.34 1.78s.45 1.78 1.34 1.78c1.18 0 1.78-.59 1.78-1.78s-.6-1.78-1.78-1.78ZM447.86 307.63c.29 0 .74-.15 1.34-.44.59-.3 1.04-.45 1.34-.45v-1.78c-.3-.3-.74-.6-1.34-.89-.6-.3-1.04-.6-1.34-.89-.3-.3-.97-.3-2 0-1.04.29-1.56.29-1.56 0s-.15-.74-.44-1.34c-.3-.6-.6-1.19-.89-1.78-.3-.3-.74-1.41-1.34-3.34-.6-1.93-.89-3.04-.89-3.34-.6-.59-1.56-2.37-2.89-5.34-1.34-2.96-2.3-4.74-2.89-5.34 0-.29-.38-1.11-1.11-2.45-.74-1.33-1.11-2.15-1.11-2.45s-.3-1.11-.89-2.45c-.6-1.34-1.19-2.67-1.78-4.01-.6-1.33-1.11-2.67-1.56-4.01-.44-1.34-.82-2.15-1.11-2.45-.3-.59-.74-1.93-1.34-4.01-.6-2.07-1.27-4.3-2-6.68-.74-2.37-1.49-4.68-2.23-6.9-.74-2.23-1.27-3.93-1.56-5.12-.3 0-.74-1.04-1.34-3.12l-.89-2.67c0-.59-.22-1.56-.67-2.89-.44-1.34-.82-2.3-1.11-2.89v-1.34c-.3 0-.67-.22-1.11-.67-.44-.44-.82-.81-1.11-1.11-.3-.59-.6-1.7-.89-3.34-.3-1.63-.45-2.74-.45-3.34v-3.56c-.3-.59-1.27-1.48-2.89-2.67-1.63-1.18-2.75-2.07-3.34-2.67-.6-.59-1.86-1.26-3.78-2-1.93-.74-3.05-1.11-3.34-1.11-.6 0-2.45.52-5.56 1.56-3.12 1.04-4.83 1.56-5.12 1.56h-2.67c-.3 0-.82-.45-1.56-1.34-.74-.89-1.41-1.48-2-1.78h-3.56c-.6.3-1.56.89-2.89 1.78-1.34.89-2.3 1.34-2.89 1.34-.3 0-1.49.08-3.56.22-2.08.15-3.56.22-4.45.22h-5.34c-1.19 0-2.23-.15-3.12-.44-.6 0-1.71-.29-3.34-.89-1.63-.59-2.6-.89-2.89-.89s-.97.3-2 .89c-1.04.6-1.71.89-2 .89-.3.3-1.78.38-4.45.22-2.67-.15-4.31-.22-4.9-.22-.3 0-1.11.22-2.45.67-1.34.44-2.3.67-2.89.67-.6.3-1.86.38-3.78.22-1.93-.15-3.05-.22-3.34-.22-1.19.3-3.56.74-7.12 1.33-3.56.6-5.79.89-6.68.89-.3 0-1.19-.29-2.67-.89-1.49-.59-2.53-1.04-3.12-1.33h-1.34l-1.34 1.33-.89.89c-.6.3-1.63.3-3.12 0-1.49-.29-2.38-.29-2.67 0-.6.3-1.56.82-2.89 1.56-1.34.74-2.16 1.41-2.45 2-.3.3-.6 1.19-.89 2.67-.3 1.49-.45 2.53-.45 3.12-.6 0-.74-.07-.45-.22.29-.15.15-.22-.44-.22-.6-.59-1.27-1.26-2-2-.74-.74-1.11-1.26-1.11-1.56-.3-.29-.45-.96-.45-2s.15-1.56.45-1.56c-.3 0-.97.3-2 .89-1.04.6-1.71.89-2 .89l-.89-.89-.89-.89-.89-1.78c-.6-1.18-.89-1.93-.89-2.23-.3 0-.52.08-.67.22-.15.15-.38.22-.67.22-.3.3-.74.45-1.34.45 0 .6.15 1.19.45 1.78.29.6.15 1.04-.45 1.34 0 .3-.15.6-.45.89-.6.6-1.04.89-1.33.89-.6.6-2 1.71-4.23 3.34-2.23 1.63-3.78 2.75-4.67 3.34v1.78l.89 2.67c.29.89.59 1.63.89 2.23v1.78c0 .3-.52.89-1.56 1.78-1.04.89-1.56 1.49-1.56 1.78 0 .6-.3 1.71-.89 3.34-.6 1.63-.89 2.75-.89 3.34-.6 0-.89-.15-.89-.44-1.19-.59-1.78-1.18-1.78-1.78v-4.45l-8.9-8.46h-2.67l-.89.89-.44.45c-.6.6-1.04 2.08-1.34 4.45-.3 2.38-.6 3.86-.89 4.45-.3.3-.67 1.27-1.11 2.89-.44 1.63-.67 2.75-.67 3.34l.89.45c.29 0 .59-.15.89-.45.29 0 .59-.22.89-.67.29-.44.74-.81 1.34-1.11 0-.59.59-1.63 1.78-3.12 1.18-1.48 1.93-2.52 2.23-3.12.29.3.59 1.04.89 2.23.29 1.19.45 1.93.45 2.23-.3.6-.97 1.78-2 3.56-1.04 1.78-1.71 2.97-2 3.56v13.36c0 .6.45 2.3 1.34 5.12.89 2.82 1.34 4.53 1.34 5.12v3.56c-.89 0-2.3.22-4.23.67-1.93.45-3.19.67-3.78.67-.6.3-1.56.89-2.89 1.78-1.33.89-2.3 1.49-2.89 1.78v-4.9l-.89.89c-.3.3-.6.44-.89.44h-.45l-1.78.89c-.6.3-1.04.45-1.34.45-.3.89-.67 2.23-1.11 4.01-.45 1.78-.67 2.97-.67 3.56.29-.29 1.11-.45 2.45-.45s2.15.15 2.45.45c.59 0 1.48.38 2.67 1.11 1.18.74 1.78 1.41 1.78 2s-.67 1.56-2 2.89c-1.34 1.34-2.16 2-2.45 2 0 .6-.44 1.78-1.33 3.56-.89 1.78-1.49 2.82-1.78 3.12-.3.59-.97 1.26-2 2-1.04.74-1.56 1.26-1.56 1.56h-4.01c-.3-.3-1.86-.6-4.67-.89-2.82-.3-4.53-.6-5.12-.89-.3 0-1.19.07-2.67.22-1.49.15-2.38.07-2.67-.22 0-.3-.38-.74-1.11-1.34-.74-.6-1.11-1.19-1.11-1.78v-10.24c0-.59-.52-1.78-1.56-3.56-1.04-1.78-1.71-2.96-2-3.56v-6.23c0-.59.29-1.56.89-2.89.59-1.33.89-2.29.89-2.89.29-.29.67-1.18 1.11-2.67.45-1.48.67-2.52.67-3.12l2.23-.45.89.45h.89c.59 0 1.26.22 2 .67.74.44 1.26.67 1.56.67.29-.59.74-1.93 1.34-4.01.59-2.07.89-3.41.89-4.01 0-.29-.38-.96-1.11-2-.74-1.04-1.11-1.7-1.11-2s.67-1.41 2-3.34c1.34-1.93 2.15-3.04 2.45-3.34 0-.29-.22-1.11-.67-2.45-.44-1.33-.97-2.29-1.56-2.89-.6-.29-1.04-.59-1.34-.89l-.89-.89v-2.67c0-.29.29-.59.89-.89.59-.29 1.04-.44 1.34-.44.59-.29 1.56-.67 2.89-1.11 1.34-.44 2.15-.81 2.45-1.11v-3.56c-.3-.29-.89-.81-1.78-1.56-.89-.74-1.34-1.26-1.34-1.56-.3-.29-.45-.59-.45-.89v-.89l.45-1.33c0-.59.15-1.78.45-3.56.29-1.78.59-2.96.89-3.56 0-.29.22-.89.67-1.78.44-.89.81-1.63 1.11-2.23.29.6 1.26 1.56 2.89 2.89 1.63 1.33 2.74 2.3 3.34 2.89h3.56c0-.89.22-2.15.67-3.78.45-1.63.81-2.74 1.11-3.34l1.33-1.78c1.48-1.48 2.23-2.37 2.23-2.67.29-1.18.45-3.26.45-6.23s-.15-4.9-.45-5.79c1.48-.59 2.23-1.34 2.23-2.23.29-.29.59-.67.89-1.11.29-.44.74-.96 1.33-1.56.59-.59 1.04-1.18 1.34-1.78 0-.29-.22-.96-.67-2-.44-1.04-.67-1.7-.67-2-.3-.29-.74-1.26-1.33-2.89-.6-1.63-.89-2.74-.89-3.34v-3.12c0 .3.29.6.89.89.59.3 1.04.45 1.33.45.59.6 1.78 1.49 3.56 2.67 1.78 1.19 2.82 1.93 3.12 2.23h2.67c.29-.59.89-1.18 1.78-1.78.89-.59 1.63-1.04 2.23-1.34 0-.59-.15-2-.44-4.23-.3-2.23-.15-3.63.44-4.23 0-.29.15-.81.45-1.56.29-.74.45-1.26.45-1.56s.07-.67.22-1.11c.15-.45.22-.81.22-1.11l-.44-1.34-.89-1.34c-.6-.29-.89-.74-.89-1.34h4.01c.59-.29 1.26-.96 2-2 .74-1.04 1.26-1.7 1.56-2 0-.29.45-1.85 1.34-4.67.89-2.82 1.34-4.52 1.34-5.12s.37-1.7 1.11-3.34c.74-1.63 1.41-2.74 2-3.34l.89-.89c.29-.29.45-.59.45-.89l4.45 5.34 3.12-3.56v-18.7l2.67-1.78c1.18 0 1.78.6 1.78 1.78.29.6.67 1.93 1.11 4.01.45 2.08.67 3.56.67 4.45v6.68c0 1.19.59 1.78 1.78 1.78h2.23c.29-.29.59-.89.89-1.78.29-.89.44-1.48.44-1.78.29-.59.45-2 .45-4.23s-.15-3.63-.45-4.23c.59 0 1.34-.29 2.23-.89.89-.59 1.48-.89 1.78-.89.89-.89 1.63-1.34 2.23-1.34v-1.78c-.6-.29-1.34-.67-2.23-1.11-.89-.44-1.63-.67-2.23-.67 0-.29-.22-.59-.67-.89-.45-.29-.82-.59-1.11-.89-.3-.59-1.27-1.7-2.89-3.34-1.63-1.63-2.45-2.59-2.45-2.89l-1.78-1.78v-5.34c0-.29.22-.51.67-.67.44-.15.81-.37 1.11-.67.29-.59 1.41-1.56 3.34-2.89 1.93-1.33 3.19-2.29 3.78-2.89.59 0 1.11-.45 1.56-1.34s.67-1.48.67-1.78c.29 0 .59-.15.89-.44.59-.59 1.04-.89 1.34-.89 0-.59.29-1.56.89-2.89.59-1.34.89-2.15.89-2.45 0-.59.07-1.33.22-2.23.15-.89.22-1.48.22-1.78 1.18 0 2.07-.29 2.67-.89.89-.59 2.15-1.26 3.78-2 1.63-.74 2.45-1.26 2.45-1.56v-13.36c0-1.18.44-1.78 1.34-1.78.59-.29 1.63-.29 3.12 0 1.48.3 2.37.44 2.67.44v-8.01c1.48 0 2.67-.45 3.56-1.34.89 0 1.7-.59 2.45-1.78.74-1.18 1.26-2.07 1.56-2.67l-.89-3.12c-.3-.29-.44-.89-.44-1.78.29 0 1.11-.22 2.45-.67 1.34-.44 2.15-.81 2.45-1.11 0-.29.29-1.11.89-2.45.59-1.34 1.18-2.3 1.78-2.89v-1.78c0-.29-.22-1.04-.67-2.23-.45-1.18-.82-2.45-1.11-3.78-.3-1.34-.52-2.59-.67-3.78-.15-1.18-.22-1.93-.22-2.23 0-.59.59-1.63 1.78-3.12 1.18-1.48 1.93-2.52 2.23-3.12h4.01c0-.59.15-1.18.45-1.78.29-.59.74-1.18 1.33-1.78.59-.29 1.56-.81 2.89-1.56 1.34-.74 2.15-1.41 2.45-2 .59 0 1.26-.37 2-1.11.74-.74 1.41-1.41 2-2 0 .89.51 2.16 1.56 3.78 1.04 1.63 1.85 2.6 2.45 2.89.59.6 1.78.89 3.56.89s2.96-.29 3.56-.89l24.49 9.79c0 .6.37 1.27 1.11 2 .74.74 1.26 1.41 1.56 2 0 .3.15.6.45.89.29.3.59.44.89.44.59.3 1.93.38 4.01.22 2.07-.15 3.26-.22 3.56-.22 0 .3.15.6.45.89.59.6 1.04.89 1.34.89s.44.15.44.44c-.6 0-1.34.08-2.23.22-.89.15-1.49.52-1.78 1.11-1.02.43-1.54.87-1.56 1.34-.14 4.35 44.65 10.1 134.35 17.26-26.11-2.87-134.85-14.74-137.02-12.59-1.19 1.18-1.56 2.45-1.56 2.45 0 .3-.08 1.11-.22 2.45-.15 1.34-.22 2.3-.22 2.89 0 .89.07 2.16.22 3.78.15 1.63.22 2.6.22 2.89 0 .6.22 1.63.67 3.12.44 1.49.81 2.53 1.11 3.12.29.3.59.67.89 1.11.29.45.59.82.89 1.11h4.01c0 .6.45 2 1.34 4.23.89 2.23 1.63 4.08 2.23 5.56.29.3.59.89.89 1.78.29.89.59 1.49.89 1.78 0 .3.37 1.11 1.11 2.45.74 1.34 1.26 2.3 1.56 2.89l.89 1.34c0 .6.37 2 1.11 4.23.74 2.23 1.26 4.08 1.56 5.57v3.12c0 .6.22 2 .67 4.23.44 2.23.67 3.64.67 4.23l.45.45c.29.3.45.52.45.67s.15.38.44.67c.29.6.74 1.19 1.34 1.78.29.6.59 2.23.89 4.9.29 2.67.59 4.31.89 4.9 0 .6.59 1.56 1.78 2.89 1.18 1.34 1.78 2.16 1.78 2.45v10.24c0 .3.29.89.89 1.78.59.89 1.04 1.33 1.34 1.33.29.6 1.56 1.78 3.78 3.56 2.23 1.78 3.49 2.97 3.78 3.56v1.34c-.3.3-1.04.6-2.23.89-1.19.3-1.93.6-2.23.89v3.12c.29.3.67.89 1.11 1.78.44.89.96 1.49 1.56 1.78l.89.89.89.89c.29.6.81 1.78 1.56 3.56.74 1.78 1.26 2.97 1.56 3.56.29 0 .59.15.89.45.59.6 1.04.89 1.33.89.59.6 1.18 1.04 1.78 1.34.29.6.59 2.38.89 5.34.29 2.97.74 4.75 1.34 5.34 0 .3 1.04.82 3.12 1.56 2.07.74 3.41 1.27 4.01 1.56.29.3.45 1.04.45 2.23 0 .6-.15 1.34-.45 2.23 0 1.19.74 1.78 2.23 1.78h1.34c.29.3.67.67 1.11 1.11.44.45.67.82.67 1.11-2.08 1.19-3.72 2-4.9 2.45-1.19.44-2.82 1.27-4.9 2.45 0 .3-.08.6-.22.89-.15.3-.22.6-.22.89v.89c0 .3.15.6.44.89l1.78 1.78c.59.3 1.34 1.04 2.23 2.23.89 1.19 1.63 2.08 2.23 2.67.29-.59.81-1.48 1.56-2.67.74-1.18 1.4-1.93 2-2.23 0-.29.29-.67.89-1.11.59-.45 1.04-.67 1.34-.67.59-.59 1.18-.89 1.78-.89 0 .6-.08 1.63-.22 3.12-.15 1.49-.22 2.53-.22 3.12-.3.3-.6.74-.89 1.34-.3.3-.44.74-.44 1.34v2.23c0 .6.15 1.19.44 1.78.29.6.59 1.04.89 1.34v6.68c0 .6.89 1.93 2.67 4.01 1.78 2.08 2.37 3.71 1.78 4.9-.3 0 .07.37 1.11 1.11 1.04.74 1.56 1.27 1.56 1.56v3.12c.29.6.89 2.3 1.78 5.12.89 2.82 1.63 4.97 2.23 6.46 0 .6-.89 2.08-2.67 4.45-1.78 2.38-2.67 3.86-2.67 4.45.59 0 1.56-.22 2.89-.67 1.34-.45 2.3-.67 2.89-.67.29.3.74.89 1.34 1.78.59.89 1.04 1.49 1.33 1.78 0 1.19.59 1.78 1.78 1.78 0 .6.44 1.04 1.34 1.34l1.78.89c0 .3.15.45.45.45h.89c.29.3.59.44.89.44 0 .6.37 2.16 1.11 4.68.74 2.53 1.41 4.23 2 5.12.29.89.74 1.86 1.34 2.89.59 1.04.89 1.71.89 2 0 .89.22 2.23.67 4.01.45 1.78.89 3.72 1.34 5.79.44 2.08.81 3.94 1.11 5.57.29 1.63.45 2.75.45 3.34.29.6.37 1.78.22 3.56-.15 1.78-.22 2.82-.22 3.12s.22.89.67 1.78c.44.89.81 1.34 1.11 1.34v3.56c-.3.29-2.16 1.18-5.56 2.67-3.42 1.48-5.27 2.52-5.57 3.12 0 .29-.22.89-.67 1.78-.44.89-.82 1.34-1.11 1.34-.6.29-1.63.67-3.12 1.11-1.49.45-2.38.67-2.67.67l-1.78.89c-1.49.89-2.23 1.04-2.23.45-.6-.3-1.04-.6-1.34-.89-.6-.3-1.19-1.04-1.78-2.23-.3-.3-.74-.82-1.34-1.56-.6-.74-1.04-1.27-1.34-1.56v-2.67ZM220.37 290.27l2.23-.45c1.18 0 1.78-.59 1.78-1.78l.44-1.34c0-.29-.08-.51-.22-.67-.15-.15-.22-.37-.22-.67v-.44c0-.59-.6-1.26-1.78-2-1.19-.74-1.93-1.26-2.23-1.56v8.9ZM220.37 300.06h2.23v-1.78h-2.23v1.78ZM228.38 276.47c-.89 0-1.34.45-1.34 1.34s.45 1.34 1.34 1.34 1.34-.45 1.34-1.34-.45-1.34-1.34-1.34ZM243.07 188.76c-.89 0-1.34.52-1.34 1.56s.44 1.56 1.34 1.56c1.18 0 1.78-.51 1.78-1.56s-.6-1.56-1.78-1.56ZM243.07 224.38c.29-.29.59-.67.89-1.11.29-.45.74-.96 1.34-1.56v-.89h-2.23v3.56ZM245.3 197.22c0-.29.15-.59.44-.89l.89-.89.45-.89-.45-1.34c-.3 0-.6-.15-.89-.45-.3-.29-.44-.59-.44-.89v5.34ZM245.3 211.91c0 .89.44 1.34 1.33 1.34.29.3.89.44 1.78.44h.89v-1.78h-4.01ZM252.42 256.88c0-.29.15-.74.45-1.34.29-.59.44-1.04.44-1.33l.45-.45c0-.29.07-.45.22-.45s.22-.15.22-.44c.59-.59 1.56-1.26 2.89-2 1.34-.74 2.3-1.26 2.89-1.56 0-.29.81-.67 2.45-1.11 1.63-.44 2.74-.67 3.34-.67.29 0 .67-.07 1.11-.22.44-.15.81-.22 1.11-.22 0 .89-.3 1.63-.89 2.23 0 .89-.45 1.34-1.34 1.34-.3.3-1.34.67-3.12 1.11-1.78.45-2.67.82-2.67 1.11-1.49 0-2.67.44-3.56 1.34-.3.3-.67.6-1.11.89-.45.3-.82.6-1.11.89v2.23c.29.3.67 1.04 1.11 2.23.45 1.19.81 1.93 1.11 2.23h-2.23c0-.29-.15-.81-.45-1.56-.3-.74-.45-1.41-.45-2-.3-.29-.44-.59-.44-.89-.3-.29-.45-.74-.45-1.34ZM254.2 225.71c1.48-.59 2.23-1.93 2.23-4.01-.3 0-.6-.15-.89-.45-.3 0-.52-.07-.67-.22-.15-.15-.37-.22-.67-.22v4.9ZM262.66 170.06c0 .3-.45.67-1.34 1.11-.89.45-1.34.82-1.34 1.11-.3 0-.44.15-.44.44s-.15.45-.45.45h3.56v-3.12ZM271.56 215.47c-.89 0-1.34.6-1.34 1.78s.45 1.78 1.34 1.78c.59 0 .89-.59.89-1.78s-.3-1.78-.89-1.78ZM290.26 170.06c0 .3.22 1.11.67 2.45.44 1.34.96 2.3 1.56 2.89l.89.89c.29.3.59.45.89.45h7.12c.29-.29.59-.74.89-1.34.29-.59.59-.96.89-1.11.29-.15.45-.51.45-1.11 0-.29.22-1.63.67-4.01.44-2.37.67-3.85.67-4.45l2.23-2.67v-5.34c-.3-.29-.67-1.04-1.11-2.23-.45-1.18-.82-2.07-1.11-2.67 0-1.18-.45-1.78-1.34-1.78 0 .3-.22.89-.67 1.78-.45.89-.97 1.34-1.56 1.34-.6.89-2.3 2.67-5.12 5.34-2.82 2.67-4.83 4.31-6.01 4.9v6.68ZM292.49 153.15h2.23c-.3 0-.45-.15-.45-.45v-.89l-.89-.89-.89-.89v3.12ZM294.27 97.5c-.89 0-1.34.6-1.34 1.78s.45 1.78 1.34 1.78c.59 0 .89-.59.89-1.78s-.3-1.78-.89-1.78ZM308.96 101.06c-.89 0-1.34.6-1.34 1.78s.45 1.78 1.34 1.78 1.34-.59 1.34-1.78-.45-1.78-1.34-1.78ZM308.96 211.91h1.78v-1.78h-1.78v1.78ZM311.63 170.96c-.6.6-.89 1.04-.89 1.34v7.57c1.18 0 1.78-.45 1.78-1.34 0-.59.29-1.7.89-3.34.59-1.63.89-2.59.89-2.89s-.3-.74-.89-1.34l-.89-.89-.89.89ZM349.03 178.52c.29.3.74.6 1.33.89.59.3 1.18.45 1.78.45.29.3.81.52 1.56.67.74.15 1.4.38 2 .67.89.3 1.78.44 2.67.44h13.36c.29 0 1.93-.29 4.9-.89 2.96-.59 4.9-.89 5.79-.89.59 0 2.45.3 5.57.89 3.12.6 4.82.89 5.12.89h4.01c0-.59-.08-2.15-.22-4.67-.15-2.52-.52-4.08-1.11-4.67 0-.89-.82-2.59-2.45-5.12-1.63-2.52-2.89-4.23-3.78-5.12 0-.29-.45-.89-1.34-1.78-.89-.89-1.63-1.48-2.23-1.78-.3-.59-.82-1.7-1.56-3.34-.74-1.63-1.41-2.74-2-3.34-.6-.29-1.04-1.11-1.33-2.45-.3-1.34-.45-2.15-.45-2.45-.3-.29-1.04-1.11-2.23-2.45-1.19-1.33-1.78-2.15-1.78-2.45-.3-.29-.82-1.34-1.56-3.12-.74-1.78-1.63-3.71-2.67-5.79-1.04-2.07-2.08-4.23-3.12-6.45-1.04-2.23-1.86-3.93-2.45-5.12 0-.59-.82-2.59-2.45-6.01-1.63-3.41-2.6-5.86-2.89-7.35-.3-.59-.6-1.34-.89-2.23l-.89-2.67-.89-1.78c-.3-.59-.45-1.18-.45-1.78s-.3-2.07-.89-4.45c-.6-2.37-.89-3.71-.89-4.01-.3-.29-.74-1.04-1.34-2.23-.3-.59-.74-1.04-1.34-1.34v-3.12c-.3-.59-.82-1.18-1.56-1.78-.74-.59-1.41-1.04-2-1.34l-.89-.45c-.3 0-.44.15-.44.45-.3.6-.82 1.86-1.56 3.78-.74 1.93-1.11 3.19-1.11 3.78v2.23c0 .3.45.82 1.34 1.56.89.74 1.34 1.27 1.34 1.56 0 .6-.08 1.56-.22 2.89-.15 1.34-.08 2.16.22 2.45 0 .6.15 1.19.44 1.78l.89 1.78v12.02c-.3-.29-1.11-.67-2.45-1.11-1.34-.45-2.3-.81-2.89-1.11h-2.67v1.78c0 .6.15 1.04.44 1.34.59.6 1.26 1.49 2 2.67.74 1.19 1.26 2.08 1.56 2.67h-1.34c-.6-.29-1.93-.89-4.01-1.78-2.08-.89-3.42-1.48-4.01-1.78h-1.78l-.89.89c-.3.3-.45.6-.45.89h-2.23c-.6-.29-1.04-.89-1.33-1.78-.3-.89-.45-1.48-.45-1.78h-5.79l1.78 5.34c.29.3 1.63.82 4.01 1.56 2.37.74 3.71 1.27 4.01 1.56v5.34c0 .6.37 1.49 1.11 2.67.74 1.19 1.4 1.93 2 2.23l-.89.89-.89.89c0 .6-.44 2.3-1.34 5.12-.89 2.82-1.63 4.53-2.23 5.12l-.89.89-.89.89c-.3.6-.6 1.04-.89 1.34-.3.6-.6.97-.89 1.11-.3.15-.45.38-.45.67-.3.6-.67 1.49-1.11 2.67-.44 1.19-.67 1.93-.67 2.23-.89 0-1.34-.59-1.34-1.78-.3-.59-.38-1.93-.22-4.01.15-2.07.22-3.41.22-4.01s-.38-1.26-1.11-2c-.74-.74-1.27-1.11-1.56-1.11l-1.56 1.56c-.74.74-1.41 1.27-2 1.56-.3.3-.52.82-.67 1.56-.15.74-.22 1.27-.22 1.56-.3.6-.44 1.34-.44 2.23v4.01c0 .6.07 1.63.22 3.12.15 1.49.22 2.38.22 2.67 0 .6.07 1.93.22 4.01.15 2.08.37 3.42.67 4.01l3.56-6.68h1.78c0 .3.15.82.44 1.56.29.74.45 1.41.45 2-.3.6-.82 1.71-1.56 3.34-.74 1.63-1.11 2.6-1.11 2.89v2.23c.89.89 1.63 1.49 2.23 1.78.59.6 1.18 1.04 1.78 1.34h16.92c0 .3.29.6.89.89.59.3 1.04.45 1.34.45.59 0 1.18-.15 1.78-.45 1.18-.59 1.93-.89 2.23-.89ZM324.54 48.97v-1.33h-2.67l2.67 1.33ZM331.67 104.62l2.23-1.34h-2.23v1.34ZM346.36 179.86c-.6 0-.89.52-.89 1.56s.29 1.56.89 1.56c1.48 0 2.23-.51 2.23-1.56s-.74-1.56-2.23-1.56ZM371.73 190.54c0-.89-.45-1.34-1.34-1.34s-1.34.45-1.34 1.34c.89.89 1.78.89 2.67 0ZM399.34 190.54c.29-.89.07-1.34-.67-1.34s-1.11.45-1.11 1.34c.59.6 1.18.6 1.78 0ZM399.34 184.76c-.89 0-1.34.67-1.34 2s.45 2 1.34 2 1.34-.67 1.34-2-.45-2-1.34-2ZM751.03 335.23c-2.38 0-3.56 1.34-3.56 4.01 0-1.49-.38-2.53-1.11-3.12-.74-.6-1.64-.97-2.67-1.11-1.04-.15-1.94-.45-2.67-.89-.74-.45-.97-1.11-.67-2h5.34c-.3-.3-.3-.6 0-.89.29-.3.29-.45 0-.45 0-.6-.15-1.27-.44-2-.3-.74-.44-1.27-.44-1.56 0-1.19.44-1.78 1.33-1.78h4.9c-.3-1.49-1.04-2.53-2.23-3.12-1.19-.6-2.38-.89-3.56-.89-2.08-.3-3.42.29-4.01 1.78-.6 1.48-.75 2.96-.45 4.45-2.08 0-4.97-1.11-8.68-3.34-3.71-2.23-7.5-4.9-11.35-8.01-3.86-3.12-7.2-6.16-10.02-9.13-2.83-2.97-4.38-5.34-4.67-7.12l-13.36-.89c0 .59-.3 1.48-.89 2.67-.6 1.18-1.19 2.07-1.78 2.67h-.89c-.6 0-1.11-.52-1.56-1.56-.44-1.04-.97-2.23-1.56-3.56-.6-1.34-1.19-2.59-1.78-3.78-.6-1.18-1.33-1.93-2.22-2.23l-1.34.45c-.3 0-.97.22-2 .67-1.04.44-1.71.82-2 1.11l-.89-.45c-.89 0-2.83-1.26-5.79-3.78-2.97-2.52-6.17-5.41-9.57-8.68-3.42-3.26-6.76-6.38-10.02-9.35-3.27-2.96-5.5-4.9-6.68-5.79-.3 0-1.19-.22-2.67-.67-1.49-.45-2.97-.81-4.45-1.11-1.49-.29-3.56-.89-6.23-1.78-3.56-1.18-6.83-3.34-9.79-6.46-2.97-3.12-5.86-6.46-8.68-10.02-2.82-3.56-5.5-7.05-8.01-10.46-2.53-3.41-4.83-6.3-6.9-8.68-1.78-2.07-3.42-3.78-4.9-5.12-1.49-1.34-2.75-2.74-3.78-4.23-1.04-1.48-1.78-3.19-2.23-5.12-.44-1.93-.67-4.68-.67-8.24v-.44c.29 0 .74-.29 1.34-.89l.89-.89.89-.89c0-.29-.97-1.56-2.89-3.78-1.93-2.23-2.75-4.52-2.45-6.9 0-3.26.67-5.93 2-8.01 1.34-2.07 2.89-3.85 4.67-5.34 1.78-1.48 3.56-3.04 5.34-4.67 1.78-1.63 3.12-3.78 4.01-6.46 3.56-1.48 7.19-2.89 10.91-4.23 3.71-1.34 7.19-2.89 10.46-4.68 2.96-1.78 4.67-3.19 5.12-4.23.44-1.04.89-1.85 1.34-2.45.44-.59 1.4-1.18 2.89-1.78 1.48-.59 4.6-1.18 9.35-1.78.3.3 1.04.44 2.23.44 1.18.3 2.15.52 2.9.67.74.15 1.56 1.27 2.45 3.34.29-.59 1.26-1.78 2.89-3.56 1.63-1.78 3.41-3.63 5.34-5.57 1.93-1.93 3.63-3.71 5.12-5.34 1.48-1.63 2.37-2.45 2.67-2.45 2.07-.29 4.23-.15 6.46.44 2.23.6 4.08.15 5.56-1.33.59-.29.67-1.18.22-2.67-.44-1.48-.38-2.37.22-2.67 1.48-1.48 3.79-2.45 6.9-2.89 3.12-.45 5.41-1.41 6.9-2.89.29-.59.52-1.34.67-2.23.15-.89.22-1.48.22-1.78s.81-1.04 2.45-2.23c1.62-1.18 3.48-2.52 5.56-4.01 2.07-1.48 4.15-2.89 6.23-4.23 2.07-1.33 3.56-2.45 4.45-3.34 0-.59.59-1.56 1.78-2.89 1.18-1.34 2.45-2.67 3.79-4.01 1.33-1.34 2.52-2.52 3.56-3.56 1.04-1.04 1.7-1.7 2-2 .59 0 1.34-1.48 2.23-4.45.89-2.96 2.23-4.45 4.01-4.45l.45.45c0 .3.15.44.44.44l2.67 7.12h.89c1.48.3 2.59-.51 3.34-2.45.74-1.93 1.26-3.49 1.56-4.68v-1.33c.29-1.48-.82-3.49-3.34-6.01-2.53-2.52-4.67-3.63-6.46-3.34-.6 0-1.26.52-2 1.56-.74 1.04-1.27 1.86-1.56 2.45h-2.23c0-2.37.45-4.6 1.34-6.68.89-2.07 1.33-4.3 1.33-6.68v-.89c-1.19 1.49-2.83 2.67-4.89 3.56-2.08.89-3.86 1.78-5.34 2.67l-3.12-10.24h-1.78c-.6 2.38-1.33 4.61-2.23 6.68-.89 2.08-2.08 4.45-3.56 7.12-2.97-2.67-5.86-5.86-8.68-9.57-2.83-3.71-6.61-5.57-11.35-5.57-3.27-.29-5.94 0-8.01.89-2.08.89-3.12 3.42-3.12 7.57h.44c-1.49-1.18-2.08-1.85-1.78-2 .3-.15.59-.81.89-2l-12.91-.44-.44-.45c-.6-.59-1.04-.89-1.33-.89l-.89-.45-.89.45-1.33 1.34-.89.44c-.3 0-.44-.15-.44-.44l-.44-.45c-.6-1.18-1.63-3.04-3.12-5.56-1.49-2.52-2.53-4.68-3.12-6.46-.3.3-.89.97-1.78 2-.89 1.04-2 2.16-3.34 3.34-1.34 1.19-2.67 2.23-4.01 3.12-1.33.89-2.6 1.49-3.78 1.78.29-3.26.15-6.38-.44-9.35-.6-2.96-1.94-5.79-4.01-8.46-.6.6-1.33 2.3-2.23 5.12-.89 2.82-1.33 4.53-1.33 5.12 0 .3.29 1.11.89 2.45.59 1.34.74 2.3.44 2.89l.45 1.33-.45.89c-.3.6-.82 1.04-1.56 1.33-.74.3-1.41.6-2 .89 0-.89-.15-2.89-.44-6.01-.3-3.12-.74-5.12-1.33-6.01.59-.59.67-1.18.22-1.78-.44-.59-.82-1.04-1.11-1.34h-1.33c0 .3-.15 1.19-.45 2.67-.3 1.49-.74 2.97-1.34 4.45-.6 1.49-1.34 2.89-2.23 4.23-.89 1.34-1.93 2-3.12 2l-.89-.44c-.3 0-.52-.59-.67-1.78-.15-1.18-.38-1.78-.67-1.78 0-.29-.52-.07-1.56.67-1.04.74-1.71 1.11-2 1.11 0 1.19.29 2.45.89 3.78.59 1.34.89 2.75.89 4.23-1.49 0-2.75-.67-3.78-2-1.04-1.34-2.3-2.15-3.78-2.45-.3-.29-.67-.51-1.11-.67-.44-.15-.97-.37-1.56-.67-.89-.29-1.63-.59-2.23-.89l-4.9 8.46h-12.46l-1.78.89c.29 3.27.07 7.57-.67 12.91-.74 5.34-2.6 9.2-5.56 11.57-.6.6-1.19.89-1.78.89h-.89l.45-7.57c-.3 0-.6-.15-.89-.44-.3 0-.6-.07-.89-.22-.3-.15-.6-.22-.89-.22-1.19.6-2.08 1.78-2.67 3.56-.6 1.78-.89 3.27-.89 4.45-.3 3.27.51 5.79 2.45 7.57 1.93 1.78 2.74 4.31 2.45 7.57-5.05-.29-7.72 2.38-8.01 8.01h-1.78l-.44 4.9 4.45-3.56c.89 2.38 2.15 4.75 3.79 7.12 1.63 2.38 2.59 4.75 2.89 7.12-.6 1.19-.89 1.93-.89 2.23s-.52.97-1.56 2c-1.04 1.04-1.71 1.86-2 2.45-.6.6-.97 2.3-1.11 5.12-.15 2.82.07 4.53.67 5.12-.3-.59-.82-1.18-1.56-1.78-.74-.59-1.27-1.18-1.56-1.78l-.89-.45-.89.45c-.3 0-.74.38-1.33 1.11-.6.74-1.04 1.11-1.34 1.11l.44.44c0 2.38.07 4.83.22 7.35.15 2.53.67 4.97 1.56 7.35.89 2.38 2.23 4.38 4.01 6.01 1.78 1.63 4.15 2.45 7.12 2.45 0 2.67-.45 4.97-1.34 6.9-.89 1.93-1.78 3.56-2.67 4.9s-1.71 2.6-2.45 3.78c-.74 1.19-1.11 2.67-1.11 4.45v.89c.59.6 1.11 1.34 1.56 2.23.44.89.96 1.49 1.56 1.78v9.35c.29 3.56-.38 6.61-2 9.13-1.63 2.53-2.6 5.42-2.89 8.68.29 2.08 1.48 4.01 3.56 5.79 2.07 1.78 3.12 3.71 3.12 5.79 0 .3-.08.67-.22 1.11-.15.45-.22.97-.22 1.56 0 .3-.08 1.93-.22 4.9-.15 2.97-.38 6.16-.67 9.57-.3 3.42-.67 6.68-1.11 9.79-.45 3.12-.67 4.83-.67 5.12v1.78c.59.6 1.7 1.11 3.34 1.56 1.63.45 2.45 1.41 2.45 2.89 0 1.19-.3 1.86-.89 2-.6.15-1.11.44-1.56.89s-.97 1.11-1.56 2c-.6.89-.89 2.67-.89 5.34v.89c1.48-1.48 2.07-2.52 1.78-3.12-.3-.59.59-.89 2.67-.89 0 .6-.08 2.3-.22 5.12-.15 2.83-.38 4.53-.67 5.12-.3 1.49-1.93 3.72-4.9 6.68-2.97 2.96-5.64 4.9-8.01 5.79-2.38 2.67-4.08 4.9-5.12 6.68-1.04 1.78-2.45 2.67-4.23 2.67-2.08 0-4.08-.44-6.01-1.33-1.93-.89-3.78-1.49-5.57-1.78l.89-20.92c0-.59-.6-1.18-1.78-1.78-1.19-.59-2.23-4.23-3.12-10.91-.89-6.68-1.56-14.17-2-22.48-.44-8.31-.67-16.17-.67-23.6s.29-12.17.89-14.25c-.6-.59-1.27-2.74-2-6.45-.74-3.71-1.56-8.24-2.45-13.58-.89-5.34-1.63-11.13-2.23-17.36-.6-6.23-1.19-12.17-1.78-17.81-.6-5.63-1.11-10.53-1.56-14.69-.44-4.15-.67-6.82-.67-8.01v-2.89c0-1.63-.08-3.34-.22-5.12-.15-1.78-.22-3.49-.22-5.12v-2.89c0-.59.07-2 .22-4.23.15-2.23.29-4.6.45-7.12.15-2.52.37-4.82.67-6.9.29-2.07.44-3.41.44-4.01v-1.78c-.89-5.04-1.86-9.79-2.89-14.25-1.04-4.45-1.41-9.2-1.11-14.25.29-2.07.89-2.96 1.78-2.67.89.3 1.78.44 2.67.44l.44-8.9 11.13.89 2.67-3.56-13.8-.45c-.3-2.07.52-3.41 2.45-4.01 1.93-.59 4.08-2.67 6.45-6.23 0-.29.07-.67.22-1.11.15-.45.37-.52.67-.22l4.45 3.12c.59-4.15 2.45-7.57 5.57-10.24s5.41-6.08 6.9-10.24c.59-1.78 2.07-2.96 4.45-3.56 2.37-.59 4.6-.74 6.68-.44 1.48 0 2.67.3 3.56.89.89.6 2.37.89 4.45.89 1.18.3 2.45.3 3.78 0 1.34-.29 2.3-1.34 2.89-3.12-.3-.89-.97-1.56-2-2-1.04-.44-2.16-.96-3.34-1.56 2.37 0 4.23-.89 5.56-2.67 1.34-1.78 2.74-2.67 4.23-2.67.89 0 1.78.67 2.67 2 .89 1.34 1.85 2.82 2.89 4.45 1.04 1.63 2 3.27 2.89 4.9.89 1.63 1.78 2.89 2.67 3.78.89-.29 1.63-1.7 2.23-4.23.59-2.52 1.33-5.12 2.23-7.79.89-2.67 1.85-5.12 2.89-7.35 1.04-2.23 2.29-3.34 3.78-3.34-.3 5.64-1.63 11.28-4.01 16.92-2.38 5.64-3.86 11.13-4.45 16.47-.6 6.23 1.93 9.35 7.57 9.35 0-3.56.45-6.68 1.34-9.35.89-2.67 1.48-5.63 1.78-8.9l-3.12-.45c0-2.96.67-5.12 2-6.45 1.34-1.34 2.67-2.23 4.01-2.67 1.34-.45 2.52-.96 3.56-1.56 1.04-.59 1.41-1.78 1.11-3.56 1.78 1.19 2.96 1.56 3.56 1.11.59-.45 1.78-.52 3.56-.22v-6.23c-.89 1.78-2.08 2.38-3.56 1.78.29-1.18.51-3.04.67-5.56.15-2.52.96-3.63 2.45-3.34 1.48 0 3.56.6 6.23 1.78 2.67 1.19 4.74 2.23 6.23 3.12h.89c.29-.29.59-.45.89-.45.29-.29.81-.89 1.56-1.78.74-.89 1.4-1.63 2-2.23h.89l.44.45c.29 2.97.67 4.97 1.11 6.01.44 1.04.96 1.63 1.56 1.78.59.15 1.33.22 2.22.22s2.07.3 3.56.89c.29 0 1.18.67 2.67 2 1.48 1.34 2.37 2.16 2.67 2.45 1.78.3 3.27-.15 4.45-1.34 1.18-1.18 2.07-2.67 2.67-4.45.59-1.78 1.18-3.63 1.78-5.57.59-1.93 1.18-3.34 1.78-4.23l8.46 8.9c1.78-.89 2.96-.29 3.56 1.78-.6.6-1.33 1.19-2.23 1.78-.89.6-1.49 1.19-1.78 1.78l.89 1.78c1.18.3 2.29.45 3.34.45s1.4 1.04 1.11 3.12h-2.67c.29.89.07 1.78-.67 2.67-.74.89-.38 1.63 1.11 2.23.29-.59 1.4-1.18 3.34-1.78 1.93-.59 3.19-.89 3.79-.89h1.78l-5.34 6.23-5.34 6.23v.89c.29.3.52 1.34.67 3.12.15 1.78.37 2.97.67 3.56h-4.9c-.3 1.49-.3 2.97 0 4.45.29 1.49 1.33 2.67 3.12 3.56.59-.59 1.48-1.56 2.67-2.89 1.18-1.34 2.37-2 3.56-2 .59.3 1.34.67 2.23 1.11.89.45 1.48.97 1.78 1.56l.45-14.25c2.07 0 4.01.74 5.79 2.23 1.78 1.49 3.41 3.12 4.89 4.9 1.48 1.78 2.82 3.42 4.01 4.9 1.18 1.49 2.37 2.23 3.56 2.23l-.44-3.56c1.48 0 2.89-.45 4.23-1.34 1.34-.89 1.85-2.07 1.56-3.56-1.19.89-2.53.89-4.01 0-1.49-.89-3.05-2.07-4.67-3.56-1.63-1.48-2.97-2.96-4.01-4.45-1.04-1.48-1.71-2.67-2-3.56l5.79.44.89-1.78c.59-.89.44-1.78-.44-2.67 0-.59-.3-1.48-.89-2.67-.6-1.18-1.19-2.07-1.78-2.67l10.24-4.9c0 .6-.22 1.56-.67 2.89-.44 1.34-.82 2.16-1.11 2.45v1.33c0 2.38 1.03 3.72 3.12 4.01 2.07 0 4.01-.29 5.79-.89 1.78-.59 2.82-2.07 3.12-4.45v-.89c0-.29-.08-.89-.22-1.78-.15-.89-.37-1.48-.67-1.78l-.44-2.23c2.07 0 3.56.52 4.45 1.56.89 1.04 1.56 2.16 2 3.34.44 1.19.81 2.38 1.11 3.56.29 1.19.89 2.08 1.78 2.67 2.37 1.19 4.45 1.78 6.23 1.78s3.41 1.34 4.9 4.01c-1.19 0-1.86.45-2 1.34-.15.89-.22 1.63-.22 2.23v3.56c0 .89.44 1.78 1.34 2.67 2.07-.29 4.01-1.78 5.79-4.45 1.78-2.67 2.96-5.04 3.56-7.12 4.45 4.45 6.82 9.95 7.12 16.47.3 6.53.89 12.62 1.78 18.25.29 1.49 1.03 2.67 2.23 3.56 1.18.89 2.45 1.78 3.78 2.67 1.34.89 2.52 1.78 3.56 2.67 1.03.89 1.56 2.23 1.56 4.01 0 .3-.08.82-.22 1.56-.15.74-.44 1.56-.89 2.45s-.97 1.63-1.56 2.23c-.6.6-1.34.74-2.23.45-1.49-.59-2.6-2-3.34-4.23-.74-2.23-1.26-3.78-1.56-4.67l-2.22 5.34 10.24 10.24v1.78c0 .3.15.45.44.45-.3 2.08-1.63 4.31-4.01 6.68-2.38 2.38-4.31 3.86-5.79 4.45 1.18 1.19 2.74 2.38 4.67 3.56 1.93 1.19 2.74 2.53 2.45 4.01 0 .6-.3 1.19-.89 1.78-.6-.59-2.23-1.34-4.9-2.23s-4.45-1.34-5.34-1.34v-.44c-1.78-.29-2.97.89-3.56 3.56-.6 2.67-1.19 4.16-1.78 4.45-.3.3-1.04.37-2.23.22-1.19-.15-2.08-.22-2.67-.22-.6.3-1.49 1.04-2.67 2.23-1.19 1.19-2.08 2.08-2.67 2.67l-.44.89c0 1.19.29 2.08.89 2.67.59.6 1.04 1.78 1.34 3.56-.3 2.97-1.04 5.79-2.23 8.46-1.19 2.67-2.53 5.64-4.01 8.9-1.49-.89-2.75-1.63-3.79-2.23-1.04-.59-2.3-.74-3.79-.45-2.38-.29-3.86.52-4.45 2.45-.6 1.93-1.11 4.16-1.56 6.68-.44 2.53-.97 4.9-1.56 7.12-.6 2.23-1.78 3.64-3.56 4.23l.89-20.92c.29-1.18-.15-1.56-1.34-1.11-1.19.45-2.08.67-2.67.67-.3.3-.15.97.44 2 .59 1.04.74 1.86.44 2.45l-1.34 1.34-17.36-.45c.89 1.49 2.52 2.97 4.89 4.45 2.37 1.49 3.41 3.12 3.12 4.9-2.08 0-4.45.74-7.12 2.23-2.67 1.49-3.27 3.86-1.78 7.12-2.67-2.07-3.71-5.04-3.12-8.9v-2.23c.59 0 1.78-.22 3.56-.67s2.97-.52 3.56-.22c-.6-.29-2.08-.81-4.45-1.56-2.38-.74-3.86-.96-4.45-.67h-1.34c-2.38-.29-3.56.3-3.56 1.78v4.9c-.3 2.97.37 5.57 2 7.79 1.63 2.23 2.45 4.67 2.45 7.35l-.44.89c-.6.6-2.22 1.04-4.89 1.34-2.67.3-4.45.3-5.34 0-.89-.59-2.67-1.85-5.34-3.79-2.67-1.93-4.3-3.19-4.9-3.78v9.13c0 2.53.89 4.08 2.67 4.67l-.89 15.14c-5.34-.29-7.87-1.63-7.57-4.01.29-2.37.59-5.63.89-9.79-.6 0-1.64.38-3.12 1.11-1.49.74-2.53.97-3.12.67-.3-.59-.52-1.78-.67-3.56-.15-1.78-.37-2.96-.67-3.56.3-.59.22-1.18-.22-1.78-.44-.59-.82-1.04-1.11-1.34 2.96 1.19 4.82 1.04 5.56-.44.74-1.48 1.11-3.12 1.11-4.9l-12.46-.44c-.3 1.49-.44 2.82-.44 4.01-.3 1.19-.44 2.38-.44 3.56s-.15 2.23-.45 3.12v4.9c0 2.38.59 4.31 1.78 5.79 1.18 1.49 2.67 2.82 4.45 4.01 1.78 1.19 3.56 2.45 5.34 3.78 1.78 1.33 3.41 2.89 4.9 4.67 2.37-1.48 4.75-2.23 7.12-2.23 1.48.3 2.52 1.27 3.12 2.89.59 1.63 1.04 3.34 1.34 5.12l12.02.44c.59 0 1.56.97 2.89 2.89 1.34 1.93 2.15 3.34 2.45 4.23 0 .89-.22 2.82-.67 5.79-.44 2.97-.82 4.9-1.11 5.79h2.67c.59-2.37 1.18-4.3 1.78-5.79.59-1.48 2.07-3.41 4.45-5.79.29 0 .52.3.67.89.15.6.07 1.04-.22 1.34v1.34c0 .3-.07 1.04-.22 2.23-.15 1.19-.38 2.08-.67 2.67l-.44.89c0 2.08.74 3.78 2.22 5.12 1.48 1.34 3.19 2.75 5.12 4.23 1.92 1.49 3.63 3.12 5.12 4.9 1.48 1.78 2.07 4.16 1.78 7.12.29 1.49.22 2.45-.22 2.89-.44.44-.67 1.41-.67 2.89 1.48-.29 2.96-1.04 4.45-2.23 1.48-1.18 3.26-1.63 5.34-1.34l.89.45h.44c.29.3.67 1.11 1.11 2.45s.81 2.3 1.11 2.89c0 .89.44.89 1.33 0 .29 0 .59-.15.89-.45-.3-4.15-.44-6.97-.44-8.46s2.07-1.93 6.23-1.34c.59-.29 1.26-.29 2.01 0 .74.3 1.4.45 2 .45 0 .89.37 1.86 1.11 2.89.74 1.04 1.4 1.86 2 2.45 1.18-2.96 3.12-4.15 5.79-3.56 0 5.94.29 9.57.89 10.91.59 1.33 1.63 1.93 3.12 1.78 1.48-.15 3.34-.29 5.56-.45 2.23-.15 4.97 1.27 8.24 4.23l.44.89-.44.89c0 .3-.22.52-.67.67-.44.15-.82.38-1.11.67.59-.29 2.07-.37 4.45-.22 2.37.15 3.71.38 4.01.67.29 0 .59.3.89.89.29.6.44 1.04.44 1.34h1.34c1.48.3 2.15-.59 2-2.67-.15-2.07.67-2.96 2.45-2.67h1.78c-.3.3-.67.89-1.11 1.78s-.97 1.49-1.56 1.78c.29.3.67.74 1.11 1.34.44.6.81.74 1.11.45.29-.29.74-.59 1.33-.89l1.78-.89c1.78-.29 3.85.38 6.23 2 2.37 1.63 3.56 3.34 3.56 5.12-2.67 0-5.27-.22-7.79-.67-2.53-.45-5.42-.81-8.68-1.11v1.33c2.96 1.19 5.26 2.75 6.9 4.68 1.63 1.93 3.12 3.86 4.45 5.79 1.33 1.93 2.74 3.78 4.23 5.57 1.48 1.78 3.56 3.27 6.23 4.45 2.07-1.48 3.56-3.41 4.45-5.79.89-2.37 1.34-4.74 1.34-7.12 0-.89-.38-1.48-1.11-1.78-.74-.29-.97-1.18-.67-2.67 2.37 0 3.86.6 4.45 1.78.29 1.49.66 4.38 1.11 8.68.44 4.31.66 7.05.66 8.24l-.44 1.33v.89c-.89 1.48-1.86 2.37-2.89 2.67-1.05.29-1.86 1.63-2.45 4.01-.3 1.18-.66 3.71-1.11 7.57-.44 3.85-.66 6.38-.66 7.57h-2.23c-.3 0-1.11-.3-2.45-.89-1.34-.6-2.31-1.04-2.9-1.34-.6 0-1.11.22-1.56.67-.44.44-.37.96.22 1.56l3.12 5.34-.44 16.92c0 .29-.75.74-2.23 1.33-.6.59-2 .89-4.23.89s-3.79.29-4.67.89v3.12c-.3 0-1.11-.38-2.45-1.11-1.34-.74-2.83-1.56-4.45-2.45-1.63-.89-3.19-1.86-4.67-2.89-1.49-1.04-2.67-1.86-3.56-2.45-1.49-1.49-2-2.53-1.56-3.12.44-.6-.08-1.04-1.56-1.34ZM527.1 72.12c0 1.19.29 2.53.89 4.01.59 1.49 1.63 2.08 3.12 1.78v-6.23l-4.01.44ZM531.11 111.74c-.3.89.15 1.93 1.34 3.12l.45-3.12h-1.78ZM535.11 304.96c-.3 1.48 0 2.45.89 2.89.89.45 1.78.81 2.67 1.11h.89c.59-.3 1.11-1.11 1.56-2.45.45-1.34.81-2.16 1.11-2.45v-.89c0-2.38-1.19-3.56-3.56-3.56-1.49-.3-2.45.22-2.89 1.56-.45 1.34-.67 2.59-.67 3.79ZM539.57 40.96c-.6-.29-.89 0-.89.89s.29 1.34.89 1.34c.29-.29.44-.74.44-1.34s-.15-.89-.44-.89ZM541.79 180.3c-.3 2.38.22 4.31 1.56 5.79 1.34 1.49 3.04 2.23 5.12 2.23 0-4.45-2.23-7.12-6.68-8.01ZM544.02 290.27c-.6 0-.89.52-.89 1.56s.29 1.56.89 1.56c.89 0 1.34-.51 1.34-1.56s-.45-1.56-1.34-1.56ZM547.58 80.13l4.01-.44.45-3.56-4.01.44-.44 3.56ZM548.02 115.75h2.23v-1.78h-2.23v1.78ZM551.14 293.83c-.89 0-1.41.6-1.56 1.78-.15 1.19.22 1.78 1.11 1.78.59 0 .96-.59 1.11-1.78.15-1.18-.08-1.78-.67-1.78ZM549.81 196.78l4.01-3.12-3.56-.44-.44 3.56ZM552.92 133.11c0 .6.15 1.56.44 2.89.29 1.34.45 2.16.45 2.45l1.34.45.89-.45c-.3-.89-.52-2.15-.67-3.78-.15-1.63-.97-2.74-2.45-3.34v1.78ZM553.37 29.83c0-.59-.08-.15-.22 1.34-.15 1.49.07 2.08.67 1.78v-1.78c0-.59-.15-1.04-.45-1.34ZM554.7 126.88c-.3-.59-.6-.45-.89.44-.3.89-.3 1.19 0 .89.59-.29 1.04-.59 1.34-.89.29-.29.15-.44-.45-.44ZM553.81 176.74c0 1.19.74 2.23 2.23 3.12v-3.12h-2.23ZM555.15 74.79c.59 1.19 1.48 1.86 2.67 2 1.18.15 2.07.22 2.67.22v-2.23h-5.34ZM559.15 54.31c0 .89.29 1.78.89 2.67.59.89 1.34 1.34 2.23 1.34l.45-4.01h-3.56ZM562.27 33.39c-.6-.29-.89-.07-.89.67s.29 1.11.89 1.11c.59-.29.89-.67.89-1.11s-.3-.67-.89-.67ZM564.05 63.22c-.6 1.19-.08 2.38 1.56 3.56 1.63 1.19 3.04 1.78 4.23 1.78.29 0 1.18-.52 2.67-1.56 1.48-1.04 3.04-2.23 4.67-3.56 1.63-1.34 3.12-2.74 4.45-4.23 1.34-1.48 2-2.67 2-3.56 0-1.18-.6-2.07-1.78-2.67-.89.6-2.16 1.19-3.79 1.78-1.63.6-3.42 1.34-5.34 2.23-1.93.89-3.71 1.86-5.34 2.89-1.63 1.04-2.75 2.16-3.34 3.34ZM568.5 37.4h1.78v-6.68h-1.78v6.68ZM586.76 60.55c1.18-.29 1.85-.81 2-1.56.15-.74.37-1.7.67-2.89 0-.59-.08-1.34-.22-2.23-.15-.89-.97-1.48-2.45-1.78v8.46ZM605.01 30.27c-.6.89-.74 1.86-.45 2.89.29 1.04 1.04 1.71 2.23 2 1.18-.59 1.85-1.41 2-2.45.15-1.04.51-2 1.11-2.89l-4.9.44ZM617.03 166.95c.29.89 1.18 1.63 2.67 2.23l.89-2.23h-3.56ZM618.81 8.46c-.89-.29-1.41.15-1.56 1.34-.15 1.19.22 1.93 1.11 2.23.59 0 .96-.59 1.11-1.78.15-1.18-.07-1.78-.67-1.78ZM621.93 23.15c-.3 1.19.59 2.82 2.67 4.9l1.34-1.78c-.6-1.18-1.94-2.23-4.01-3.12ZM624.15 14.25c.3.6.44 1.49.44 2.67s.59 1.93 1.78 2.23l1.33-5.34-3.56.45ZM625.93 190.99l.44-1.78h-1.78l1.34 1.78ZM625.49 160.27c-.3-.29-.44-.15-.44.44s.15.89.44.89c.59-.29.89-.59.89-.89s-.3-.44-.89-.44ZM626.82 174.07c-.6-.29-.89-.15-.89.45s.29.89.89.89c.59-.29.89-.59.89-.89s-.3-.45-.89-.45ZM627.27 34.72c.3.6.59 1.04.89 1.34l.89 1.78h.89l.44.44-.44-10.68c-.6.6-1.19 1.78-1.78 3.56-.6 1.78-.89 2.97-.89 3.56ZM634.39 166.06c-.89 0-1.49.52-1.78 1.56-.3 1.04 0 1.56.89 1.56.59 0 1.04-.52 1.34-1.56.29-1.04.15-1.56-.44-1.56ZM639.29 197.22c-.89-.29-1.33.15-1.33 1.34s.44 1.93 1.33 2.23c.89 0 1.34-.59 1.34-1.78s-.44-1.78-1.34-1.78ZM643.3 157.6c-.3-.29-.52 0-.67.89-.15.89-.22 1.78-.22 2.67v2.45c0 .74.15.97.45.67.59-.29.89-1.34.89-3.12s-.15-2.96-.44-3.56ZM645.08 18.25c-.6-.29-.82.22-.66 1.56.15 1.34.51 2.16 1.11 2.45.89-.29 1.26-1.11 1.11-2.45-.15-1.33-.66-1.85-1.56-1.56ZM646.41 31.61v6.68c0 2.38 1.62 3.42 4.89 3.12v-2.67c0-1.48-.07-3.04-.22-4.68-.15-1.63-.6-3.12-1.34-4.45-.74-1.33-1.86-2.29-3.34-2.89.29.6.44 1.41.44 2.45s-.15 1.86-.44 2.45ZM648.64 157.15c-.3 1.19-.45 2.38-.45 3.56s.74 2.08 2.23 2.67c0-.29.15-.45.44-.45.89-.59 1.56-1.93 2-4.01.45-2.07 1.41-3.12 2.9-3.12l.89.44c1.18.89 2 1.63 2.45 2.23.44.6.74 1.04.89 1.34.15.3.44.45.89.45h2.9c.29-2.96-.38-5.49-2.01-7.57-1.63-2.07-4.23-3.26-7.79-3.56-.6 0-1.63 1.04-3.12 3.12-1.49 2.08-2.22 3.71-2.22 4.9ZM654.42 20.03c-1.78-.29-2.97.08-3.56 1.11-.6 1.04-1.19 2.6-1.78 4.67 2.07.3 3.48-.22 4.23-1.56.74-1.33 1.11-2.74 1.11-4.23ZM651.31 209.69l1.78-1.34-1.78-2.23v3.56ZM653.54 192.32l1.78-1.78h-1.78v1.78ZM657.99 9.79c-.6-.29-.97-.07-1.11.67-.15.74.07 1.11.66 1.11.59-.29.96-.67 1.11-1.11.15-.45-.07-.67-.66-.67ZM664.22 58.77c.59-.59.44-.89-.44-.89s-1.34.3-1.34.89c.29.3.67.44 1.11.44s.67-.15.67-.44ZM662.88 221.71l1.78.45v-4.9l-1.78-.45v4.9ZM667.34 274.24c.59-.59.59-.89 0-.89s-1.04.3-1.34.89c0 .6.15.89.44.89s.59-.29.89-.89ZM670.45 281.36c-.6-.29-.89.08-.89 1.11s.29 1.71.89 2c.89 0 1.33-.51 1.33-1.56s-.44-1.56-1.33-1.56ZM671.34 220.82h1.34v-1.78h-1.34v1.78ZM672.23 238.18l.45-2.23h-1.34l.89 2.23ZM674.9 145.13v-3.56l-2.67 1.78 2.67 1.78ZM678.02 236.4c-.3 0-.52.3-.66.89-.15.6-.08 1.04.22 1.34.59-.29.96-.74 1.11-1.34.15-.59-.07-.89-.67-.89ZM683.81 44.96c-1.19 0-2.16.45-2.89 1.34-.74.89-1.41 1.63-2 2.23l4.89.89v-4.45ZM682.92 281.36c-.6-.29-.89-.15-.89.45s.29.89.89.89.89-.15.89-.45-.3-.59-.89-.89ZM685.15 136.67v-1.34l-1.78-.44 1.78 1.78ZM693.16 52.98c-.6-.29-.82.15-.66 1.34.15 1.19.52 1.93 1.11 2.23.89 0 1.26-.59 1.11-1.78-.15-1.18-.66-1.78-1.56-1.78ZM699.84 128.66c-1.49-.59-2.45.15-2.9 2.23-.44 2.08-.97 3.72-1.56 4.9h7.57c.29-.89.22-2.37-.22-4.45-.44-2.07-1.41-2.96-2.89-2.67ZM697.61 292.49h1.78v-1.34h-1.78v1.34ZM704.29 39.18c-.6.3-.89 1.04-.89 2.23s.44 1.63 1.33 1.34c1.18 0 1.7-.51 1.56-1.56-.15-1.04-.82-1.7-2-2ZM707.85 291.16c-.89.6-1.33 1.19-1.33 1.78s-.15 1.34-.44 2.23c-.3.3-.44.89-.44 1.78 1.78-1.18 2.67-2.67 2.67-4.45l-.44-.89v-.45ZM707.85 48.08l-1.78 6.68c.29 0 .59.15.89.45.59 0 1.48-.67 2.67-2 1.18-1.34 1.78-2.3 1.78-2.89 0-.29-.15-.74-.45-1.34-.3-.59-.74-.89-1.33-.89l-.89-.44-.89.44ZM711.86 24.49c-.89 0-1.34.44-1.34 1.33s.44 1.49 1.34 1.78c.89.3 1.33-.07 1.33-1.11s-.44-1.7-1.33-2ZM711.86 32.94c2.37.6 3.93 1.49 4.67 2.67.74 1.19 1.26 2.45 1.56 3.78.29 1.33.52 2.6.66 3.78.15 1.19.96 2.08 2.45 2.67l2.67-4.01-2.67-11.58h-.44c-.3 0-.44-.07-.44-.22s-.15-.22-.45-.22l-.89-.45c-.6.3-1.86.82-3.79 1.56-1.93.74-3.05 1.41-3.34 2ZM712.75 134.45c0 .6.22 1.49.67 2.67.44 1.19.81 2.08 1.11 2.67.59 0 1.11-.29 1.56-.89.44-.59.51-1.04.22-1.34 0-.59-.3-1.7-.89-3.34-.6-1.63-1.64-2.74-3.12-3.34v.89c0 .3.07.52.22.67.15.15.22.38.22.67v1.34ZM714.08 62.77h.89c.29 0 .59-.15.89-.45.59-.59 1.33-.96 2.23-1.11.89-.15 1.48-.22 1.78-.22-.6-.59-1.26-1.11-2-1.56-.74-.44-1.41-.51-2-.22h-1.33l-.45 3.56ZM721.21 61.44c-.6-.29-.97.15-1.11 1.34-.15 1.19.07 1.93.67 2.23.89-.29 1.4-1.04 1.56-2.23.15-1.18-.22-1.63-1.11-1.34ZM720.76 298.28c.59 2.37 1.92 3.85 4.01 4.45v-4.01l-4.01-.44ZM721.65 52.53l1.78-.44-1.78-3.12v3.56ZM725.21 93.49c0 .3.44.89 1.34 1.78l.89.44h.44l-3.12-3.56.44.89v.44ZM726.1 108.18c0 .89.07 1.86.22 2.89.15 1.04.81 1.86 2 2.45l.89-.45c0-.29.59-.74 1.78-1.33.59-.29 1.18-.45 1.78-.45l.44-10.24c-1.49 1.49-3.05 2.45-4.67 2.89-1.64.45-2.45 1.86-2.45 4.23ZM727.88 63.22c-.3 1.78.07 3.64 1.11 5.56 1.03 1.93 2.74 2.89 5.12 2.89l.44.44c-.6-2.37-1.11-4.82-1.56-7.34-.44-2.52-.96-4.82-1.56-6.9l-.89-.44c-1.49 0-2.23.74-2.23 2.23s-.15 2.67-.44 3.56ZM727.88 309.41h1.78l.44-2.23h-1.78l-.44 2.23ZM729.22 317.87l1.78-1.78h-1.78v1.78ZM729.67 48.97c2.37 0 3.93.38 4.67 1.11.74.74 1.11 1.56 1.11 2.45s.15 1.86.44 2.89c.29 1.04 1.18 2 2.67 2.89l.89-15.58c-2.38.3-4.53.74-6.46 1.34-1.93.6-3.05 2.23-3.34 4.9ZM737.68 35.17c0-.59-.37-.89-1.11-.89s-.96.3-.66.89c.29.6.66.89 1.11.89s.66-.29.66-.89ZM737.23 99.28l3.12.44v-3.56l-3.56-.45.44 3.56ZM739.9 72.12c.29-.59.07-.96-.67-1.11-.74-.15-1.11.08-1.11.67s.3.97.89 1.11c.59.15.89-.07.89-.67ZM743.91 315.2c-.89-.3-1.49.15-1.78 1.34-.3 1.18 0 1.93.89 2.23.89 0 1.48-.6 1.78-1.78.29-1.19 0-1.78-.89-1.78ZM742.58 86.81c-.3 2.97 1.63 4.75 5.79 5.34 0-3.85-1.49-6.52-4.45-8.01-.3 0-.6.22-.89.67-.3.45-.6.82-.89 1.11l.44.89ZM763.05 340.13c-.89 0-1.41.51-1.56 1.56-.15 1.04.22 1.7 1.11 2 .89 0 1.4-.67 1.56-2 .15-1.34-.22-1.86-1.11-1.56ZM763.05 300.51h4.01c-.3-.6-.74-1.41-1.33-2.45-.6-1.04-1.34-1.4-2.23-1.11l-.89.44.44 3.12ZM770.18 283.59c.29-.59.15-.89-.44-.89s-.89.3-.89.89c.29.6.59.89.89.89s.44-.29.44-.89ZM773.74 328.55h1.78l-1.78-1.78v1.78ZM783.09 308.52c-.6 0-.97.59-1.11 1.78-.15 1.18.07 1.78.66 1.78.89-.3 1.41-1.04 1.56-2.23.15-1.19-.22-1.63-1.11-1.34ZM784.42 309.41c-.89.29-1.27 1.04-1.11 2.23.15 1.18.67 1.63 1.56 1.34 1.18 0 1.7-.6 1.56-1.78-.15-1.19-.82-1.78-2-1.78Z"/>
</svg>